<?xml version="1.0" standalone="no"?>
<!DOCTYPE svg PUBLIC "-//W3C//DTD SVG 1.1//EN" "http://www.w3.org/Graphics/SVG/1.1/DTD/svg11.dtd" >
<svg xmlns="http://www.w3.org/2000/svg">
<metadata></metadata>
<defs>
<font id="corehumanistsans-italicRg" horiz-adv-x="1505" >
<font-face units-per-em="2048" ascent="1235" descent="-813" />
<missing-glyph horiz-adv-x="500" />
<glyph unicode="&#xfb03;" horiz-adv-x="1759" d="M81 715q0 29 20.5 49.5t49.5 20.5h115l23 187q20 163 119.5 254.5t256.5 91.5q25 0 50.5 -1.5t44.5 -3.5t34.5 -4t24.5 -3l9 -2q31 -6 48.5 -32.5t11.5 -57.5t-32.5 -48.5t-57.5 -11.5q-59 11 -133 11q-199 0 -225 -212l-20 -168h475l26 220q38 321 469 321q86 0 206 -24 q31 -7 48 -33t10 -57t-33.5 -48t-57.5 -11q-1 1 -26.5 6t-68.5 10t-77 5q-158 0 -232 -45.5t-86 -141.5l-25 -202h467q37 0 61 -24.5t20 -61.5l-85 -699q-4 -31 -29 -50.5t-56 -15.5q-32 4 -51.5 29t-15.5 56l77 627h-405l-77 -645q-4 -32 -29 -51.5t-56 -15.5t-50.5 29 t-15.5 56l75 627h-475l-78 -646q-4 -31 -29 -50.5t-56 -15.5q-32 4 -51.5 29t-15.5 56l76 627h-98q-29 0 -49.5 20t-20.5 49z" />
<glyph unicode="&#xfb04;" horiz-adv-x="1855" d="M81 715q0 29 20.5 49.5t49.5 20.5h115l23 187q20 163 119.5 254.5t256.5 91.5q25 0 50.5 -1.5t44.5 -3.5t34.5 -4t24.5 -3l9 -2q31 -6 48.5 -32.5t11.5 -57.5t-32.5 -48.5t-57.5 -11.5q-59 11 -133 11q-199 0 -225 -212l-20 -168h475l27 220q18 149 127 235t278 86 q161 0 364 -22q31 -4 50.5 -28.5t15.5 -55.5l-149 -1220q-4 -31 -29 -51t-56 -16q-32 4 -51.5 29t-15.5 56l140 1141q-190 15 -269 15q-39 0 -74.5 -7t-76.5 -25t-68.5 -57.5t-34.5 -97.5l-24 -202h193q29 0 49.5 -20.5t20.5 -49.5t-20.5 -49t-49.5 -20h-210l-78 -645 q-4 -32 -29 -51.5t-56 -15.5t-50.5 29t-15.5 56l75 627h-475l-78 -646q-4 -31 -29 -50.5t-56 -15.5q-32 4 -51.5 29t-15.5 56l76 627h-98q-29 0 -49.5 20t-20.5 49z" />
<glyph horiz-adv-x="2048" />
<glyph horiz-adv-x="2048" />
<glyph horiz-adv-x="682" />
<glyph unicode="&#x9;" horiz-adv-x="1207" />
<glyph unicode="&#xa;" horiz-adv-x="1365" />
<glyph unicode="&#xd;" horiz-adv-x="1058" />
<glyph unicode=" "  horiz-adv-x="500" />
<glyph unicode="&#x09;" horiz-adv-x="500" />
<glyph unicode="&#xa0;" horiz-adv-x="500" />
<glyph unicode="!" horiz-adv-x="539" d="M110 71l52 54q26 28 64.5 28.5t66.5 -26.5t29 -66t-26 -66l-52 -53q-27 -28 -65.5 -28.5t-66.5 25.5q-28 27 -28.5 65.5t26.5 66.5zM186 521l88 723q4 31 29 50.5t56 15.5q32 -4 51.5 -29t15.5 -56l-89 -723q-4 -31 -28.5 -50.5t-56.5 -15.5q-31 4 -50.5 28.5t-15.5 56.5 z" />
<glyph unicode="&#x22;" horiz-adv-x="870" d="M153 784l92 471q6 31 32.5 48.5t57.5 11.5t48.5 -32t11.5 -57l-92 -471q-6 -31 -32 -48.5t-57 -11.5t-49 32t-12 57zM577 784l92 471q6 31 32.5 48.5t57.5 11.5t48.5 -32t11.5 -57l-92 -471q-6 -31 -32.5 -48.5t-57.5 -11.5t-48.5 32t-11.5 57z" />
<glyph unicode="#" horiz-adv-x="1303" d="M66 372q0 23 16 39t39 16h236l105 462h-211q-23 0 -39 16t-16 39q0 22 16 38.5t39 16.5h236l60 262q5 22 24 34t42 7q22 -5 34 -24t7 -41l-54 -238h275l61 262q5 22 24 34t41 7t34 -24t7 -41l-54 -238h210q23 0 39 -16t16 -39t-16 -39t-39 -16h-235l-105 -462h210 q23 0 39 -16t16 -39t-16 -39t-39 -16h-235l-61 -262q-5 -20 -19 -30.5t-30 -10t-31 7t-23 22.5t-3 35l54 238h-276l-60 -262q-5 -20 -19 -30.5t-30.5 -10t-31.5 7t-23 22.5t-3 35l55 238h-211q-23 0 -39 16.5t-16 38.5zM470 427h275l106 462h-277z" />
<glyph unicode="$" horiz-adv-x="977" d="M73 -7q11 29 39.5 42.5t58.5 3.5q90 -32 249 -32q67 0 116.5 15t74.5 34t41 48t19.5 44t5.5 36q10 78 -14 115.5t-82 59.5l-277 105q-225 84 -193 335q17 141 115 221.5t260 88.5l29 241q4 31 29 50.5t56 15.5q32 -4 51.5 -29t15.5 -56l-28 -226q148 -12 213 -36 q30 -11 43.5 -39t3.5 -58t-39 -44t-59 -3q-40 14 -126.5 23t-154.5 9q-67 0 -117 -15t-75 -34t-41 -47.5t-19.5 -44t-5.5 -36.5q-10 -78 14 -115t82 -59l277 -105q224 -84 194 -335q-16 -133 -105.5 -213t-237.5 -95l-30 -241q-4 -31 -29 -50.5t-56 -15.5t-50.5 29t-15.5 56 l28 222q-135 10 -213 37q-30 10 -44 39t-3 59z" />
<glyph unicode="%" horiz-adv-x="1711" d="M101 803q0 118 82 199.5t201 81.5q108 0 187 -80t79 -188q0 -118 -82.5 -199.5t-201.5 -81.5q-107 0 -186 80.5t-79 187.5zM233 803q0 -53 40 -94.5t93 -41.5q64 0 107.5 42.5t43.5 106.5q0 53 -40 94.5t-93 41.5q-64 0 -107.5 -42.5t-43.5 -106.5zM302 -128l994 1350 q16 22 43 25.5t49 -12.5q23 -17 27 -43.5t-12 -48.5l-995 -1349q-16 -22 -43.5 -26t-49.5 12t-25.5 43t12.5 49zM1046 202q0 118 82.5 199.5t201.5 81.5q107 0 186 -80.5t79 -187.5q0 -118 -82 -199.5t-201 -81.5q-108 0 -187 80t-79 188zM1179 202q0 -53 40 -94.5t93 -41.5 q64 0 107.5 42.5t43.5 106.5q0 53 -40 94.5t-93 41.5q-64 0 -107.5 -42.5t-43.5 -106.5z" />
<glyph unicode="&#x26;" horiz-adv-x="1340" d="M97 342q8 65 35.5 119t74.5 96.5t89.5 70t103.5 60.5q-68 95 -91 170t-13 160q18 146 110 226.5t243 80.5q72 0 148 -22t117 -63q21 -21 21.5 -50t-20.5 -51q-20 -21 -50 -22t-52 20q-16 16 -64 30.5t-100 14.5q-188 0 -210 -182q-8 -64 17.5 -128t125.5 -183l301 -356 q156 133 305 264q23 20 53 18t49 -24q19 -23 17.5 -52.5t-23.5 -49.5q-40 -36 -308 -265l145 -171q19 -22 16 -52.5t-25 -49.5t-52.5 -17t-49.5 25l-143 172q-103 -87 -141 -114q-136 -98 -250 -98q-112 0 -204 58t-140 156t-35 209zM239 325q-13 -106 58.5 -184t178.5 -78 q67 0 168 71q23 16 130 106l-282 334q-5 -3 -16 -8q-29 -15 -44.5 -23.5t-43 -25t-43.5 -29t-37 -32t-33.5 -38t-22.5 -43t-13 -50.5z" />
<glyph unicode="'" horiz-adv-x="445" d="M153 784l92 471q6 31 32.5 48.5t57.5 11.5t48.5 -32t11.5 -57l-92 -471q-6 -31 -32 -48.5t-57 -11.5t-49 32t-12 57z" />
<glyph unicode="(" horiz-adv-x="605" d="M93 457q47 376 381 688q20 19 48.5 18.5t47.5 -20.5q20 -20 19.5 -48t-20.5 -47q-301 -286 -341 -607q-21 -171 25 -337t151 -297q17 -22 14 -49.5t-25 -44.5t-50 -14t-45 24q-122 154 -176 346t-29 388z" />
<glyph unicode=")" horiz-adv-x="610" d="M1 -280q-19 20 -18.5 47.5t20.5 47.5q300 282 340 607q21 171 -25 336.5t-151 297.5q-17 22 -14 49.5t25 44.5t50.5 14t45.5 -25q121 -152 174.5 -344t29.5 -389q-46 -370 -382 -688q-20 -19 -48 -18.5t-47 20.5z" />
<glyph unicode="*" horiz-adv-x="1350" d="M114 890q11 30 39 44t58 4l412 -139l56 452q4 31 28.5 50.5t56.5 15.5q31 -4 50.5 -29t15.5 -56l-53 -429l432 135q30 9 58.5 -5.5t37.5 -44.5q10 -31 -5 -58.5t-45 -37.5l-452 -141l218 -361q16 -27 8.5 -57.5t-34.5 -47.5q-27 -16 -57.5 -8.5t-47.5 34.5l-212 351 l-307 -361q-20 -24 -51.5 -26.5t-55.5 17.5q-24 21 -26.5 52.5t17.5 55.5l305 359l-398 135q-30 10 -44 38.5t-4 57.5z" />
<glyph unicode="+" horiz-adv-x="1007" d="M53 428q0 32 22 54.5t54 22.5h287l43 352q4 31 28.5 50.5t56.5 15.5q31 -4 50.5 -28.5t15.5 -56.5l-40 -333h268q32 0 54 -22.5t22 -54.5t-22 -54t-54 -22h-287l-43 -352q-4 -31 -29 -50.5t-56 -15.5q-32 4 -51.5 29t-15.5 56l41 333h-268q-31 0 -53.5 22t-22.5 54z" />
<glyph unicode="," horiz-adv-x="495" d="M-24 -314q-17 26 -11 57t32 48q73 48 122 115.5t43 97.5q-2 12 -39 20q-31 7 -48 33t-11 57q7 31 33.5 48.5t57.5 10.5q42 -9 73 -26t47.5 -38.5t24.5 -39t12 -36.5q10 -50 -9.5 -107t-57.5 -106t-80 -88.5t-84 -67.5q-26 -17 -56.5 -11t-48.5 33z" />
<glyph unicode="-" horiz-adv-x="907" d="M126 429q0 31 22 53.5t54 22.5h463q32 0 54.5 -22.5t22.5 -53.5q0 -32 -22.5 -54.5t-54.5 -22.5h-463q-32 0 -54 22.5t-22 54.5z" />
<glyph unicode="." horiz-adv-x="469" d="M74 77l52 53q27 27 65 28t66 -26q28 -26 28.5 -64.5t-25.5 -66.5l-52 -54q-27 -28 -65.5 -28.5t-66.5 26.5t-28.5 65.5t26.5 66.5z" />
<glyph unicode="/" horiz-adv-x="967" d="M18 -132l784 1380q16 28 46.5 36.5t57.5 -7.5q28 -16 36.5 -46.5t-7.5 -57.5l-784 -1380q-16 -28 -46.5 -36t-57.5 7q-28 16 -36.5 46.5t7.5 57.5z" />
<glyph unicode="0" horiz-adv-x="1104" d="M107 382l30 242q22 174 145 287t292 113q117 0 214 -66t145.5 -172.5t34.5 -221.5l-30 -243q-22 -174 -145.5 -287t-291.5 -113q-117 0 -214 66t-145.5 173t-34.5 222zM258 363q-14 -109 59.5 -199t183.5 -90q112 0 192 74t94 192l30 242q14 109 -59.5 199.5t-183.5 90.5 q-112 0 -192 -74.5t-94 -191.5z" />
<glyph unicode="1" horiz-adv-x="903" d="M51 11q0 32 22 54t54 22h225l92 748l-210 -43q-20 -4 -39.5 2t-33 21t-17.5 35q-4 16 -0.5 31t11 27t20.5 21t28 12l314 65q39 8 68 -19t24 -65l-102 -835h203q32 0 54.5 -22.5t22.5 -53.5q0 -32 -22.5 -54.5t-54.5 -22.5h-583q-32 0 -54 22.5t-22 54.5z" />
<glyph unicode="2" horiz-adv-x="998" d="M59 19q4 35 7 56t13 64.5t22 73.5t34.5 72t50 72.5t70 62.5t93.5 54q75 33 194 69q114 35 148.5 60.5t42.5 92.5q6 47 -13 82.5t-54 55t-75.5 29t-83.5 9.5q-57 0 -130.5 -13.5t-116.5 -26.5q-31 -10 -58.5 5t-37.5 45q-9 30 5.5 58t45.5 38q54 17 139.5 31.5t152.5 14.5 q78 0 149.5 -22.5t126.5 -64.5t83.5 -109.5t18.5 -149.5q-5 -41 -17.5 -75.5t-26.5 -58.5t-39.5 -45.5t-44.5 -34.5t-54 -27t-55.5 -21t-60.5 -19q-106 -32 -178 -63q-85 -37 -127 -99t-60 -149h503q32 0 54 -22t22 -54t-22 -54t-54 -22h-592q-34 0 -56.5 25.5t-18.5 59.5z " />
<glyph unicode="3" horiz-adv-x="992" d="M18 -214q6 31 32.5 48t57.5 11q1 -1 35 -7.5t86.5 -13t90.5 -6.5q58 0 108 9t100 31t82.5 66.5t39.5 107.5q14 114 -56.5 176.5t-186.5 62.5h-138q-31 0 -53.5 22.5t-22.5 53.5q0 32 22.5 54.5t53.5 22.5h154q124 0 198.5 55t86.5 155q10 78 -28 133.5t-100 80t-138 24.5 q-81 0 -213 -25q-31 -6 -57 11.5t-32 48.5t11.5 57t48.5 32q168 28 242 28q89 0 169.5 -28.5t140 -79t89.5 -129t19 -171.5q-10 -84 -55 -158.5t-124 -122.5q70 -60 101 -144.5t20 -177.5q-20 -163 -147.5 -255t-334.5 -92q-98 0 -243 29q-31 7 -48.5 33.5t-10.5 57.5z" />
<glyph unicode="4" horiz-adv-x="1119" d="M-1 96l568 877q17 26 48 32.5t58 -10.5q26 -17 32.5 -48t-10.5 -57l-492 -759h446l34 278q4 31 29 51t56 16q32 -4 51.5 -29t15.5 -56l-32 -260h131q31 0 53.5 -22.5t22.5 -53.5t-22.5 -53.5t-53.5 -22.5h-150l-30 -246q-4 -32 -29 -51.5t-56 -15.5t-50.5 29t-15.5 56 l28 228h-568q-25 0 -47 17.5t-28 43.5t11 56z" />
<glyph unicode="5" horiz-adv-x="959" d="M42 -258q0 32 22 54t54 22h150q336 0 366 247q15 122 -37 177.5t-212 88.5l-218 45q-31 6 -48.5 32t-11.5 57l92 481q5 27 26 44.5t49 17.5h503q31 0 53.5 -22.5t22.5 -54.5q0 -31 -22.5 -53.5t-53.5 -22.5h-440l-66 -345l145 -30q33 -7 61 -14t59.5 -17.5t56.5 -22.5 t52 -28t46.5 -35t39 -43t30 -52t20 -62t8.5 -73t-4 -86q-23 -182 -158 -281.5t-359 -99.5h-150q-32 0 -54 22t-22 54z" />
<glyph unicode="6" horiz-adv-x="1070" d="M112 480q86 554 622 785q29 13 58 1t42 -41t1 -58t-41 -42q-331 -142 -460 -425q105 37 215 37q170 0 284 -108.5t114 -276.5q0 -191 -118.5 -312t-310.5 -121q-77 0 -143 22.5t-113 61.5t-82.5 93t-52 116t-22.5 130.5t7 137.5zM256 378q0 -135 66 -220.5t196 -85.5 q127 0 202 76.5t75 203.5q0 105 -69.5 168.5t-176.5 63.5q-147 0 -278 -69q-15 -79 -15 -137z" />
<glyph unicode="7" horiz-adv-x="1035" d="M142 931q0 32 22.5 54.5t53.5 22.5h710q38 0 64 -36.5t3 -76.5l-649 -1188q-16 -28 -46 -37t-58 6t-36.5 45.5t6.5 58.5l587 1075h-581q-32 0 -54 22.5t-22 53.5z" />
<glyph unicode="8" horiz-adv-x="1116" d="M112 320q14 110 86.5 180.5t190.5 122.5q-101 68 -155.5 153.5t-40.5 201.5q20 165 130.5 253t296.5 88q118 0 212 -48.5t144.5 -141t35.5 -211.5q-8 -61 -33 -112t-64.5 -89.5t-82.5 -66t-98 -53.5q49 -32 84.5 -63.5t65.5 -72.5t42 -92.5t5 -109.5q-20 -164 -130 -252 t-296 -88q-87 0 -163.5 28.5t-131.5 79.5t-82 127.5t-16 165.5zM264 301q-14 -109 57 -169.5t184 -60.5q79 0 134 18t83 50.5t40.5 64.5t17.5 74q9 73 -44 125t-181 123q-147 -56 -214.5 -103t-76.5 -122zM344 960q-10 -81 44.5 -139t178.5 -128q145 56 214.5 107.5 t79.5 136.5q14 109 -57 169t-184 60q-79 0 -134 -17.5t-83.5 -50.5t-41 -64.5t-17.5 -73.5z" />
<glyph unicode="9" horiz-adv-x="1044" d="M84 593q0 191 119 312t311 121q77 0 143 -22.5t113 -61.5t82.5 -93t52 -116t22.5 -130.5t-7 -137.5q-87 -555 -623 -785q-28 -12 -57.5 -0.5t-42.5 40.5q-12 29 -0.5 58.5t40.5 42.5q331 142 461 424q-110 -36 -216 -36q-170 0 -284 108t-114 276zM237 594 q0 -105 69.5 -169t176.5 -64q143 0 277 69q15 72 15 138q0 135 -66 220.5t-196 85.5q-127 0 -201.5 -76.5t-74.5 -203.5z" />
<glyph unicode=":" horiz-adv-x="524" d="M102 73l52 53q27 27 65 28t66 -26q28 -26 28.5 -64.5t-25.5 -66.5l-52 -54q-27 -28 -65.5 -28.5t-66.5 26.5t-28.5 65.5t26.5 66.5zM199 864l52 54q26 28 64.5 28.5t66.5 -26.5t29 -66t-26 -66l-52 -53q-27 -27 -65.5 -28t-65.5 25q-28 27 -29 65.5t26 66.5z" />
<glyph unicode=";" horiz-adv-x="572" d="M35 -314q-17 26 -11 57t32 48q73 48 122 115.5t43 97.5q-2 12 -39 20q-31 7 -48 33t-11 57q7 31 33.5 48.5t57.5 10.5q42 -9 73 -26t47.5 -38.5t24.5 -39t12 -36.5q10 -50 -9.5 -107t-57.5 -106t-80 -88.5t-84 -67.5q-26 -17 -56.5 -11t-48.5 33zM197 864l51 54 q26 28 65 28.5t67 -26.5t28.5 -65.5t-26.5 -66.5l-51 -53q-27 -28 -65.5 -28.5t-66.5 26.5q-28 26 -28 64.5t26 66.5z" />
<glyph unicode="&#x3c;" horiz-adv-x="1038" d="M84 364q-36 24 -34.5 67t38.5 64l755 419q28 16 58 7t45 -36q16 -28 7.5 -58.5t-36.5 -45.5l-643 -357l544 -350q27 -17 33.5 -48t-10.5 -58q-17 -26 -48 -33t-57 10z" />
<glyph unicode="=" horiz-adv-x="1129" d="M119 219q0 31 22.5 53.5t53.5 22.5h648q31 0 53.5 -22.5t22.5 -53.5t-22.5 -53.5t-53.5 -22.5h-648q-31 0 -53.5 22.5t-22.5 53.5zM171 639q0 31 22.5 53.5t53.5 22.5h647q32 0 54 -22.5t22 -53.5t-22 -53.5t-54 -22.5h-647q-31 0 -53.5 22.5t-22.5 53.5z" />
<glyph unicode="&#x3e;" horiz-adv-x="1037" d="M54 -28q-16 28 -7.5 58.5t36.5 45.5l643 357l-544 350q-27 17 -33.5 48t10.5 58q17 26 48 33t57 -10l652 -419q36 -24 34.5 -67t-38.5 -64l-755 -419q-28 -16 -58 -7t-45 36z" />
<glyph unicode="?" horiz-adv-x="935" d="M154 1177q-16 27 -7 57.5t36 46.5q14 8 35.5 16.5t90.5 21.5t150 13q87 0 164 -27t133.5 -75.5t85 -124t17.5 -165.5q-6 -47 -19.5 -86.5t-30.5 -68.5t-46 -55.5t-53 -44t-65 -36.5t-69.5 -30.5t-77.5 -29.5l-10 -83q-4 -31 -29 -50.5t-56 -15.5q-32 4 -51.5 29t-15.5 56 l14 116q7 58 49 74q8 3 27 10.5t28 10.5q49 18 75.5 28.5t59 26.5t49 30t33.5 34.5t25 45.5t12 58q13 108 -61.5 164.5t-187.5 56.5q-22 0 -43.5 -1t-38 -3t-32 -4.5t-27.5 -5t-22 -5t-17 -5t-12 -4.5t-7 -3l-3 -1q-28 -16 -57.5 -7.5t-45.5 36.5zM261 76l51 54 q26 28 65 28.5t67 -26.5t28.5 -65.5t-26.5 -66.5l-51 -53q-27 -28 -65.5 -28.5t-66.5 26.5q-28 26 -28 64.5t26 66.5z" />
<glyph unicode="@" horiz-adv-x="1851" d="M88 355q0 198 76 378t205 311t308 209t376 79q199 1 363 -86t259 -245.5t95 -354.5q0 -78 -17.5 -164t-55.5 -171.5t-90 -154t-128.5 -111.5t-163.5 -44q-116 0 -176 77q-106 -70 -224 -70q-154 0 -254.5 115.5t-100.5 271.5q0 126 44.5 228t138 166t222.5 64 q91 0 207 -55q11 40 48.5 49.5t68 -14t25.5 -65.5l-70 -532q-6 -44 9.5 -67t58.5 -22q61 1 113.5 37t88 91t61.5 122.5t37.5 130.5t11.5 116q0 117 -44.5 218.5t-121 172.5t-181.5 111.5t-224 39.5q-168 -1 -319.5 -68t-261 -178t-174 -264t-64.5 -321q0 -155 59 -286.5 t160.5 -219.5t238 -137.5t289.5 -49.5q81 0 150 19t156 61q27 13 55.5 3t41.5 -37t3 -56t-37 -42q-98 -47 -183.5 -70.5t-185.5 -23.5q-183 0 -346.5 61t-284.5 168.5t-191.5 266t-70.5 343.5zM706 394q0 -95 58 -167.5t151 -72.5q46 0 92 19.5t67 36t23 20.5q1 4 1.5 12 t0.5 12l52 392q-115 61 -186 61q-130 0 -194.5 -88t-64.5 -225z" />
<glyph unicode="A" horiz-adv-x="1221" d="M-8 37l633 1233q20 39 64 39q24 0 43 -14.5t26 -37.5l346 -1233q7 -26 -2 -47.5t-28 -31t-40.5 -10.5t-40.5 12.5t-26 38.5l-86 303h-598l-163 -316q-13 -26 -42.5 -35.5t-54.5 4.5q-26 14 -35 41.5t4 53.5zM356 433h484l-171 610z" />
<glyph unicode="B" horiz-adv-x="1226" d="M123 19l149 1224q4 29 25.5 48t50.5 19h388q138 0 245.5 -107t107.5 -245q0 -90 -48.5 -175t-125.5 -141q70 -52 108 -130t38 -166q0 -176 -116 -294.5t-292 -118.5h-455q-34 0 -56.5 26t-18.5 60zM284 86h369q113 0 184.5 73.5t71.5 185.5q0 91 -62.5 155t-153.5 64 h-350zM361 717h332q88 0 166 76.5t78 164.5q0 75 -63 137t-138 62h-321z" />
<glyph unicode="C" horiz-adv-x="1190" d="M118 541q0 163 46 304.5t132.5 249t222.5 169.5t305 62q91 0 185 -19t132 -33q29 -12 41.5 -41t1.5 -58q-12 -29 -41 -41.5t-58 -1.5q-26 11 -107 26.5t-154 15.5q-110 0 -202 -32.5t-156.5 -90t-109 -137.5t-65.5 -173.5t-21 -198.5q0 -213 126 -341.5t339 -128.5 q117 0 210 33q29 11 58 -2.5t39 -43.5q11 -29 -2.5 -58.5t-43.5 -39.5q-116 -42 -261 -42q-276 0 -446.5 173t-170.5 449z" />
<glyph unicode="D" horiz-adv-x="1355" d="M123 19l150 1224q4 29 25.5 48t49.5 19h241q187 0 335 -70t235.5 -208.5t87.5 -325.5q0 -216 -86.5 -390t-253.5 -278t-386 -104h-323q-34 0 -57 25.5t-18 59.5zM284 86h237q134 0 243.5 48.5t181 133t110.5 197.5t39 243q0 144 -67.5 247t-180 152.5t-257.5 49.5h-174z " />
<glyph unicode="E" horiz-adv-x="1075" d="M123 19l150 1224q4 29 25.5 48t49.5 19h647q32 0 54 -22.5t22 -54.5q0 -31 -22.5 -53.5t-53.5 -22.5h-579l-57 -460h475q32 0 54 -22.5t22 -53.5t-22 -53.5t-54 -22.5h-493l-57 -459h545q32 0 54.5 -22.5t22.5 -53.5q0 -32 -23 -54.5t-54 -22.5h-631q-34 0 -56.5 26 t-18.5 60z" />
<glyph unicode="F" horiz-adv-x="1027" d="M123 19l150 1224q4 29 25.5 48t49.5 19h625q32 0 54 -22.5t22 -54.5q0 -31 -22.5 -53.5t-53.5 -22.5h-557l-61 -493h444q32 0 54.5 -22.5t22.5 -53.5t-22.5 -53.5t-54.5 -22.5h-462l-63 -511q-4 -32 -29 -51.5t-56 -15.5t-50.5 29t-15.5 56z" />
<glyph unicode="G" horiz-adv-x="1335" d="M115 548q0 158 51 299.5t143 247.5t229 168t299 62q183 0 332 -33q31 -7 48 -33t10 -57t-33.5 -48.5t-57.5 -10.5q-133 30 -299 30q-131 0 -239.5 -50t-180 -136t-110.5 -199.5t-39 -240.5q0 -206 124 -340.5t330 -134.5q147 0 276 25l41 340h-64q-31 0 -53.5 22.5 t-22.5 53.5t22.5 53.5t53.5 22.5h150q35 0 57.5 -25.5t18.5 -59.5l-59 -481q-3 -25 -20 -43.5t-42 -22.5q-87 -15 -125 -20.5t-103 -11.5t-130 -6q-178 0 -317.5 83.5t-214.5 226.5t-75 319z" />
<glyph unicode="H" horiz-adv-x="1406" d="M123 19l150 1224q4 31 28.5 50.5t56.5 15.5q31 -4 50.5 -29t15.5 -56l-62 -502h714l64 521q4 31 28.5 50.5t56.5 15.5t51.5 -29t15.5 -56l-150 -1223q-4 -31 -29 -51t-56 -16q-32 4 -51.5 29t-15.5 56l68 550h-714l-70 -568q-4 -32 -29 -51.5t-56 -15.5t-50.5 28.5 t-15.5 56.5z" />
<glyph unicode="I" horiz-adv-x="538" d="M123 19l150 1224q4 31 28.5 50.5t56.5 15.5q31 -4 50.5 -29t15.5 -56l-150 -1224q-4 -31 -28.5 -50.5t-56.5 -15.5q-31 4 -50.5 28.5t-15.5 56.5z" />
<glyph unicode="J" horiz-adv-x="541" d="M-272 -365q1 31 24.5 52.5t55.5 19.5q51 -3 82 -3q80 0 143.5 46.5t74.5 135.5l166 1357q4 31 29 50.5t56 15.5q32 -4 51.5 -29t15.5 -56l-167 -1357q-17 -140 -120 -228t-249 -88q-16 0 -52.5 1.5t-37.5 1.5q-32 2 -53 26t-19 55z" />
<glyph unicode="K" horiz-adv-x="1177" d="M123 19l150 1224q4 31 28.5 50.5t56.5 15.5q31 -4 50.5 -29t15.5 -56l-77 -625l708 689q23 22 54.5 22t53.5 -23q22 -22 21.5 -54t-22.5 -54l-554 -539l425 -586q19 -26 14 -56.5t-31 -49.5t-57 -14t-50 31l-412 567l-179 -174v-1l-44 -356q-4 -32 -29 -51.5t-56 -15.5 t-50.5 29t-15.5 56z" />
<glyph unicode="L" horiz-adv-x="947" d="M122 19l150 1223q4 31 28.5 51t55.5 16q32 -4 51.5 -29t15.5 -56l-140 -1138h481q32 0 54 -22t22 -54t-22.5 -54.5t-53.5 -22.5h-567q-32 0 -55.5 27.5t-19.5 58.5z" />
<glyph unicode="M" horiz-adv-x="1549" d="M123 19l149 1224q4 34 32 52.5t61 11.5t50 -37l357 -663l527 674q16 20 41 26.5t49 -3.5q23 -10 36 -32.5t10 -47.5l-150 -1224q-4 -31 -29 -50.5t-56 -15.5t-50.5 28.5t-15.5 56.5l116 952l-430 -550q-26 -32 -67 -28.5t-60 39.5l-298 554l-121 -986q-4 -31 -28.5 -50.5 t-56.5 -15.5q-31 4 -50.5 28.5t-15.5 56.5z" />
<glyph unicode="N" horiz-adv-x="1420" d="M122 19l150 1224q4 33 31 52t59.5 13.5t50.5 -35.5l619 -1033l123 1003q4 31 28.5 50.5t55.5 15.5q32 -4 51.5 -29t15.5 -56l-150 -1223q-4 -33 -31 -52t-59.5 -13.5t-50.5 35.5l-619 1033l-123 -1003q-4 -32 -29 -51t-56 -15t-50.5 28.5t-15.5 55.5z" />
<glyph unicode="O" d="M117 566q0 150 48 287t134.5 242t217 167.5t285.5 62.5q131 0 243.5 -50.5t189.5 -136t120.5 -201t43.5 -243.5q0 -118 -30.5 -231.5t-90 -211.5t-141.5 -172.5t-191.5 -117t-233.5 -42.5q-131 0 -244 53t-189 142t-119 206.5t-43 245.5zM270 566q0 -97 31 -186 t86.5 -157.5t140 -109.5t184.5 -41q121 0 223.5 54t169.5 142.5t104 199t37 226.5q0 131 -53.5 239.5t-156 174t-234.5 65.5q-122 0 -224 -51t-168.5 -136.5t-103 -194t-36.5 -225.5z" />
<glyph unicode="P" horiz-adv-x="1118" d="M122 19l150 1224q4 29 25.5 48t50.5 19h338q101 0 192 -58t144.5 -151.5t53.5 -194.5q0 -119 -52 -223t-149.5 -169.5t-218.5 -65.5h-328l-54 -447q-4 -31 -29 -51t-56 -16q-32 5 -51.5 29.5t-15.5 55.5zM347 600h309q116 0 191.5 93.5t75.5 212.5q0 93 -74 172t-163 79 h-271z" />
<glyph unicode="Q" d="M116 565q0 148 49 285t136 242.5t217.5 169t283.5 63.5q173 0 311 -87.5t212 -232t74 -315.5q0 -133 -40 -261.5t-122 -240.5t-194 -179l245 -189q25 -19 29 -50t-15 -56t-50.5 -29.5t-56.5 15.5l-314 241q-83 -22 -169 -22q-131 0 -243.5 53t-189 142t-120 206 t-43.5 245zM269 565q0 -97 31.5 -185.5t87.5 -157t140.5 -109.5t183.5 -41q97 0 183 35t149 95t109.5 138.5t69.5 168t23 181.5q0 130 -53.5 239.5t-156 176.5t-234.5 67q-122 0 -224.5 -51.5t-169 -136.5t-103 -194t-36.5 -226z" />
<glyph unicode="R" horiz-adv-x="1196" d="M123 19l150 1224q4 29 25.5 48t50.5 19h338q101 0 192 -58t144.5 -151.5t53.5 -194.5q0 -150 -84.5 -276.5t-224.5 -166.5l242 -415q16 -27 7.5 -57.5t-35.5 -46.5t-57.5 -8t-46.5 35l-278 477h-271l-55 -447q-4 -32 -29 -51.5t-56 -15.5t-50.5 29t-15.5 56zM348 600h309 q116 0 191.5 93.5t75.5 212.5q0 93 -74 172t-163 79h-271z" />
<glyph unicode="S" horiz-adv-x="1059" d="M76 62q10 30 39 44t58 3q108 -37 278 -37q140 0 221 62.5t81 196.5q0 32 -7 54t-26.5 41t-38.5 31t-57 32l-250 132q-37 19 -57.5 31t-54 39.5t-51.5 55t-32.5 72t-14.5 97.5q0 198 125.5 303.5t328.5 105.5q194 0 328 -46q30 -10 44 -39t3 -58q-10 -30 -38.5 -43 t-58.5 -3q-108 37 -278 37q-140 0 -221 -62.5t-81 -196.5q0 -60 28 -89.5t102 -68.5l249 -132q38 -20 58 -32t53.5 -39.5t51.5 -54.5t32.5 -71.5t14.5 -97.5q0 -198 -125.5 -304t-328.5 -106q-198 0 -328 46q-30 11 -43.5 39t-3.5 58z" />
<glyph unicode="T" horiz-adv-x="1126" d="M105 1233q0 32 22 54.5t54 22.5h918q32 0 54 -22.5t22 -54.5q0 -31 -22.5 -53.5t-53.5 -22.5h-392l-142 -1157q-4 -31 -28.5 -50.5t-55.5 -15.5q-32 4 -51.5 29t-15.5 56l140 1138h-373q-31 0 -53.5 22.5t-22.5 53.5z" />
<glyph unicode="U" horiz-adv-x="1470" d="M174 580l83 663q4 31 28.5 50.5t56.5 15.5q31 -4 50.5 -28.5t15.5 -56.5l-83 -663q-16 -133 17.5 -242t124.5 -178t227 -69q384 0 440 466l84 705q4 31 29 50.5t56 15.5t50.5 -28.5t15.5 -56.5l-84 -704q-35 -290 -187.5 -445.5t-403.5 -155.5q-110 0 -202.5 35t-156 97 t-105 144.5t-55.5 181t-1 203.5z" />
<glyph unicode="V" horiz-adv-x="1194" d="M134 1208q-7 31 9 57.5t47 34.5q30 8 57.5 -8t34.5 -47l259 -1022l540 1045q15 28 44.5 37.5t57.5 -4.5q28 -15 37.5 -44.5t-4.5 -57.5l-632 -1224q-25 -47 -76.5 -40t-64.5 56z" />
<glyph unicode="W" horiz-adv-x="1820" d="M153 1221q-5 31 13 57t49 31t57 -13t31 -50l165 -982l439 942q11 23 33.5 34t44.5 8t41.5 -18t24.5 -40l210 -929l414 1002q12 29 41.5 41t57.5 0q29 -12 41.5 -41.5t0.5 -58.5l-506 -1223q-13 -32 -45.5 -42.5t-62.5 4.5t-37 50l-214 946l-449 -962q-15 -32 -47.5 -40.5 t-61.5 9t-35 51.5z" />
<glyph unicode="X" horiz-adv-x="1197" d="M28 59l481 570l-343 565q-16 27 -8.5 57.5t34.5 47.5q27 16 57 8.5t47 -34.5l317 -521l448 531q20 24 51.5 26.5t55.5 -17.5t26.5 -52t-17.5 -56l-481 -569l343 -565q17 -27 9.5 -58t-34.5 -47q-27 -17 -58 -9.5t-47 35.5l-316 521l-448 -531q-20 -24 -52 -26.5t-56 17.5 t-26.5 51.5t17.5 55.5z" />
<glyph unicode="Y" horiz-adv-x="1145" d="M130 1197q-15 28 -6 58t37 46q28 15 58 6t45 -37l313 -576l474 587q20 25 51.5 28.5t56.5 -16.5q24 -19 27.5 -51t-16.5 -56l-533 -660l-64 -525q-4 -31 -29 -50.5t-56 -15.5q-32 5 -51.5 29.5t-15.5 55.5l64 522z" />
<glyph unicode="Z" horiz-adv-x="1126" d="M25 56l854 1101h-639q-21 0 -39 10t-28 27.5t-10 38.5q0 32 22.5 54.5t54.5 22.5h794q27 0 49.5 -19.5t26.5 -47t-16 -56.5l-853 -1101h667q32 0 54 -22t22 -54t-22.5 -54.5t-53.5 -22.5h-823q-43 0 -66 41t6 82z" />
<glyph unicode="[" horiz-adv-x="600" d="M53 -342l211 1699q3 25 21 43t43 20l225 20q30 3 53 -16t26 -48t-16.5 -52t-49.5 -26l-165 -15l-196 -1570l146 -13q30 -3 49 -26t16 -52q-3 -30 -26.5 -49t-52.5 -16l-219 21q-31 3 -50 26t-15 54z" />
<glyph unicode="\" horiz-adv-x="963" d="M180 1187q-10 30 4.5 58t44.5 38t58 -4.5t38 -44.5l446 -1380q10 -30 -4.5 -58t-44.5 -38t-58 4.5t-38 44.5z" />
<glyph unicode="]" horiz-adv-x="598" d="M-55 -378q-3 29 16.5 52t49.5 26l166 15l195 1570l-146 13q-30 3 -48.5 26t-15.5 52q3 30 26 48.5t53 15.5l218 -20q31 -3 50.5 -27t15.5 -53l-212 -1700q-3 -25 -21 -42.5t-43 -19.5l-225 -21q-30 -3 -53 16t-26 49z" />
<glyph unicode="^" horiz-adv-x="1015" d="M293 1148l346 446q24 31 63.5 27.5t56.5 -36.5l247 -447q14 -25 5.5 -54t-34.5 -43q-26 -15 -54.5 -7t-43.5 35l-193 350l-279 -359q-19 -24 -48.5 -28.5t-53.5 14.5q-23 19 -27 48.5t15 53.5z" />
<glyph unicode="_" horiz-adv-x="2237" d="M162 -339q0 31 22 53.5t54 22.5h1534q32 0 54 -22.5t22 -53.5t-22 -53.5t-54 -22.5h-1534q-32 0 -54 22.5t-22 53.5z" />
<glyph unicode="`" horiz-adv-x="645" d="M138 1347q-21 23 -20 55t24 53q23 22 55 20.5t53 -24.5l181 -196q22 -23 20.5 -54.5t-24.5 -52.5q-23 -22 -54.5 -20.5t-53.5 24.5z" />
<glyph unicode="a" horiz-adv-x="1097" d="M87 380q0 155 62 281.5t183 203t279 76.5q114 0 219 -42q18 19 43 23t46 -5.5t34 -30.5t10 -47l-103 -839q-4 -34 -32 -52.5t-60.5 -12t-48.5 35.5q-98 -52 -202 -52q-129 0 -228 62.5t-150.5 166.5t-51.5 232zM240 380q0 -133 73.5 -221t203.5 -88q54 0 125 27t85 46 l71 602q-83 43 -187 43q-174 0 -272.5 -116.5t-98.5 -292.5z" />
<glyph unicode="b" horiz-adv-x="1116" d="M96 19l154 1233q4 31 28.5 50.5t56.5 15.5q34 -4 52 -28.5t14 -56.5l-42 -334q120 42 192 42q196 0 316.5 -132t120.5 -329q0 -115 -33.5 -216t-95.5 -178t-158.5 -122t-215.5 -45q-88 0 -246 56q-18 -35 -55 -40t-65 19.5t-23 64.5zM263 128q153 -57 222 -57 q88 0 156.5 33t110 90.5t62.5 130.5t21 157q0 133 -76.5 220t-207.5 87q-37 0 -100.5 -20t-112.5 -42z" />
<glyph unicode="c" horiz-adv-x="948" d="M87 387q0 115 36.5 216t102 176t164 118.5t216.5 43.5q106 0 231 -39q30 -10 45 -37.5t6 -57.5q-9 -31 -37 -45.5t-58 -5.5q-110 33 -187 33q-172 0 -269 -114.5t-97 -289.5q0 -135 84 -224.5t219 -89.5q62 0 155 21q31 7 57.5 -9t34.5 -47q6 -26 -3 -46.5t-30.5 -32.5 t-45.5 -20.5t-57.5 -12t-57.5 -4.5t-53 -1q-199 0 -327.5 134.5t-128.5 333.5z" />
<glyph unicode="d" horiz-adv-x="1115" d="M88 381q0 114 33.5 215t95.5 178t158.5 122t214.5 45q88 0 241 -54l45 365q4 31 29 50.5t56 15.5t50.5 -29t15.5 -56l-151 -1233q-4 -34 -31 -52t-59 -12.5t-50 32.5q-129 -49 -211 -49q-196 0 -316.5 132.5t-120.5 329.5zM240 379q0 -133 76.5 -220.5t208.5 -87.5 q72 0 214 63l73 599q-156 56 -222 56q-116 0 -197 -57.5t-117 -148t-36 -204.5z" />
<glyph unicode="e" horiz-adv-x="1051" d="M93 427l10 80q25 197 150.5 314.5t311.5 117.5q183 0 287 -113t104 -297q0 -32 -2 -52.5t-8.5 -43.5t-22 -35t-39.5 -13l-651 -41q6 -127 85.5 -204t203.5 -77q20 0 39.5 1.5t34.5 4.5t29 6t24 6.5t17.5 6.5t11.5 4l4 2q26 14 54.5 5.5t42.5 -35.5q14 -26 5 -55t-35 -42 q-96 -48 -227 -48q-141 0 -246 70t-152.5 186t-30.5 252zM246 489l566 36q0 127 -62 199t-185 72q-72 0 -129.5 -24.5t-90 -59t-55.5 -80.5t-31.5 -78.5t-12.5 -64.5z" />
<glyph unicode="f" horiz-adv-x="745" d="M81 716q0 32 22 54.5t54 22.5h116l22 179q20 162 119.5 254t256.5 92q25 0 51 -1.5t45 -3.5t34 -4t24 -3l9 -2q31 -6 48.5 -32.5t11.5 -57.5t-32 -48.5t-57 -11.5h-3q-4 1 -11 2t-16 2.5t-20.5 2.5t-24.5 2t-28.5 1.5t-30.5 0.5q-199 0 -225 -212l-19 -160h199 q32 0 54 -22.5t22 -54.5t-22 -54t-54 -22h-217l-78 -640q-4 -31 -28.5 -50.5t-56.5 -15.5q-31 4 -50.5 28.5t-15.5 56.5l75 621h-98q-31 0 -53.5 22t-22.5 54z" />
<glyph unicode="g" horiz-adv-x="1099" d="M89 387q0 156 61.5 281t181 199t278.5 74q111 0 215 -49q21 31 56.5 32t60.5 -24.5t21 -61.5l-120 -980q-17 -140 -117.5 -228t-242.5 -88q-15 0 -50 1.5t-36 1.5q-32 2 -53 25.5t-19 55.5q1 32 24.5 52t56.5 19q45 -3 77 -3q76 0 136.5 47t71.5 136l11 89 q-89 -34 -184 -34q-194 0 -311.5 129.5t-117.5 325.5zM241 385q0 -131 74 -215.5t203 -84.5q44 0 95.5 12.5t80.5 24.5l30 12l72 609q-90 46 -186 46q-175 0 -272 -112.5t-97 -291.5z" />
<glyph unicode="h" horiz-adv-x="1149" d="M98 19l151 1234q4 32 29 51.5t56 15.5t50.5 -28.5t15.5 -56.5l-46 -381q138 87 281 87q185 0 280 -118t71 -303l-67 -520q-4 -31 -29 -50.5t-57 -15.5q-31 4 -50 29t-15 56l66 521q15 117 -34 182.5t-165 65.5q-100 0 -184 -45t-124 -87l-78 -656q-4 -31 -28.5 -50.5 t-56.5 -15.5q-31 4 -50.5 28.5t-15.5 56.5z" />
<glyph unicode="i" horiz-adv-x="484" d="M96 19l102 837q4 32 29 51.5t56 15.5t50.5 -29t15.5 -56l-102 -837q-4 -32 -29 -51.5t-56 -15.5t-50.5 28.5t-15.5 56.5zM248 1395l42 44q27 28 65.5 28.5t66.5 -25.5q28 -27 29 -65.5t-27 -66.5l-42 -44q-27 -28 -65.5 -29t-66.5 26t-28.5 65.5t26.5 66.5z" />
<glyph unicode="j" horiz-adv-x="487" d="M-299 -362q1 31 24 52.5t55 20.5q84 -4 99 -4q84 0 137.5 48.5t64.5 134.5l119 967q4 31 28.5 50.5t56.5 15.5q31 -4 50.5 -29t15.5 -56l-119 -967q-17 -142 -114.5 -229t-238.5 -87q-15 0 -59 1.5t-46 1.5q-32 2 -53 25.5t-20 54.5zM243 1395l43 44q27 28 65.5 28.5 t66.5 -25.5q28 -27 28.5 -65.5t-26.5 -66.5l-43 -44q-27 -28 -64.5 -29t-66.5 26q-28 27 -29 66t26 66z" />
<glyph unicode="k" horiz-adv-x="1015" d="M97 19l151 1232q4 32 29 51.5t56 15.5t50.5 -29t15.5 -56l-94 -767l521 442q24 21 55.5 18.5t51.5 -26.5q21 -24 18.5 -55.5t-26.5 -52.5l-367 -312l294 -427q18 -26 12.5 -57t-31.5 -49t-57.5 -12.5t-49.5 31.5l-285 415l-163 -139l-30 -241q-4 -32 -29 -51.5t-56 -15.5 t-50.5 28.5t-15.5 56.5z" />
<glyph unicode="l" horiz-adv-x="504" d="M105 19l151 1233q4 31 29 50.5t56 15.5t50.5 -28.5t15.5 -56.5l-151 -1233q-4 -31 -28.5 -50.5t-56.5 -15.5q-31 4 -50.5 28.5t-15.5 56.5z" />
<glyph unicode="m" horiz-adv-x="1659" d="M97 21l102 838q4 30 25.5 47t47 18t48.5 -14.5t29 -44.5q110 76 223 76q183 0 279 -129q154 129 310 129q178 0 268 -112t68 -289l-68 -540q-4 -31 -28.5 -50.5t-56.5 -15.5q-31 4 -50.5 28.5t-15.5 56.5l68 540q14 109 -31 169t-154 60q-77 0 -147.5 -37t-106.5 -75 q8 -69 -1 -136l-68 -538q-4 -31 -29 -50.5t-56 -15.5q-32 4 -51.5 29t-15.5 56l69 538q14 107 -31.5 168t-151.5 61q-47 0 -108 -28t-98 -56l-38 -28l-80 -674q-4 -31 -28.5 -50.5t-56.5 -15.5q-31 4 -50.5 28.5t-15.5 56.5z" />
<glyph unicode="n" horiz-adv-x="1147" d="M97 21l102 838q4 31 29 50.5t56 15.5q28 -4 46.5 -24t20.5 -47q138 87 281 87q186 0 280.5 -117.5t70.5 -303.5l-66 -520q-4 -31 -29 -50.5t-56 -15.5t-50.5 28.5t-15.5 56.5l66 521q15 116 -34.5 182t-165.5 66q-67 0 -143 -30t-119 -60l-42 -30l-80 -666 q-4 -31 -28.5 -50.5t-56.5 -15.5q-31 4 -50.5 28.5t-15.5 56.5z" />
<glyph unicode="o" horiz-adv-x="1167" d="M86 390q0 146 62 270.5t180 201.5t267 77q194 0 320 -137.5t126 -332.5q0 -147 -62.5 -271.5t-180.5 -201.5t-267 -77q-193 0 -319 138t-126 333zM238 389q0 -132 81.5 -224.5t211.5 -92.5q160 0 258.5 117.5t98.5 279.5q0 132 -81 225t-212 93q-107 0 -189.5 -56.5 t-125 -146.5t-42.5 -195z" />
<glyph unicode="p" horiz-adv-x="1130" d="M51 -360l150 1220q4 34 31 52t59 12.5t49 -33.5q136 50 217 50q199 0 322.5 -132t123.5 -332q0 -155 -58.5 -280t-176 -201.5t-275.5 -76.5q-85 0 -247 54l-44 -351q-4 -32 -29 -51.5t-56 -15.5t-50.5 28.5t-15.5 56.5zM265 128q60 -22 126 -39.5t102 -17.5 q89 0 158.5 32t112 88.5t64.5 129.5t22 158q0 136 -79 223t-214 87q-43 0 -113.5 -19t-105.5 -35z" />
<glyph unicode="q" horiz-adv-x="1127" d="M87 381q0 115 34.5 216.5t98 178t161 121t216.5 44.5q87 0 252 -56q18 34 55.5 39.5t65.5 -19t23 -64.5l-152 -1220q-4 -31 -29 -50.5t-56 -15.5t-50.5 28.5t-15.5 56.5l39 322q-119 -43 -197 -43q-198 0 -321.5 131.5t-123.5 330.5zM239 380q0 -135 79.5 -222t213.5 -87 q40 0 107.5 17t111.5 36l75 607q-160 58 -229 58q-89 0 -158.5 -32t-112.5 -88.5t-65 -129.5t-22 -159z" />
<glyph unicode="r" horiz-adv-x="783" d="M96 19l103 838q5 39 36.5 56t65.5 5t46 -47q132 68 212 68q68 0 167 -37q29 -13 40.5 -43t-1.5 -58q-13 -29 -42.5 -40.5t-57.5 1.5q-55 24 -106 24q-38 0 -107.5 -23.5t-119.5 -54.5l-84 -708q-4 -31 -29 -50.5t-56 -15.5q-32 4 -51.5 29t-15.5 56z" />
<glyph unicode="s" horiz-adv-x="885" d="M59 44q8 30 35.5 45.5t58.5 7.5q37 -10 112.5 -18t121.5 -8q50 0 87 9.5t55.5 21t30 30.5t14 29.5t4.5 26.5q6 54 -8.5 76t-57.5 42l-237 107q-35 16 -61 34.5t-53 49.5t-38 80t-4 111q4 33 13.5 63t34 65.5t60 61.5t96.5 43.5t138 17.5q52 0 138 -9t133 -22 q31 -8 46.5 -35.5t7.5 -58.5q-8 -30 -35.5 -45.5t-58.5 -7.5q-34 9 -110 17.5t-121 8.5q-50 0 -87 -9.5t-55 -21t-29.5 -30.5t-14 -29.5t-4.5 -26.5q-7 -53 7.5 -75.5t58.5 -42.5l237 -107q27 -12 48 -25t45.5 -36.5t39 -51t21.5 -70t1 -92.5q-4 -33 -13.5 -63t-34 -65.5 t-60 -61.5t-96.5 -43.5t-138 -17.5q-51 0 -137.5 8.5t-137.5 22.5q-31 8 -46 35.5t-7 58.5z" />
<glyph unicode="t" horiz-adv-x="825" d="M92 847q0 31 22 53.5t54 22.5h131l32 260q4 31 29 50.5t56 15.5q32 -4 51.5 -29t15.5 -56l-30 -241h218q31 0 53.5 -22.5t22.5 -53.5t-22.5 -53.5t-53.5 -22.5h-237l-58 -466q-14 -115 20.5 -174.5t143.5 -59.5q37 0 83 19q29 13 58 1.5t42 -40.5q13 -28 1.5 -57.5 t-39.5 -42.5q-6 -4 -24 -10.5t-53.5 -14t-67.5 -7.5q-182 0 -260 110.5t-55 294.5l55 447h-112q-32 0 -54 22.5t-22 53.5z" />
<glyph unicode="u" horiz-adv-x="1146" d="M126 339l65 520q4 31 29 50.5t57 15.5q31 -4 50.5 -29t15.5 -56l-66 -521q-15 -117 34 -182.5t165 -65.5q67 0 143 27.5t119 55.5l42 27l80 676q4 31 29 50.5t56 15.5q32 -4 51.5 -29t15.5 -56l-103 -838q-4 -31 -29 -50.5t-56 -15.5q-27 4 -46 24t-21 47 q-138 -87 -281 -87q-186 0 -279.5 117.5t-70.5 303.5z" />
<glyph unicode="v" horiz-adv-x="982" d="M88 826q-9 30 6 57.5t45 37.5q30 9 57.5 -5.5t37.5 -45.5l205 -666l377 681q15 28 45.5 36.5t57.5 -6.5q28 -16 37 -46t-7 -58l-463 -838q-16 -28 -46 -36t-57.5 6t-36.5 44z" />
<glyph unicode="w" horiz-adv-x="1499" d="M99 837q-7 29 9 54.5t45 31.5q15 4 29 1t25.5 -10.5t20 -19.5t11.5 -26l142 -651l330 646q15 28 43.5 36t55 -6t34.5 -44l168 -633l309 667q13 27 40.5 37t54.5 -2q27 -13 37.5 -41t-2.5 -55l-392 -847q-14 -29 -43 -37.5t-56.5 5.5t-35.5 44l-171 643l-335 -657 q-15 -28 -44.5 -36t-56.5 7t-33 46z" />
<glyph unicode="x" horiz-adv-x="1001" d="M32 62l355 383l-236 361q-17 27 -10.5 58t33.5 48q26 17 57 10.5t48 -32.5l215 -330l314 340q22 23 53.5 24.5t54.5 -20.5t24.5 -53.5t-20.5 -54.5l-340 -367l246 -377q17 -26 10.5 -57.5t-33.5 -48.5q-26 -17 -57 -10.5t-48 33.5l-225 344l-329 -355q-21 -23 -53 -24.5 t-55 20.5q-23 21 -24 53t20 55z" />
<glyph unicode="y" horiz-adv-x="986" d="M-88 -363q-1 31 20 54t53 25q112 4 187 50.5t126 145.5l40 77l-242 835q-9 31 6 58.5t46 36.5q30 8 57.5 -7t36.5 -45l199 -685l374 702q15 28 45 37t58 -6t37.5 -45t-5.5 -58l-518 -971q-73 -137 -180.5 -205t-260.5 -73q-32 -1 -55 20.5t-24 53.5z" />
<glyph unicode="z" horiz-adv-x="954" d="M43 59l601 714h-444q-32 0 -54.5 22t-22.5 53t22.5 53.5t54.5 22.5h608q45 0 67.5 -42.5t-8.5 -82.5l-602 -714h458q32 0 54 -22t22 -53q0 -32 -22.5 -54t-53.5 -22h-622q-48 0 -68.5 44t10.5 81z" />
<glyph unicode="{" horiz-adv-x="689" d="M102 458q-29 22 -28 59t32 56l267 175l-74 327q-14 63 11 129.5t73.5 116t114 81t128.5 31.5q30 0 51 -21t21 -50q0 -30 -21 -51t-51 -21q-60 0 -129 -62t-56 -122l84 -375q11 -47 -30 -75l-225 -148l180 -140q20 -16 26 -39.5t-5 -45.5l-181 -401q-23 -51 23.5 -110.5 t100.5 -59.5q30 0 52 -21t22 -51q0 -29 -22 -50t-52 -21q-52 0 -102 23t-86 61t-61 86.5t-26 100t19 101.5l158 349z" />
<glyph unicode="|" horiz-adv-x="491" d="M53 -364l197 1615q4 31 29 50.5t56 15.5q32 -4 51.5 -29t15.5 -56l-198 -1614q-4 -32 -29 -51.5t-56 -15.5t-50.5 29t-15.5 56z" />
<glyph unicode="}" horiz-adv-x="678" d="M-27 -360q0 30 21 51t51 21q35 0 82 26t79.5 70.5t23.5 87.5l-85 375q-5 22 3.5 42.5t27.5 33.5l224 147l-179 140q-19 16 -25.5 39.5t3.5 45.5l182 401q24 52 -26 111t-99 59q-30 0 -51.5 21t-21.5 51q0 29 21.5 50t51.5 21q65 0 126.5 -36t102.5 -98 q38 -58 45.5 -120.5t-17.5 -117.5l-158 -349l214 -167q29 -22 28 -59t-32 -57l-267 -175l74 -327q24 -109 -63 -218q-51 -64 -123 -102t-141 -38q-30 0 -51 21t-21 50z" />
<glyph unicode="~" horiz-adv-x="1192" d="M100 422q11 15 30 37t55.5 59t84.5 67.5t94 40.5q23 5 45 5.5t42 -4.5t37.5 -11.5t35.5 -18.5t31 -21.5t30 -26t26 -25.5t24 -26q46 -51 73 -70t53 -13q39 9 89 54t85 91q19 25 50 30t56 -14t30 -50.5t-14 -56.5q-10 -13 -20 -25.5t-39.5 -44t-58 -55t-68.5 -47 t-77 -31.5q-23 -8 -48 -5.5t-44 5.5t-41 14t-37.5 21.5t-35 27.5t-33.5 31t-32 34q-48 52 -74 70.5t-52 12.5q-40 -9 -90.5 -54.5t-83.5 -90.5q-19 -25 -50.5 -30t-56.5 14t-30 50t14 56z" />
<glyph unicode="&#xa1;" horiz-adv-x="499" d="M55 -373l88 724q4 31 29 50.5t56 15.5q32 -4 51.5 -29t15.5 -56l-89 -723q-4 -32 -29 -51.5t-56 -15.5t-50.5 29t-15.5 56zM185 858l51 53q27 28 65.5 28.5t66.5 -26.5q28 -26 28 -64.5t-26 -66.5l-51 -54q-26 -28 -65 -28.5t-67 26.5t-28.5 65.5t26.5 66.5z" />
<glyph unicode="&#xa2;" horiz-adv-x="944" d="M89 397q0 182 103.5 315.5t281.5 165.5l34 269q4 32 29 51.5t56 15.5t50.5 -29t15.5 -56l-30 -243q124 -8 164 -18q31 -5 50 -30t15 -56q-5 -32 -30.5 -51t-56.5 -14l-7 1q-7 1 -19 2.5t-27 3.5t-33.5 4t-36.5 3.5t-37 2.5t-34 1q-154 0 -244.5 -93.5t-90.5 -246.5 q0 -122 72 -198.5t194 -76.5q38 0 78 7t62 15l21 7q29 12 58.5 0t41.5 -42q12 -29 -0.5 -58t-42.5 -41q-7 -3 -30.5 -11t-76 -18.5t-102.5 -11.5l-28 -219q-4 -32 -29 -51.5t-56 -15.5t-50.5 29t-15.5 56l28 224q-131 43 -204 153.5t-73 253.5z" />
<glyph unicode="&#xa3;" horiz-adv-x="1095" d="M66 10q0 32 22 54t54 22h115l41 344h-142q-32 0 -54 22.5t-22 54.5q0 31 22 53.5t54 22.5h160l39 324q17 136 123.5 227t248.5 91q39 0 82 -3t65 -6t26 -4q31 -4 50 -29.5t14 -56.5q-4 -31 -29.5 -50.5t-56.5 -14.5l-4 1q-5 0 -13 1t-18.5 2t-24.5 2.5t-28 2.5t-30.5 1.5 t-32.5 0.5q-85 0 -148.5 -52.5t-72.5 -130.5l-36 -306h258q32 0 54 -22.5t22 -53.5q0 -32 -22 -54.5t-54 -22.5h-277l-41 -344h470q32 0 54 -22t22 -54t-22 -54t-54 -22h-738q-32 0 -54 22t-22 54z" />
<glyph unicode="&#xa4;" horiz-adv-x="1204" d="M83 303q1 28 21.5 47.5t49.5 18.5l637 -19q28 -1 47 -21.5t18 -48.5q-1 -29 -21 -48.5t-49 -18.5l-391 12l-20 -145q-6 -43 17.5 -76t63.5 -51t81 -27t78 -9q111 0 261 50q27 10 52.5 -3.5t35.5 -40.5q9 -26 -3.5 -51t-39.5 -35l-7 -3q-8 -2 -18.5 -5t-26 -7.5t-33 -9 t-38.5 -9t-43.5 -8.5t-45 -7t-47.5 -5t-47 -2q-68 0 -136.5 19.5t-127 56.5t-91 98t-22.5 136q12 89 18 138l-106 3q-29 1 -48.5 21.5t-18.5 49.5zM124 634q-1 28 18.5 48.5t48.5 21.5l125 4l19 166q33 293 385 293q32 0 69 -1.5t70.5 -4.5t66.5 -6t61 -6.5t48.5 -6 t34.5 -4.5l14 -2q28 -5 44.5 -27.5t12.5 -50.5q-5 -29 -27.5 -45t-50.5 -12l-22 3q-22 3 -58.5 7.5t-79 8.5t-92.5 7t-91 3q-69 0 -116 -11.5t-74 -35.5t-40 -53.5t-18 -72.5l-18 -146l372 10q29 1 49.5 -19t21.5 -48t-18.5 -48.5t-48.5 -21.5l-635 -16q-29 -1 -49.5 18 t-21.5 48z" />
<glyph unicode="&#xa5;" horiz-adv-x="1195" d="M123 73q0 29 20 49t49 20h654q29 0 49 -20t20 -49q0 -28 -20.5 -48t-48.5 -20h-260l-17 -134q-4 -30 -27 -48.5t-53 -14.5q-32 4 -48.5 25t-13.5 50q11 95 14 122h-249q-28 0 -48.5 20t-20.5 48zM162 396q0 28 20.5 48t48.5 20h266l11 83l-315 428q-18 24 -13.5 53 t28.5 47q24 17 53.5 13t47.5 -28l283 -386l427 396q22 20 51.5 19t49.5 -23t19 -51.5t-23 -49.5l-465 -432l-9 -69h243q29 0 49 -20t20 -48q0 -29 -20 -49t-49 -20h-654q-29 0 -49 20.5t-20 48.5z" />
<glyph unicode="&#xa6;" horiz-adv-x="504" d="M71 -265l58 478q4 32 29 51.5t56 15.5q32 -4 51.5 -29t15.5 -56l-59 -478q-4 -32 -29 -51.5t-56 -15.5t-50.5 28.5t-15.5 56.5zM185 671l59 478q4 32 29 51.5t56 15.5t50.5 -28.5t15.5 -56.5l-58 -478q-4 -31 -29 -51t-56 -16q-32 4 -51.5 29t-15.5 56z" />
<glyph unicode="&#xa7;" horiz-adv-x="1095" d="M78 -244q7 29 32.5 45.5t54.5 9.5q116 -27 225 -27q121 0 217 55l-353 529q-53 80 -92 192.5t-38 211.5q4 233 160.5 381t389.5 148q121 0 259 -32q29 -7 45 -32.5t9 -55.5q-7 -29 -32.5 -45t-54.5 -9q-122 28 -227 28q-120 0 -216 -55l353 -529q53 -79 91.5 -192 t37.5 -212q-3 -232 -160 -380.5t-390 -148.5q-117 0 -256 31q-29 7 -45.5 32t-9.5 55zM270 770q-1 -73 31 -165t74 -156l342 -513q75 100 76 233q1 73 -31 165t-74 156l-341 513q-76 -99 -77 -233z" />
<glyph unicode="&#xa8;" horiz-adv-x="838" d="M284 1328l43 44q27 27 65 28t66 -26t29 -66t-26 -66l-43 -44q-27 -28 -65.5 -28.5t-66.5 26.5t-28.5 65.5t26.5 66.5zM698 1328l42 44q27 28 65.5 28.5t66.5 -26.5t28.5 -65.5t-26.5 -66.5l-42 -44q-27 -28 -65.5 -28.5t-66.5 26.5t-28.5 65.5t26.5 66.5z" />
<glyph unicode="&#xa9;" horiz-adv-x="1661" d="M110 452q0 152 58 288.5t156.5 235t235.5 156t289 57.5q180 0 336 -94.5t247.5 -252t91.5 -336.5q0 -152 -58 -288.5t-156.5 -235t-235.5 -156t-289 -57.5q-180 0 -336 94.5t-247.5 252t-91.5 336.5zM247 452q0 -142 73 -268t198 -202t267 -76q164 0 302.5 79.5t219 218 t80.5 302.5q0 142 -73 268t-198 202t-267 76q-124 0 -235.5 -47t-191.5 -127t-127.5 -191.5t-47.5 -234.5zM492 444q0 158 93.5 265.5t250.5 107.5q74 0 163 -31q26 -9 38.5 -34.5t3.5 -51.5q-10 -27 -35 -39.5t-51 -3.5q-72 23 -119 23q-100 0 -153.5 -68t-53.5 -169 q0 -78 48 -128t127 -50q29 0 84 21q30 12 56 1.5t36 -41.5q20 -61 -54 -92q-58 -24 -122 -24q-136 0 -224 89t-88 225z" />
<glyph unicode="&#xaa;" horiz-adv-x="827" d="M144 871q0 101 37.5 183t114 131.5t179.5 49.5q73 0 157 -44q8 17 25 26t36 7q27 -4 41.5 -23t11.5 -45l-64 -523q-3 -27 -24 -42t-46 -11t-40 25q-70 -35 -137 -35q-129 0 -210 86t-81 215zM266 872q0 -51 19.5 -91.5t58.5 -64.5t91 -24q26 0 60 12.5t55 25.5l21 12 l42 328q-86 43 -138 43q-103 0 -156 -68t-53 -173z" />
<glyph unicode="&#xab;" horiz-adv-x="1307" d="M104 374q-25 24 -22.5 59t28.5 55l406 320q26 19 56.5 15.5t50.5 -28.5t16.5 -56.5t-28.5 -50.5l-338 -266l265 -258q23 -22 23.5 -54t-21.5 -54q-23 -23 -54 -23t-54 22zM672 374q-25 24 -22.5 59t28.5 55l407 320q25 19 56 15.5t50.5 -28.5t16 -56t-28.5 -51l-338 -266 l266 -258q22 -22 22.5 -54t-21.5 -54.5t-53.5 -22.5t-54.5 22z" />
<glyph unicode="&#xac;" horiz-adv-x="1090" d="M122 429q0 31 22 53.5t54 22.5h630q34 0 57 -25.5t19 -59.5l-42 -343q-4 -31 -29 -50.5t-56 -15.5q-32 4 -51.5 29t-15.5 56l32 257h-544q-32 0 -54 22.5t-22 53.5z" />
<glyph unicode="&#xad;" horiz-adv-x="907" d="M126 429q0 31 22 53.5t54 22.5h463q32 0 54.5 -22.5t22.5 -53.5q0 -32 -22.5 -54.5t-54.5 -22.5h-463q-32 0 -54 22.5t-22 54.5z" />
<glyph unicode="&#xae;" horiz-adv-x="1405" d="M146 644q0 121 46.5 230.5t125.5 188t188.5 124.5t231.5 46q144 0 269 -75.5t198 -201.5t73 -269q0 -122 -46.5 -231t-125.5 -188t-188.5 -125t-231.5 -46q-108 0 -208 45t-172.5 119t-116 175t-43.5 208zM254 644q0 -174 129 -306.5t303 -132.5q201 0 342.5 140.5 t141.5 341.5q0 113 -59 214.5t-159 163t-214 61.5q-132 0 -243.5 -64t-176 -175t-64.5 -243zM491 449l54 448q2 20 18.5 34t37.5 14h143q77 0 136 -55.5t59 -130.5q0 -60 -31 -112.5t-87 -78.5l57 -98q11 -19 5.5 -40.5t-24.5 -33.5q-19 -11 -41 -5t-33 25l-79 137h-94 l-15 -116q-4 -32 -32.5 -42.5t-53 6t-20.5 48.5zM616 652h125q45 0 71.5 31.5t26.5 75.5q0 34 -31 60.5t-64 26.5h-104z" />
<glyph unicode="&#xaf;" horiz-adv-x="762" d="M294 1223q0 30 21 50.5t50 20.5h335q29 0 50 -20.5t21 -50.5q0 -29 -21 -50t-50 -21h-335q-29 0 -50 21t-21 50z" />
<glyph unicode="&#xb0;" horiz-adv-x="902" d="M164 1118q0 153 108.5 260t261.5 107q136 0 234 -99t98 -232q0 -153 -109 -260t-262 -107q-136 0 -233.5 98.5t-97.5 232.5zM301 1118q0 -77 58 -135t136 -58q97 0 165 66t68 163q0 76 -58 134.5t-136 58.5q-97 0 -165 -66.5t-68 -162.5z" />
<glyph unicode="&#xb1;" horiz-adv-x="1078" d="M72 -87q0 31 22 53.5t54 22.5h623q32 0 54.5 -22.5t22.5 -53.5q0 -32 -22.5 -54.5t-54.5 -22.5h-623q-32 0 -54 22.5t-22 54.5zM117 605q0 31 22.5 53.5t53.5 22.5h284l38 311q4 31 29 50.5t56 15.5q32 -4 51.5 -29t15.5 -56l-36 -292h265q32 0 54.5 -22.5t22.5 -53.5 t-22.5 -53.5t-54.5 -22.5h-284l-36 -298q-4 -31 -29 -50.5t-56 -15.5q-32 4 -51.5 29t-15.5 56l35 279h-266q-31 0 -53.5 22.5t-22.5 53.5z" />
<glyph unicode="&#xb4;" horiz-adv-x="637" d="M547 1153q-21 24 -19 55.5t26 52.5l224 196q23 20 54.5 18t52.5 -26q20 -23 18.5 -54.5t-25.5 -52.5l-224 -196q-23 -20 -54.5 -18t-52.5 25z" />
<glyph unicode="&#xb5;" horiz-adv-x="1162" d="M62 -360l148 1217q4 32 29 51.5t57 15.5q31 -4 50.5 -28.5t15.5 -56.5l-74 -608q-5 -42 11.5 -73t44 -47t68.5 -25.5t73 -12t71 -2.5q84 0 155 36t109 78l83 672q4 32 29 51t56 15t51 -28.5t16 -55.5l-103 -838q-4 -31 -29 -51t-56 -16q-23 3 -40 18t-24 36 q-116 -69 -247 -69q-194 0 -298 67l-45 -364q-4 -32 -29 -51.5t-56 -15.5t-50.5 29t-15.5 56z" />
<glyph unicode="&#xb6;" horiz-adv-x="1124" d="M84 646q24 197 154.5 303t330.5 105l334 -1q34 0 57 -26t19 -59l-135 -1099q-16 -130 -120.5 -221.5t-237.5 -91.5q-50 0 -111 16.5t-87 27.5q-29 10 -42.5 39t-2.5 58q11 30 39.5 43.5t58.5 2.5q92 -34 145 -34q76 0 137 53t70 125l39 318l-221 -20q-92 -8 -177 28.5 t-143 101.5t-88 153t-19 178z" />
<glyph unicode="&#xb7;" horiz-adv-x="497" d="M137 470l52 53q27 27 65 28t66 -26q28 -26 28.5 -64.5t-25.5 -66.5l-52 -54q-27 -28 -65.5 -28.5t-66.5 26.5t-28.5 65.5t26.5 66.5z" />
<glyph unicode="&#xb8;" horiz-adv-x="549" d="M106 -395q0 30 21 51t50 21q100 0 133 57q23 40 16 97.5t-40 119.5q-14 26 -5.5 54.5t34.5 42.5t54.5 5.5t42.5 -34.5q52 -97 57.5 -192t-36.5 -165q-76 -128 -256 -128q-29 0 -50 21t-21 50z" />
<glyph unicode="&#xba;" horiz-adv-x="843" d="M141 876q0 148 95 253t243 105q130 0 213.5 -90.5t83.5 -218.5q0 -148 -95 -252t-243 -104q-129 0 -213 90t-84 217zM263 877q0 -78 48 -132t127 -54q95 0 155.5 69t60.5 165q0 77 -48.5 132t-126.5 55q-96 0 -156 -69t-60 -166z" />
<glyph unicode="&#xbb;" horiz-adv-x="1307" d="M76 62q-19 25 -15.5 56t28.5 51l338 266l-266 258q-22 22 -22.5 54t21.5 54q22 23 53.5 23t54.5 -22l328 -319q24 -24 22.5 -58.5t-28.5 -55.5l-407 -320q-25 -19 -56 -15.5t-51 28.5zM644 62q-19 25 -15.5 56t28.5 51l338 266l-266 258q-22 22 -22.5 54t21.5 54.5 t53.5 22.5t54.5 -22l328 -319q25 -24 22.5 -59t-28.5 -55l-407 -320q-25 -19 -56 -15.5t-51 28.5z" />
<glyph unicode="&#xbf;" horiz-adv-x="910" d="M19 -83q6 47 19.5 86.5t30.5 69t46 55.5t53 43.5t65 36.5t69.5 30.5t77.5 29.5l11 83q5 32 29.5 51t55.5 15t50.5 -28.5t15.5 -55.5l-14 -116q-7 -59 -49 -75q-47 -18 -55 -20q-58 -21 -89 -34t-65.5 -32.5t-51.5 -39.5t-30 -49.5t-18 -68.5q-13 -107 62 -163.5 t188 -56.5q62 0 112 8t69.5 15t19.5 9q28 15 58 6.5t45 -35.5q16 -28 7.5 -58.5t-36.5 -46.5q-14 -8 -35.5 -16.5t-90 -21.5t-149.5 -13q-87 0 -164.5 27t-134 76t-85 124t-17.5 165zM432 857l52 54q26 28 64.5 28.5t66.5 -26.5t29 -66t-26 -66l-52 -53q-27 -28 -65.5 -28.5 t-66.5 26.5q-28 26 -28.5 64.5t26.5 66.5z" />
<glyph unicode="&#xc0;" horiz-adv-x="1221" d="M-8 37l633 1233q20 39 64 39q24 0 43 -14.5t26 -37.5l346 -1233q7 -26 -2 -47.5t-28 -31t-40.5 -10.5t-40.5 12.5t-26 38.5l-86 303h-598l-163 -316q-13 -26 -42.5 -35.5t-54.5 4.5q-26 14 -35 41.5t4 53.5zM356 433h484l-171 610zM549 1733q-21 23 -20 55t24 53 q23 22 55 20.5t53 -24.5l181 -196q22 -23 20.5 -54.5t-24.5 -52.5q-23 -22 -54.5 -20.5t-53.5 24.5z" />
<glyph unicode="&#xc1;" horiz-adv-x="1221" d="M-8 37l633 1233q20 39 64 39q24 0 43 -14.5t26 -37.5l346 -1233q7 -26 -2 -47.5t-28 -31t-40.5 -10.5t-40.5 12.5t-26 38.5l-86 303h-598l-163 -316q-13 -26 -42.5 -35.5t-54.5 4.5q-26 14 -35 41.5t4 53.5zM356 433h484l-171 610zM629 1539q-21 24 -19 55.5t26 52.5 l224 196q23 20 54.5 18t52.5 -26q20 -23 18.5 -54.5t-25.5 -52.5l-224 -196q-23 -20 -54.5 -18t-52.5 25z" />
<glyph unicode="&#xc2;" horiz-adv-x="1221" d="M-8 37l633 1233q20 39 64 39q24 0 43 -14.5t26 -37.5l346 -1233q7 -26 -2 -47.5t-28 -31t-40.5 -10.5t-40.5 12.5t-26 38.5l-86 303h-598l-163 -316q-13 -26 -42.5 -35.5t-54.5 4.5q-26 14 -35 41.5t4 53.5zM356 433h484l-171 610zM478 1544q-20 23 -18 53.5t25 50.5 l228 202q22 19 51.5 17.5t49.5 -23.5l184 -202q20 -22 19 -52.5t-23 -50.5q-22 -21 -52.5 -19.5t-50.5 23.5l-136 149l-175 -155q-22 -20 -52.5 -17.5t-49.5 24.5z" />
<glyph unicode="&#xc3;" horiz-adv-x="1221" d="M-8 37l633 1233q20 39 64 39q24 0 43 -14.5t26 -37.5l346 -1233q7 -26 -2 -47.5t-28 -31t-40.5 -10.5t-40.5 12.5t-26 38.5l-86 303h-598l-163 -316q-13 -26 -42.5 -35.5t-54.5 4.5q-26 14 -35 41.5t4 53.5zM356 433h484l-171 610zM407 1656q11 14 25 30t41 41.5 t61.5 45.5t68.5 26q58 11 101.5 -14.5t90.5 -77.5q46 -51 62 -49q21 4 53 32t54 57q18 24 47 28t53 -14q23 -17 27.5 -46.5t-13.5 -52.5q-11 -14 -25 -30t-41.5 -42t-61.5 -46t-68 -26q-57 -11 -100 14t-92 79q-44 51 -61 48q-22 -4 -54 -32t-54 -57q-17 -24 -46.5 -28 t-53.5 14q-23 17 -27 46.5t13 53.5z" />
<glyph unicode="&#xc4;" horiz-adv-x="1221" d="M-8 37l633 1233q20 39 64 39q24 0 43 -14.5t26 -37.5l346 -1233q7 -26 -2 -47.5t-28 -31t-40.5 -10.5t-40.5 12.5t-26 38.5l-86 303h-598l-163 -316q-13 -26 -42.5 -35.5t-54.5 4.5q-26 14 -35 41.5t4 53.5zM356 433h484l-171 610zM459 1714l43 44q27 27 65 28t66 -26 t29 -66t-26 -66l-43 -44q-27 -28 -65.5 -28.5t-66.5 26.5t-28.5 65.5t26.5 66.5zM873 1714l42 44q27 28 65.5 28.5t66.5 -26.5t28.5 -65.5t-26.5 -66.5l-42 -44q-27 -28 -65.5 -28.5t-66.5 26.5t-28.5 65.5t26.5 66.5z" />
<glyph unicode="&#xc5;" horiz-adv-x="1221" d="M-8 37l633 1233q20 39 64 39q24 0 43 -14.5t26 -37.5l346 -1233q7 -26 -2 -47.5t-28 -31t-40.5 -10.5t-40.5 12.5t-26 38.5l-86 303h-598l-163 -316q-13 -26 -42.5 -35.5t-54.5 4.5q-26 14 -35 41.5t4 53.5zM356 433h484l-171 610zM550 1706q0 93 66.5 161t159.5 68 q82 0 138.5 -58.5t56.5 -140.5q0 -94 -66.5 -162t-159.5 -68q-54 0 -99 27t-70.5 73t-25.5 100zM655 1706q0 -39 26 -66.5t64 -27.5q48 0 84 37.5t36 86.5q0 38 -25.5 65.5t-63.5 27.5q-32 0 -60 -17.5t-44.5 -45.5t-16.5 -60z" />
<glyph unicode="&#xc6;" horiz-adv-x="1745" d="M-27 50l766 1224q23 36 65 36h861q32 0 54 -22.5t22 -54.5q0 -31 -22.5 -53.5t-53.5 -22.5h-580l-56 -463h474q32 0 54.5 -22t22.5 -54t-22.5 -54t-54.5 -22h-493l-56 -456h545q31 0 53.5 -22t22.5 -54t-22.5 -54.5t-53.5 -22.5h-631q-34 0 -57 26t-19 60l39 319h-498 l-231 -368q-17 -27 -48 -34.5t-57 9.5q-27 17 -34 47.5t10 57.5zM428 490h422l82 667h-86z" />
<glyph unicode="&#xc7;" horiz-adv-x="1192" d="M118 541q0 163 46 304.5t132.5 249t222.5 169.5t305 62q91 0 185 -19t132 -33q29 -12 41.5 -41t1.5 -58q-12 -29 -41 -41.5t-58 -1.5q-26 11 -107 26.5t-154 15.5q-110 0 -202 -32.5t-156.5 -90t-109 -137.5t-65.5 -173.5t-21 -198.5q0 -213 126 -341.5t339 -128.5 q117 0 210 33q29 11 58 -2.5t39 -43.5q11 -29 -2.5 -58.5t-43.5 -39.5q-112 -40 -253 -42q43 -146 -21 -256q-76 -128 -256 -128q-29 0 -50 21t-21 50q0 30 21 51t50 21q100 0 133 57q45 75 -15 199q-214 46 -340 209t-126 398z" />
<glyph unicode="&#xc8;" horiz-adv-x="1075" d="M123 19l150 1224q4 29 25.5 48t49.5 19h647q32 0 54 -22.5t22 -54.5q0 -31 -22.5 -53.5t-53.5 -22.5h-579l-57 -460h475q32 0 54 -22.5t22 -53.5t-22 -53.5t-54 -22.5h-493l-57 -459h545q32 0 54.5 -22.5t22.5 -53.5q0 -32 -23 -54.5t-54 -22.5h-631q-34 0 -56.5 26 t-18.5 60zM470 1733q-21 23 -20 55t24 53q23 22 55 20.5t53 -24.5l181 -196q22 -23 20.5 -54.5t-24.5 -52.5q-23 -22 -54.5 -20.5t-53.5 24.5z" />
<glyph unicode="&#xc9;" horiz-adv-x="1075" d="M123 19l150 1224q4 29 25.5 48t49.5 19h647q32 0 54 -22.5t22 -54.5q0 -31 -22.5 -53.5t-53.5 -22.5h-579l-57 -460h475q32 0 54 -22.5t22 -53.5t-22 -53.5t-54 -22.5h-493l-57 -459h545q32 0 54.5 -22.5t22.5 -53.5q0 -32 -23 -54.5t-54 -22.5h-631q-34 0 -56.5 26 t-18.5 60zM621 1539q-21 24 -19 55.5t26 52.5l224 196q23 20 54.5 18t52.5 -26q20 -23 18.5 -54.5t-25.5 -52.5l-224 -196q-23 -20 -54.5 -18t-52.5 25z" />
<glyph unicode="&#xca;" horiz-adv-x="1075" d="M123 19l150 1224q4 29 25.5 48t49.5 19h647q32 0 54 -22.5t22 -54.5q0 -31 -22.5 -53.5t-53.5 -22.5h-579l-57 -460h475q32 0 54 -22.5t22 -53.5t-22 -53.5t-54 -22.5h-493l-57 -459h545q32 0 54.5 -22.5t22.5 -53.5q0 -32 -23 -54.5t-54 -22.5h-631q-34 0 -56.5 26 t-18.5 60zM451 1544q-20 23 -18 53.5t25 50.5l228 202q22 19 51.5 17.5t49.5 -23.5l184 -202q20 -22 19 -52.5t-23 -50.5q-22 -21 -52.5 -19.5t-50.5 23.5l-136 149l-175 -155q-22 -20 -52.5 -17.5t-49.5 24.5z" />
<glyph unicode="&#xcb;" horiz-adv-x="1075" d="M123 19l150 1224q4 29 25.5 48t49.5 19h647q32 0 54 -22.5t22 -54.5q0 -31 -22.5 -53.5t-53.5 -22.5h-579l-57 -460h475q32 0 54 -22.5t22 -53.5t-22 -53.5t-54 -22.5h-493l-57 -459h545q32 0 54.5 -22.5t22.5 -53.5q0 -32 -23 -54.5t-54 -22.5h-631q-34 0 -56.5 26 t-18.5 60zM438 1714l43 44q27 27 65 28t66 -26t29 -66t-26 -66l-43 -44q-27 -28 -65.5 -28.5t-66.5 26.5t-28.5 65.5t26.5 66.5zM852 1714l42 44q27 28 65.5 28.5t66.5 -26.5t28.5 -65.5t-26.5 -66.5l-42 -44q-27 -28 -65.5 -28.5t-66.5 26.5t-28.5 65.5t26.5 66.5z" />
<glyph unicode="&#xcc;" horiz-adv-x="538" d="M123 19l150 1224q4 31 28.5 50.5t56.5 15.5q31 -4 50.5 -29t15.5 -56l-150 -1224q-4 -31 -28.5 -50.5t-56.5 -15.5q-31 4 -50.5 28.5t-15.5 56.5zM204 1733q-21 23 -20 55t24 53q23 22 55 20.5t53 -24.5l181 -196q22 -23 20.5 -54.5t-24.5 -52.5q-23 -22 -54.5 -20.5 t-53.5 24.5z" />
<glyph unicode="&#xcd;" horiz-adv-x="538" d="M123 19l150 1224q4 31 28.5 50.5t56.5 15.5q31 -4 50.5 -29t15.5 -56l-150 -1224q-4 -31 -28.5 -50.5t-56.5 -15.5q-31 4 -50.5 28.5t-15.5 56.5zM283 1539q-21 24 -19 55.5t26 52.5l224 196q23 20 54.5 18t52.5 -26q20 -23 18.5 -54.5t-25.5 -52.5l-224 -196 q-23 -20 -54.5 -18t-52.5 25z" />
<glyph unicode="&#xce;" horiz-adv-x="538" d="M123 19l150 1224q4 31 28.5 50.5t56.5 15.5q31 -4 50.5 -29t15.5 -56l-150 -1224q-4 -31 -28.5 -50.5t-56.5 -15.5q-31 4 -50.5 28.5t-15.5 56.5zM134 1544q-20 23 -18 53.5t25 50.5l228 202q22 19 51.5 17.5t49.5 -23.5l184 -202q20 -22 19 -52.5t-23 -50.5 q-22 -21 -52.5 -19.5t-50.5 23.5l-136 149l-175 -155q-22 -20 -52.5 -17.5t-49.5 24.5z" />
<glyph unicode="&#xcf;" horiz-adv-x="538" d="M113 1714l43 44q27 27 65 28t66 -26t29 -66t-26 -66l-43 -44q-27 -28 -65.5 -28.5t-66.5 26.5t-28.5 65.5t26.5 66.5zM123 19l150 1224q4 31 28.5 50.5t56.5 15.5q31 -4 50.5 -29t15.5 -56l-150 -1224q-4 -31 -28.5 -50.5t-56.5 -15.5q-31 4 -50.5 28.5t-15.5 56.5z M527 1714l42 44q27 28 65.5 28.5t66.5 -26.5t28.5 -65.5t-26.5 -66.5l-42 -44q-27 -28 -65.5 -28.5t-66.5 26.5t-28.5 65.5t26.5 66.5z" />
<glyph unicode="&#xd0;" horiz-adv-x="1388" d="M27 633q0 31 22.5 53.5t53.5 22.5h120l65 534q4 29 25.5 48t49.5 19h246q188 0 338.5 -69t241.5 -208.5t91 -327.5q0 -162 -52 -303.5t-146.5 -245t-233.5 -163t-305 -59.5h-330q-31 0 -53.5 22.5t-22.5 53.5q0 2 0.5 5t0.5 4l66 537h-101q-32 0 -54 22.5t-22 54.5z M299 86h244q135 0 246 47.5t184.5 131t114 196.5t40.5 245q0 110 -40.5 197.5t-112 142t-164.5 83t-201 28.5h-179l-55 -448h194q32 0 54.5 -22.5t22.5 -53.5q0 -32 -22.5 -54.5t-54.5 -22.5h-213z" />
<glyph unicode="&#xd1;" horiz-adv-x="1420" d="M122 19l150 1224q4 33 31 52t59.5 13.5t50.5 -35.5l619 -1033l123 1003q4 31 28.5 50.5t55.5 15.5q32 -4 51.5 -29t15.5 -56l-150 -1223q-4 -33 -31 -52t-59.5 -13.5t-50.5 35.5l-619 1033l-123 -1003q-4 -32 -29 -51t-56 -15t-50.5 28.5t-15.5 55.5zM533 1656 q11 14 25 30t41 41.5t61.5 45.5t68.5 26q58 11 101.5 -14.5t90.5 -77.5q46 -51 62 -49q15 3 36 18.5t39.5 34t31.5 36.5q18 24 47 28t53 -14q23 -17 27.5 -46.5t-13.5 -52.5q-11 -14 -25 -30t-41.5 -42t-61.5 -46t-68 -26q-17 -5 -34.5 -3t-31 4t-28.5 10t-26.5 15 t-24.5 19.5t-23.5 23t-23.5 24.5q-44 51 -61 48q-15 -3 -36.5 -18.5t-40 -34t-31.5 -36.5q-17 -24 -46.5 -28t-53.5 14q-23 17 -27 46.5t13 53.5z" />
<glyph unicode="&#xd2;" d="M117 566q0 150 48 287t134.5 242t217 167.5t285.5 62.5q131 0 243.5 -50.5t189.5 -136t120.5 -201t43.5 -243.5q0 -118 -30.5 -231.5t-90 -211.5t-141.5 -172.5t-191.5 -117t-233.5 -42.5q-131 0 -244 53t-189 142t-119 206.5t-43 245.5zM270 566q0 -97 31 -186 t86.5 -157.5t140 -109.5t184.5 -41q121 0 223.5 54t169.5 142.5t104 199t37 226.5q0 131 -53.5 239.5t-156 174t-234.5 65.5q-122 0 -224 -51t-168.5 -136.5t-103 -194t-36.5 -225.5zM700 1733q-21 23 -20 55t24 53q23 22 55 20.5t53 -24.5l181 -196q22 -23 20.5 -54.5 t-24.5 -52.5q-23 -22 -54.5 -20.5t-53.5 24.5z" />
<glyph unicode="&#xd3;" d="M117 566q0 150 48 287t134.5 242t217 167.5t285.5 62.5q131 0 243.5 -50.5t189.5 -136t120.5 -201t43.5 -243.5q0 -118 -30.5 -231.5t-90 -211.5t-141.5 -172.5t-191.5 -117t-233.5 -42.5q-131 0 -244 53t-189 142t-119 206.5t-43 245.5zM270 566q0 -97 31 -186 t86.5 -157.5t140 -109.5t184.5 -41q121 0 223.5 54t169.5 142.5t104 199t37 226.5q0 131 -53.5 239.5t-156 174t-234.5 65.5q-122 0 -224 -51t-168.5 -136.5t-103 -194t-36.5 -225.5zM772 1539q-21 24 -19 55.5t26 52.5l224 196q23 20 54.5 18t52.5 -26q20 -23 18.5 -54.5 t-25.5 -52.5l-224 -196q-23 -20 -54.5 -18t-52.5 25z" />
<glyph unicode="&#xd4;" d="M117 566q0 150 48 287t134.5 242t217 167.5t285.5 62.5q131 0 243.5 -50.5t189.5 -136t120.5 -201t43.5 -243.5q0 -118 -30.5 -231.5t-90 -211.5t-141.5 -172.5t-191.5 -117t-233.5 -42.5q-131 0 -244 53t-189 142t-119 206.5t-43 245.5zM270 566q0 -97 31 -186 t86.5 -157.5t140 -109.5t184.5 -41q121 0 223.5 54t169.5 142.5t104 199t37 226.5q0 131 -53.5 239.5t-156 174t-234.5 65.5q-122 0 -224 -51t-168.5 -136.5t-103 -194t-36.5 -225.5zM588 1544q-20 23 -18 53.5t25 50.5l228 202q22 19 51.5 17.5t49.5 -23.5l184 -202 q20 -22 19 -52.5t-23 -50.5q-22 -21 -52.5 -19.5t-50.5 23.5l-136 149l-175 -155q-22 -20 -52.5 -17.5t-49.5 24.5z" />
<glyph unicode="&#xd5;" d="M117 566q0 150 48 287t134.5 242t217 167.5t285.5 62.5q131 0 243.5 -50.5t189.5 -136t120.5 -201t43.5 -243.5q0 -118 -30.5 -231.5t-90 -211.5t-141.5 -172.5t-191.5 -117t-233.5 -42.5q-131 0 -244 53t-189 142t-119 206.5t-43 245.5zM270 566q0 -97 31 -186 t86.5 -157.5t140 -109.5t184.5 -41q121 0 223.5 54t169.5 142.5t104 199t37 226.5q0 131 -53.5 239.5t-156 174t-234.5 65.5q-122 0 -224 -51t-168.5 -136.5t-103 -194t-36.5 -225.5zM557 1656q16 21 37 44t68 57t91 42q58 11 101.5 -14.5t90.5 -77.5q46 -51 62 -49 q21 4 53 32t54 57q18 24 47 28t53 -14q23 -17 27.5 -46.5t-13.5 -52.5q-96 -125 -196 -144q-57 -11 -100 14t-92 79q-44 51 -61 48q-22 -4 -54 -32t-54 -57q-17 -24 -46.5 -28t-53.5 14q-23 17 -27 46.5t13 53.5z" />
<glyph unicode="&#xd6;" d="M117 566q0 150 48 287t134.5 242t217 167.5t285.5 62.5q131 0 243.5 -50.5t189.5 -136t120.5 -201t43.5 -243.5q0 -118 -30.5 -231.5t-90 -211.5t-141.5 -172.5t-191.5 -117t-233.5 -42.5q-131 0 -244 53t-189 142t-119 206.5t-43 245.5zM270 566q0 -97 31 -186 t86.5 -157.5t140 -109.5t184.5 -41q121 0 223.5 54t169.5 142.5t104 199t37 226.5q0 131 -53.5 239.5t-156 174t-234.5 65.5q-122 0 -224 -51t-168.5 -136.5t-103 -194t-36.5 -225.5zM575 1714l43 44q27 27 65 28t66 -26t29 -66t-26 -66l-43 -44q-27 -28 -65.5 -28.5 t-66.5 26.5t-28.5 65.5t26.5 66.5zM989 1714l42 44q27 28 65.5 28.5t66.5 -26.5t28.5 -65.5t-26.5 -66.5l-42 -44q-27 -28 -65.5 -28.5t-66.5 26.5t-28.5 65.5t26.5 66.5z" />
<glyph unicode="&#xd7;" horiz-adv-x="1019" d="M106 63q-22 23 -21 54.5t24 53.5l277 264l-207 258q-20 25 -17 56.5t28 51.5t56.5 16.5t50.5 -28.5l200 -248l268 255q23 22 54.5 21.5t53.5 -23.5t21.5 -54.5t-23.5 -53.5l-278 -264l208 -259q20 -24 16.5 -55.5t-28.5 -51.5t-56.5 -16.5t-50.5 28.5l-200 248l-268 -256 q-23 -22 -54.5 -21t-53.5 24z" />
<glyph unicode="&#xd8;" d="M89 5l147 161q-119 171 -119 398q0 150 49.5 287.5t137.5 242.5t219.5 168t286.5 63q212 0 369 -129l134 147q21 23 53 24.5t55 -19.5q23 -22 24.5 -53.5t-19.5 -54.5l-144 -156q117 -168 117 -388q0 -118 -31.5 -232t-92.5 -212t-144 -172.5t-193.5 -117.5t-233.5 -43 q-208 0 -366 133l-136 -149q-22 -24 -53.5 -25.5t-54.5 20.5q-23 21 -24.5 52.5t19.5 54.5zM269 564q0 -96 30 -184.5t84.5 -157t138 -109.5t182.5 -41t186 35t151 95.5t111 139.5t70.5 170t23.5 184q0 131 -51.5 238.5t-152 173t-232.5 65.5q-164 0 -289.5 -87.5 t-188.5 -224.5t-63 -297z" />
<glyph unicode="&#xd9;" horiz-adv-x="1470" d="M174 580l83 663q4 31 28.5 50.5t56.5 15.5q31 -4 50.5 -28.5t15.5 -56.5l-83 -663q-16 -133 17.5 -242t124.5 -178t227 -69q384 0 440 466l84 705q4 31 29 50.5t56 15.5t50.5 -28.5t15.5 -56.5l-84 -704q-35 -290 -187.5 -445.5t-403.5 -155.5q-110 0 -202.5 35t-156 97 t-105 144.5t-55.5 181t-1 203.5zM675 1733q-21 23 -20 55t24 53q23 22 55 20.5t53 -24.5l181 -196q22 -23 20.5 -54.5t-24.5 -52.5q-23 -22 -54.5 -20.5t-53.5 24.5z" />
<glyph unicode="&#xda;" horiz-adv-x="1470" d="M174 580l83 663q4 31 28.5 50.5t56.5 15.5q31 -4 50.5 -28.5t15.5 -56.5l-83 -663q-16 -133 17.5 -242t124.5 -178t227 -69q384 0 440 466l84 705q4 31 29 50.5t56 15.5t50.5 -28.5t15.5 -56.5l-84 -704q-35 -290 -187.5 -445.5t-403.5 -155.5q-110 0 -202.5 35t-156 97 t-105 144.5t-55.5 181t-1 203.5zM749 1539q-21 24 -19 55.5t26 52.5l224 196q23 20 54.5 18t52.5 -26q20 -23 18.5 -54.5t-25.5 -52.5l-224 -196q-23 -20 -54.5 -18t-52.5 25z" />
<glyph unicode="&#xdb;" horiz-adv-x="1470" d="M174 580l83 663q4 31 28.5 50.5t56.5 15.5q31 -4 50.5 -28.5t15.5 -56.5l-83 -663q-16 -133 17.5 -242t124.5 -178t227 -69q384 0 440 466l84 705q4 31 29 50.5t56 15.5t50.5 -28.5t15.5 -56.5l-84 -704q-35 -290 -187.5 -445.5t-403.5 -155.5q-110 0 -202.5 35t-156 97 t-105 144.5t-55.5 181t-1 203.5zM591 1544q-20 23 -18 53.5t25 50.5l228 202q22 19 51.5 17.5t49.5 -23.5l184 -202q20 -22 19 -52.5t-23 -50.5q-22 -21 -52.5 -19.5t-50.5 23.5l-136 149l-175 -155q-22 -20 -52.5 -17.5t-49.5 24.5z" />
<glyph unicode="&#xdc;" horiz-adv-x="1470" d="M174 580l83 663q4 31 28.5 50.5t56.5 15.5q31 -4 50.5 -28.5t15.5 -56.5l-83 -663q-16 -133 17.5 -242t124.5 -178t227 -69q384 0 440 466l84 705q4 31 29 50.5t56 15.5t50.5 -28.5t15.5 -56.5l-84 -704q-35 -290 -187.5 -445.5t-403.5 -155.5q-110 0 -202.5 35t-156 97 t-105 144.5t-55.5 181t-1 203.5zM580 1714l43 44q27 27 65 28t66 -26t29 -66t-26 -66l-43 -44q-27 -28 -65.5 -28.5t-66.5 26.5t-28.5 65.5t26.5 66.5zM994 1714l42 44q27 28 65.5 28.5t66.5 -26.5t28.5 -65.5t-26.5 -66.5l-42 -44q-27 -28 -65.5 -28.5t-66.5 26.5 t-28.5 65.5t26.5 66.5z" />
<glyph unicode="&#xdd;" horiz-adv-x="1145" d="M130 1197q-15 28 -6 58t37 46q28 15 58 6t45 -37l313 -576l474 587q20 25 51.5 28.5t56.5 -16.5q24 -19 27.5 -51t-16.5 -56l-533 -660l-64 -525q-4 -31 -29 -50.5t-56 -15.5q-32 5 -51.5 29.5t-15.5 55.5l64 522zM633 1539q-21 24 -19 55.5t26 52.5l224 196 q23 20 54.5 18t52.5 -26q20 -23 18.5 -54.5t-25.5 -52.5l-224 -196q-23 -20 -54.5 -18t-52.5 25z" />
<glyph unicode="&#xde;" horiz-adv-x="1155" d="M123 19l150 1224q4 32 29 51t56 15t50.5 -28.5t15.5 -55.5l-22 -180h293q157 0 275 -116t118 -272q0 -185 -126 -313t-312 -128h-350l-26 -215q-4 -32 -29 -51.5t-56 -15.5t-50.5 29t-15.5 56zM319 369h331q122 0 204 82t82 204q0 93 -73.5 165t-167.5 72l-312 1z" />
<glyph unicode="&#xdf;" horiz-adv-x="1210" d="M51 -359l147 1187q13 105 46.5 190t78 140t99.5 92t109.5 52.5t109.5 15.5q120 0 217 -61.5t146.5 -165.5t35.5 -223q-4 -29 -25.5 -48t-49.5 -19q-40 0 -76.5 -5.5t-77.5 -19.5t-68 -45t-33 -75q-8 -65 19.5 -93.5t118.5 -64.5q55 -21 86 -37.5t75.5 -52t61.5 -91 t8 -129.5q-15 -123 -112 -196t-244 -73q-88 0 -179 34q-29 13 -40.5 42.5t1.5 58.5t42.5 40t58.5 -2q50 -20 117 -20q21 0 42 2t50 10.5t51 22t40 39.5t22 60q8 62 -19 89t-116 61q-55 22 -86.5 38.5t-77 53.5t-63 94t-8.5 133q14 116 101 187.5t230 86.5q-13 97 -82 156.5 t-167 59.5q-102 0 -185 -86.5t-106 -268.5l-147 -1187q-4 -31 -29 -51t-56 -16t-50.5 29t-15.5 56z" />
<glyph unicode="&#xe0;" horiz-adv-x="1097" d="M87 380q0 155 62 281.5t183 203t279 76.5q114 0 219 -42q18 19 43 23t46 -5.5t34 -30.5t10 -47l-103 -839q-4 -34 -32 -52.5t-60.5 -12t-48.5 35.5q-98 -52 -202 -52q-129 0 -228 62.5t-150.5 166.5t-51.5 232zM240 380q0 -133 73.5 -221t203.5 -88q54 0 125 27t85 46 l71 602q-83 43 -187 43q-174 0 -272.5 -116.5t-98.5 -292.5zM409 1347q-21 23 -20 55t24 53q23 22 55 20.5t53 -24.5l181 -196q22 -23 20.5 -54.5t-24.5 -52.5q-23 -22 -54.5 -20.5t-53.5 24.5z" />
<glyph unicode="&#xe1;" horiz-adv-x="1097" d="M87 380q0 155 62 281.5t183 203t279 76.5q114 0 219 -42q18 19 43 23t46 -5.5t34 -30.5t10 -47l-103 -839q-4 -34 -32 -52.5t-60.5 -12t-48.5 35.5q-98 -52 -202 -52q-129 0 -228 62.5t-150.5 166.5t-51.5 232zM240 380q0 -133 73.5 -221t203.5 -88q54 0 125 27t85 46 l71 602q-83 43 -187 43q-174 0 -272.5 -116.5t-98.5 -292.5zM559 1153q-21 24 -19 55.5t26 52.5l224 196q23 20 54.5 18t52.5 -26q20 -23 18.5 -54.5t-25.5 -52.5l-224 -196q-23 -20 -54.5 -18t-52.5 25z" />
<glyph unicode="&#xe2;" horiz-adv-x="1097" d="M87 380q0 155 62 281.5t183 203t279 76.5q114 0 219 -42q18 19 43 23t46 -5.5t34 -30.5t10 -47l-103 -839q-4 -34 -32 -52.5t-60.5 -12t-48.5 35.5q-98 -52 -202 -52q-129 0 -228 62.5t-150.5 166.5t-51.5 232zM240 380q0 -133 73.5 -221t203.5 -88q54 0 125 27t85 46 l71 602q-83 43 -187 43q-174 0 -272.5 -116.5t-98.5 -292.5zM346 1158q-20 23 -18 53.5t25 50.5l228 202q22 19 51.5 17.5t49.5 -23.5l184 -202q20 -22 19 -52.5t-23 -50.5q-22 -21 -52.5 -19.5t-50.5 23.5l-136 149l-175 -155q-22 -20 -52.5 -17.5t-49.5 24.5z" />
<glyph unicode="&#xe3;" horiz-adv-x="1097" d="M87 380q0 155 62 281.5t183 203t279 76.5q114 0 219 -42q18 19 43 23t46 -5.5t34 -30.5t10 -47l-103 -839q-4 -34 -32 -52.5t-60.5 -12t-48.5 35.5q-98 -52 -202 -52q-129 0 -228 62.5t-150.5 166.5t-51.5 232zM240 380q0 -133 73.5 -221t203.5 -88q54 0 125 27t85 46 l71 602q-83 43 -187 43q-174 0 -272.5 -116.5t-98.5 -292.5zM272 1270q16 21 37 44t68 57t91 42q58 11 101.5 -14.5t90.5 -77.5q46 -51 62 -49q21 4 53 32t54 57q18 24 47 28t53 -14q23 -17 27.5 -46.5t-13.5 -52.5q-96 -125 -196 -144q-57 -11 -100 14t-92 79 q-44 51 -61 48q-22 -4 -54 -32t-54 -57q-17 -24 -46.5 -28t-53.5 14q-23 17 -27 46.5t13 53.5z" />
<glyph unicode="&#xe4;" horiz-adv-x="1097" d="M87 380q0 155 62 281.5t183 203t279 76.5q114 0 219 -42q18 19 43 23t46 -5.5t34 -30.5t10 -47l-103 -839q-4 -34 -32 -52.5t-60.5 -12t-48.5 35.5q-98 -52 -202 -52q-129 0 -228 62.5t-150.5 166.5t-51.5 232zM240 380q0 -133 73.5 -221t203.5 -88q54 0 125 27t85 46 l71 602q-83 43 -187 43q-174 0 -272.5 -116.5t-98.5 -292.5zM308 1328l43 44q27 27 65 28t66 -26t29 -66t-26 -66l-43 -44q-27 -28 -65.5 -28.5t-66.5 26.5t-28.5 65.5t26.5 66.5zM722 1328l42 44q27 28 65.5 28.5t66.5 -26.5t28.5 -65.5t-26.5 -66.5l-42 -44 q-27 -28 -65.5 -28.5t-66.5 26.5t-28.5 65.5t26.5 66.5z" />
<glyph unicode="&#xe5;" horiz-adv-x="1097" d="M87 380q0 155 62 281.5t183 203t279 76.5q114 0 219 -42q18 19 43 23t46 -5.5t34 -30.5t10 -47l-103 -839q-4 -34 -32 -52.5t-60.5 -12t-48.5 35.5q-98 -52 -202 -52q-129 0 -228 62.5t-150.5 166.5t-51.5 232zM240 380q0 -133 73.5 -221t203.5 -88q54 0 125 27t85 46 l71 602q-83 43 -187 43q-174 0 -272.5 -116.5t-98.5 -292.5zM380 1320q0 93 66.5 161t159.5 68q82 0 138.5 -58.5t56.5 -140.5q0 -94 -66.5 -162t-159.5 -68q-82 0 -138.5 58.5t-56.5 141.5zM485 1320q0 -39 26 -66.5t64 -27.5q48 0 84 37.5t36 86.5q0 38 -25.5 65.5 t-63.5 27.5q-49 0 -85 -37t-36 -86z" />
<glyph unicode="&#xe6;" horiz-adv-x="1724" d="M87 367q0 118 35.5 222t100.5 182.5t165 124t222 45.5q118 0 210 -48q20 27 51.5 30.5t56.5 -16t29 -50.5q117 84 275 84q186 0 292 -113.5t106 -300.5q0 -31 -2 -51.5t-8.5 -43t-22 -34.5t-39.5 -13l-665 -41q7 -127 87.5 -204t208.5 -77q102 0 166 32q26 13 54.5 3.5 t41.5 -35.5t4 -54t-35 -42q-96 -48 -230 -48q-203 0 -329 138l-7 -57q-6 -49 -54.5 -62.5t-79.5 23.5q-99 -42 -205 -42q-195 0 -311.5 126t-116.5 322zM240 367q0 -133 72 -214.5t203 -81.5q48 0 98.5 12.5t76.5 25.5l26 12l74 621q-7 5 -20.5 13t-60 21t-99.5 13 q-91 0 -162.5 -33.5t-116 -92t-68 -134t-23.5 -162.5zM905 489l581 36q-1 128 -64.5 200t-189.5 72q-54 0 -99.5 -13t-77.5 -33.5t-57.5 -49t-41 -56t-27 -59.5t-16.5 -53.5t-8 -43.5z" />
<glyph unicode="&#xe7;" horiz-adv-x="948" d="M87 387q0 115 36.5 216t102 176t164 118.5t216.5 43.5q106 0 231 -39q30 -10 45 -37.5t6 -57.5q-9 -31 -37 -45.5t-58 -5.5q-110 33 -187 33q-87 0 -157 -31.5t-115.5 -86.5t-69.5 -128t-24 -158q0 -135 84 -224.5t219 -89.5q62 0 155 21q31 7 57.5 -9t34.5 -47 q25 -113 -227 -117q44 -149 -21 -257q-76 -128 -256 -128q-29 0 -50 21t-21 50q0 30 21 51t50 21q100 0 133 57q45 78 -18 206q-143 44 -228.5 166t-85.5 281z" />
<glyph unicode="&#xe8;" horiz-adv-x="1051" d="M93 427l10 80q25 197 150.5 314.5t311.5 117.5q183 0 287 -113t104 -297q0 -32 -2 -52.5t-8.5 -43.5t-22 -35t-39.5 -13l-651 -41q6 -127 85.5 -204t203.5 -77q20 0 39.5 1.5t34.5 4.5t29 6t24 6.5t17.5 6.5t11.5 4l4 2q26 14 54.5 5.5t42.5 -35.5q14 -26 5 -55t-35 -42 q-96 -48 -227 -48q-141 0 -246 70t-152.5 186t-30.5 252zM246 489l566 36q0 127 -62 199t-185 72q-72 0 -129.5 -24.5t-90 -59t-55.5 -80.5t-31.5 -78.5t-12.5 -64.5zM406 1347q-21 23 -20 55t24 53q23 22 55 20.5t53 -24.5l181 -196q22 -23 20.5 -54.5t-24.5 -52.5 q-23 -22 -54.5 -20.5t-53.5 24.5z" />
<glyph unicode="&#xe9;" horiz-adv-x="1051" d="M93 427l10 80q25 197 150.5 314.5t311.5 117.5q183 0 287 -113t104 -297q0 -32 -2 -52.5t-8.5 -43.5t-22 -35t-39.5 -13l-651 -41q6 -127 85.5 -204t203.5 -77q20 0 39.5 1.5t34.5 4.5t29 6t24 6.5t17.5 6.5t11.5 4l4 2q26 14 54.5 5.5t42.5 -35.5q14 -26 5 -55t-35 -42 q-96 -48 -227 -48q-141 0 -246 70t-152.5 186t-30.5 252zM246 489l566 36q0 127 -62 199t-185 72q-72 0 -129.5 -24.5t-90 -59t-55.5 -80.5t-31.5 -78.5t-12.5 -64.5zM545 1153q-21 24 -19 55.5t26 52.5l224 196q23 20 54.5 18t52.5 -26q20 -23 18.5 -54.5t-25.5 -52.5 l-224 -196q-23 -20 -54.5 -18t-52.5 25z" />
<glyph unicode="&#xea;" horiz-adv-x="1051" d="M93 427l10 80q25 197 150.5 314.5t311.5 117.5q183 0 287 -113t104 -297q0 -32 -2 -52.5t-8.5 -43.5t-22 -35t-39.5 -13l-651 -41q6 -127 85.5 -204t203.5 -77q20 0 39.5 1.5t34.5 4.5t29 6t24 6.5t17.5 6.5t11.5 4l4 2q26 14 54.5 5.5t42.5 -35.5q14 -26 5 -55t-35 -42 q-96 -48 -227 -48q-141 0 -246 70t-152.5 186t-30.5 252zM246 489l566 36q0 127 -62 199t-185 72q-72 0 -129.5 -24.5t-90 -59t-55.5 -80.5t-31.5 -78.5t-12.5 -64.5zM364 1158q-20 23 -18 53.5t25 50.5l228 202q22 19 51.5 17.5t49.5 -23.5l184 -202q20 -22 19 -52.5 t-23 -50.5q-22 -21 -52.5 -19.5t-50.5 23.5l-136 149l-175 -155q-22 -20 -52.5 -17.5t-49.5 24.5z" />
<glyph unicode="&#xeb;" horiz-adv-x="1051" d="M93 427l10 80q25 197 150.5 314.5t311.5 117.5q183 0 287 -113t104 -297q0 -32 -2 -52.5t-8.5 -43.5t-22 -35t-39.5 -13l-651 -41q6 -127 85.5 -204t203.5 -77q20 0 39.5 1.5t34.5 4.5t29 6t24 6.5t17.5 6.5t11.5 4l4 2q26 14 54.5 5.5t42.5 -35.5q14 -26 5 -55t-35 -42 q-96 -48 -227 -48q-141 0 -246 70t-152.5 186t-30.5 252zM246 489l566 36q0 127 -62 199t-185 72q-72 0 -129.5 -24.5t-90 -59t-55.5 -80.5t-31.5 -78.5t-12.5 -64.5zM339 1328l43 44q27 27 65 28t66 -26t29 -66t-26 -66l-43 -44q-27 -28 -65.5 -28.5t-66.5 26.5t-28.5 65.5 t26.5 66.5zM753 1328l42 44q27 28 65.5 28.5t66.5 -26.5t28.5 -65.5t-26.5 -66.5l-42 -44q-27 -28 -65.5 -28.5t-66.5 26.5t-28.5 65.5t26.5 66.5z" />
<glyph unicode="&#xec;" horiz-adv-x="484" d="M96 19l102 837q4 32 29 51.5t56 15.5t50.5 -29t15.5 -56l-102 -837q-4 -32 -29 -51.5t-56 -15.5t-50.5 28.5t-15.5 56.5zM136 1347q-21 23 -20 55t24 53q23 22 55 20.5t53 -24.5l181 -196q22 -23 20.5 -54.5t-24.5 -52.5q-23 -22 -54.5 -20.5t-53.5 24.5z" />
<glyph unicode="&#xed;" horiz-adv-x="484" d="M96 19l102 837q4 32 29 51.5t56 15.5t50.5 -29t15.5 -56l-102 -837q-4 -32 -29 -51.5t-56 -15.5t-50.5 28.5t-15.5 56.5zM205 1153q-21 24 -19 55.5t26 52.5l224 196q23 20 54.5 18t52.5 -26q20 -23 18.5 -54.5t-25.5 -52.5l-224 -196q-23 -20 -54.5 -18t-52.5 25z" />
<glyph unicode="&#xee;" horiz-adv-x="484" d="M61 1158q-20 23 -18 53.5t25 50.5l228 202q22 19 51.5 17.5t49.5 -23.5l184 -202q20 -22 19 -52.5t-23 -50.5q-22 -21 -52.5 -19.5t-50.5 23.5l-136 149l-175 -155q-22 -20 -52.5 -17.5t-49.5 24.5zM96 19l102 837q4 32 29 51.5t56 15.5t50.5 -29t15.5 -56l-102 -837 q-4 -32 -29 -51.5t-56 -15.5t-50.5 28.5t-15.5 56.5z" />
<glyph unicode="&#xef;" horiz-adv-x="484" d="M55 1328l43 44q27 27 65 28t66 -26t29 -66t-26 -66l-43 -44q-27 -28 -65.5 -28.5t-66.5 26.5t-28.5 65.5t26.5 66.5zM96 19l102 837q4 32 29 51.5t56 15.5t50.5 -29t15.5 -56l-102 -837q-4 -32 -29 -51.5t-56 -15.5t-50.5 28.5t-15.5 56.5zM469 1328l42 44 q27 28 65.5 28.5t66.5 -26.5t28.5 -65.5t-26.5 -66.5l-42 -44q-27 -28 -65.5 -28.5t-66.5 26.5t-28.5 65.5t26.5 66.5z" />
<glyph unicode="&#xf0;" horiz-adv-x="1043" d="M71 320q0 191 132 316t326 125q68 0 164 -32q-44 135 -102 263l-21 47l-191 -59q-26 -8 -51.5 4.5t-33.5 39.5q-9 28 4 53t41 34l171 53q-17 34 -25 48q-14 25 -6 54.5t33 43.5q26 15 56 7.5t43 -34.5l36 -76l229 71q26 8 51.5 -4.5t33.5 -39.5q9 -27 -4 -52t-41 -34 l-209 -66q78 -160 138 -352t60 -342q0 -204 -119.5 -336.5t-323.5 -132.5q-111 0 -201 55t-140 146.5t-50 199.5zM214 321q0 -107 70 -183t178 -76q144 0 221.5 91t77.5 235q0 67 -19 162q-128 68 -213 68q-133 0 -224 -82.5t-91 -214.5z" />
<glyph unicode="&#xf1;" horiz-adv-x="1147" d="M97 21l102 838q4 31 29 50.5t56 15.5q28 -4 46.5 -24t20.5 -47q138 87 281 87q186 0 280.5 -117.5t70.5 -303.5l-66 -520q-4 -31 -29 -50.5t-56 -15.5t-50.5 28.5t-15.5 56.5l66 521q15 116 -34.5 182t-165.5 66q-67 0 -143 -30t-119 -60l-42 -30l-80 -666 q-4 -31 -28.5 -50.5t-56.5 -15.5q-31 4 -50.5 28.5t-15.5 56.5zM345 1270q16 21 37 44t68 57t91 42q58 11 101.5 -14.5t90.5 -77.5q46 -51 62 -49q21 4 53 32t54 57q18 24 47 28t53 -14q23 -17 27.5 -46.5t-13.5 -52.5q-96 -125 -196 -144q-57 -11 -100 14t-92 79 q-44 51 -61 48q-22 -4 -54 -32t-54 -57q-17 -24 -46.5 -28t-53.5 14q-23 17 -27 46.5t13 53.5z" />
<glyph unicode="&#xf2;" horiz-adv-x="1167" d="M86 390q0 146 62 270.5t180 201.5t267 77q194 0 320 -137.5t126 -332.5q0 -147 -62.5 -271.5t-180.5 -201.5t-267 -77q-193 0 -319 138t-126 333zM238 389q0 -132 81.5 -224.5t211.5 -92.5q160 0 258.5 117.5t98.5 279.5q0 132 -81 225t-212 93q-107 0 -189.5 -56.5 t-125 -146.5t-42.5 -195zM482 1347q-21 23 -20 55t24 53q23 22 55 20.5t53 -24.5l181 -196q22 -23 20.5 -54.5t-24.5 -52.5q-23 -22 -54.5 -20.5t-53.5 24.5z" />
<glyph unicode="&#xf3;" horiz-adv-x="1167" d="M86 390q0 146 62 270.5t180 201.5t267 77q194 0 320 -137.5t126 -332.5q0 -147 -62.5 -271.5t-180.5 -201.5t-267 -77q-193 0 -319 138t-126 333zM238 389q0 -132 81.5 -224.5t211.5 -92.5q160 0 258.5 117.5t98.5 279.5q0 132 -81 225t-212 93q-107 0 -189.5 -56.5 t-125 -146.5t-42.5 -195zM561 1153q-21 24 -19 55.5t26 52.5l224 196q23 20 54.5 18t52.5 -26q20 -23 18.5 -54.5t-25.5 -52.5l-224 -196q-23 -20 -54.5 -18t-52.5 25z" />
<glyph unicode="&#xf4;" horiz-adv-x="1167" d="M86 390q0 146 62 270.5t180 201.5t267 77q194 0 320 -137.5t126 -332.5q0 -147 -62.5 -271.5t-180.5 -201.5t-267 -77q-193 0 -319 138t-126 333zM238 389q0 -132 81.5 -224.5t211.5 -92.5q160 0 258.5 117.5t98.5 279.5q0 132 -81 225t-212 93q-107 0 -189.5 -56.5 t-125 -146.5t-42.5 -195zM368 1158q-20 23 -18 53.5t25 50.5l228 202q22 19 51.5 17.5t49.5 -23.5l184 -202q20 -22 19 -52.5t-23 -50.5q-22 -21 -52.5 -19.5t-50.5 23.5l-136 149l-175 -155q-22 -20 -52.5 -17.5t-49.5 24.5z" />
<glyph unicode="&#xf5;" horiz-adv-x="1167" d="M86 390q0 146 62 270.5t180 201.5t267 77q194 0 320 -137.5t126 -332.5q0 -147 -62.5 -271.5t-180.5 -201.5t-267 -77q-193 0 -319 138t-126 333zM238 389q0 -132 81.5 -224.5t211.5 -92.5q160 0 258.5 117.5t98.5 279.5q0 132 -81 225t-212 93q-107 0 -189.5 -56.5 t-125 -146.5t-42.5 -195zM326 1270q16 21 37 44t68 57t91 42q58 11 101.5 -14.5t90.5 -77.5q46 -51 62 -49q21 4 53 32t54 57q18 24 47 28t53 -14q23 -17 27.5 -46.5t-13.5 -52.5q-96 -125 -196 -144q-57 -11 -100 14t-92 79q-44 51 -61 48q-22 -4 -54 -32t-54 -57 q-17 -24 -46.5 -28t-53.5 14q-23 17 -27 46.5t13 53.5z" />
<glyph unicode="&#xf6;" horiz-adv-x="1167" d="M86 390q0 146 62 270.5t180 201.5t267 77q194 0 320 -137.5t126 -332.5q0 -147 -62.5 -271.5t-180.5 -201.5t-267 -77q-193 0 -319 138t-126 333zM238 389q0 -132 81.5 -224.5t211.5 -92.5q160 0 258.5 117.5t98.5 279.5q0 132 -81 225t-212 93q-107 0 -189.5 -56.5 t-125 -146.5t-42.5 -195zM365 1328l43 44q27 27 65 28t66 -26t29 -66t-26 -66l-43 -44q-27 -28 -65.5 -28.5t-66.5 26.5t-28.5 65.5t26.5 66.5zM779 1328l42 44q27 28 65.5 28.5t66.5 -26.5t28.5 -65.5t-26.5 -66.5l-42 -44q-27 -28 -65.5 -28.5t-66.5 26.5t-28.5 65.5 t26.5 66.5z" />
<glyph unicode="&#xf7;" horiz-adv-x="1278" d="M110 434q0 32 22 54t54 22h868q32 0 54 -22t22 -54t-22 -54t-54 -22h-868q-32 0 -54 22t-22 54zM472 60l53 53q28 28 66 28t65 -27q28 -27 28 -65.5t-27 -66.5l-52 -53q-27 -27 -65.5 -27.5t-66.5 26.5q-27 27 -27.5 65.5t26.5 66.5zM583 885l52 53q27 28 65.5 28 t66.5 -27q27 -27 27 -65t-26 -66l-52 -54q-26 -28 -65 -28t-67 27t-28 65.5t27 66.5z" />
<glyph unicode="&#xf8;" horiz-adv-x="1184" d="M53 -17l120 128q-85 124 -85 280q0 148 64 273t183.5 200.5t269.5 75.5q147 0 262 -83l115 123q22 23 53.5 24.5t54.5 -20.5t24.5 -53.5t-20.5 -54.5l-120 -128q85 -124 85 -280q0 -147 -64.5 -272t-184 -201t-268.5 -76q-148 0 -262 83l-115 -123q-22 -23 -53.5 -24 t-54.5 20q-23 22 -24.5 53.5t20.5 54.5zM240 390q0 -133 85 -225.5t217 -92.5q108 0 192.5 56t128 146t43.5 197q0 132 -84.5 224t-216.5 92q-163 0 -264 -116t-101 -281z" />
<glyph unicode="&#xf9;" horiz-adv-x="1146" d="M126 339l65 520q4 31 29 50.5t57 15.5q31 -4 50.5 -29t15.5 -56l-66 -521q-15 -117 34 -182.5t165 -65.5q67 0 143 27.5t119 55.5l42 27l80 676q4 31 29 50.5t56 15.5q32 -4 51.5 -29t15.5 -56l-103 -838q-4 -31 -29 -50.5t-56 -15.5q-27 4 -46 24t-21 47 q-138 -87 -281 -87q-186 0 -279.5 117.5t-70.5 303.5zM445 1347q-21 23 -20 55t24 53q23 22 55 20.5t53 -24.5l181 -196q22 -23 20.5 -54.5t-24.5 -52.5q-23 -22 -54.5 -20.5t-53.5 24.5z" />
<glyph unicode="&#xfa;" horiz-adv-x="1146" d="M126 339l65 520q4 31 29 50.5t57 15.5q31 -4 50.5 -29t15.5 -56l-66 -521q-15 -117 34 -182.5t165 -65.5q67 0 143 27.5t119 55.5l42 27l80 676q4 31 29 50.5t56 15.5q32 -4 51.5 -29t15.5 -56l-103 -838q-4 -31 -29 -50.5t-56 -15.5q-27 4 -46 24t-21 47 q-138 -87 -281 -87q-186 0 -279.5 117.5t-70.5 303.5zM586 1153q-21 24 -19 55.5t26 52.5l224 196q23 20 54.5 18t52.5 -26q20 -23 18.5 -54.5t-25.5 -52.5l-224 -196q-23 -20 -54.5 -18t-52.5 25z" />
<glyph unicode="&#xfb;" horiz-adv-x="1146" d="M126 339l65 520q4 31 29 50.5t57 15.5q31 -4 50.5 -29t15.5 -56l-66 -521q-15 -117 34 -182.5t165 -65.5q67 0 143 27.5t119 55.5l42 27l80 676q4 31 29 50.5t56 15.5q32 -4 51.5 -29t15.5 -56l-103 -838q-4 -31 -29 -50.5t-56 -15.5q-27 4 -46 24t-21 47 q-138 -87 -281 -87q-186 0 -279.5 117.5t-70.5 303.5zM385 1158q-20 23 -18 53.5t25 50.5l228 202q22 19 51.5 17.5t49.5 -23.5l184 -202q20 -22 19 -52.5t-23 -50.5q-22 -21 -52.5 -19.5t-50.5 23.5l-136 149l-175 -155q-22 -20 -52.5 -17.5t-49.5 24.5z" />
<glyph unicode="&#xfc;" horiz-adv-x="1146" d="M126 339l65 520q4 31 29 50.5t57 15.5q31 -4 50.5 -29t15.5 -56l-66 -521q-15 -117 34 -182.5t165 -65.5q67 0 143 27.5t119 55.5l42 27l80 676q4 31 29 50.5t56 15.5q32 -4 51.5 -29t15.5 -56l-103 -838q-4 -31 -29 -50.5t-56 -15.5q-27 4 -46 24t-21 47 q-138 -87 -281 -87q-186 0 -279.5 117.5t-70.5 303.5zM372 1328l43 44q27 27 65 28t66 -26t29 -66t-26 -66l-43 -44q-27 -28 -65.5 -28.5t-66.5 26.5t-28.5 65.5t26.5 66.5zM786 1328l42 44q27 28 65.5 28.5t66.5 -26.5t28.5 -65.5t-26.5 -66.5l-42 -44q-27 -28 -65.5 -28.5 t-66.5 26.5t-28.5 65.5t26.5 66.5z" />
<glyph unicode="&#xfd;" horiz-adv-x="986" d="M-88 -363q-1 31 20 54t53 25q112 4 187 50.5t126 145.5l40 77l-242 835q-9 31 6 58.5t46 36.5q30 8 57.5 -7t36.5 -45l199 -685l374 702q15 28 45 37t58 -6t37.5 -45t-5.5 -58l-518 -971q-73 -137 -180.5 -205t-260.5 -73q-32 -1 -55 20.5t-24 53.5zM511 1153 q-21 24 -19 55.5t26 52.5l224 196q23 20 54.5 18t52.5 -26q20 -23 18.5 -54.5t-25.5 -52.5l-224 -196q-23 -20 -54.5 -18t-52.5 25z" />
<glyph unicode="&#xfe;" horiz-adv-x="1131" d="M51 -373l199 1625q4 31 29 50.5t56 15.5t50.5 -28.5t15.5 -56.5l-41 -335q125 43 198 43q199 0 322.5 -132t123.5 -332q0 -155 -58.5 -280t-176 -201.5t-275.5 -76.5q-85 0 -247 54l-45 -364q-4 -32 -29 -51.5t-56 -15.5t-50.5 28.5t-15.5 56.5zM266 128q155 -57 228 -57 q89 0 158.5 32t112 88.5t64.5 129.5t22 158q0 136 -79 223t-214 87q-42 0 -109 -22t-110 -42z" />
<glyph unicode="&#xff;" horiz-adv-x="986" d="M-88 -363q-1 31 20 54t53 25q112 4 187 50.5t126 145.5l40 77l-242 835q-9 31 6 58.5t46 36.5q30 8 57.5 -7t36.5 -45l199 -685l374 702q15 28 45 37t58 -6t37.5 -45t-5.5 -58l-518 -971q-73 -137 -180.5 -205t-260.5 -73q-32 -1 -55 20.5t-24 53.5zM313 1328l43 44 q27 27 65 28t66 -26t29 -66t-26 -66l-43 -44q-27 -28 -65.5 -28.5t-66.5 26.5t-28.5 65.5t26.5 66.5zM727 1328l42 44q27 28 65.5 28.5t66.5 -26.5t28.5 -65.5t-26.5 -66.5l-42 -44q-27 -28 -65.5 -28.5t-66.5 26.5t-28.5 65.5t26.5 66.5z" />
<glyph unicode="&#x152;" horiz-adv-x="1956" d="M116 569q0 150 50.5 287.5t140 241t222 165.5t286.5 62q188 0 338 -83v1q3 29 24.5 48t50.5 19h647q32 0 54 -22.5t22 -54.5q0 -31 -22.5 -53.5t-53.5 -22.5h-579l-57 -463h475q32 0 54 -22t22 -54t-22 -54t-54 -22h-494l-56 -456h545q32 0 54.5 -22t22.5 -54 t-22.5 -54.5t-54.5 -22.5h-631q-26 0 -46.5 16t-26.5 42q-129 -72 -279 -72q-176 0 -317 90t-217 238t-76 322zM268 569q0 -133 56 -245.5t162 -182t240 -69.5q83 0 152.5 27t144.5 89l109 886q-58 45 -142.5 72t-174.5 27q-163 0 -290 -85.5t-192 -222t-65 -296.5z" />
<glyph unicode="&#x153;" horiz-adv-x="1843" d="M86 391q0 147 62 271.5t180 201.5t267 77q117 0 216 -56t159 -155q62 101 162 156t226 55q183 0 287 -113.5t104 -298.5q0 -25 -1 -42t-5 -37.5t-11.5 -33t-21.5 -21.5t-33 -10l-651 -41q6 -126 84 -203.5t204 -77.5q43 0 83 8t58 15t20 9q26 13 55 4t42 -36 q14 -26 5 -54.5t-36 -41.5q-12 -6 -33.5 -15t-77.5 -21t-115 -12q-121 0 -221 55.5t-157 158.5q-69 -101 -174 -156.5t-232 -55.5q-128 0 -231 64.5t-158.5 171.5t-55.5 234zM238 391q0 -132 81.5 -225t211.5 -93q107 0 190 56.5t125 146.5t42 195q0 132 -81.5 225 t-211.5 93q-107 0 -189.5 -56.5t-125 -146.5t-42.5 -195zM1039 489l566 36q-1 128 -61.5 200t-185.5 72q-72 0 -129.5 -24.5t-90 -59t-55.5 -80.5t-31.5 -78.5t-12.5 -65.5z" />
<glyph unicode="&#x178;" horiz-adv-x="1145" d="M130 1197q-15 28 -6 58t37 46q28 15 58 6t45 -37l313 -576l474 587q20 25 51.5 28.5t56.5 -16.5q24 -19 27.5 -51t-16.5 -56l-533 -660l-64 -525q-4 -31 -29 -50.5t-56 -15.5q-32 5 -51.5 29.5t-15.5 55.5l64 522zM413 1714l43 44q27 27 65 28t66 -26t29 -66t-26 -66 l-43 -44q-27 -28 -65.5 -28.5t-66.5 26.5t-28.5 65.5t26.5 66.5zM827 1714l42 44q27 28 65.5 28.5t66.5 -26.5t28.5 -65.5t-26.5 -66.5l-42 -44q-27 -28 -65.5 -28.5t-66.5 26.5t-28.5 65.5t26.5 66.5z" />
<glyph unicode="&#x2c6;" horiz-adv-x="932" d="M356 1158q-20 23 -18 53.5t25 50.5l228 202q22 19 51.5 17.5t49.5 -23.5l184 -202q20 -22 19 -52.5t-23 -50.5q-22 -21 -52.5 -19.5t-50.5 23.5l-136 149l-175 -155q-22 -20 -52.5 -17.5t-49.5 24.5z" />
<glyph unicode="&#x2dc;" horiz-adv-x="899" d="M114 1270q16 21 37 44t68 57t91 42q58 11 101.5 -14.5t90.5 -77.5q46 -51 62 -49q21 4 53 32t54 57q18 24 47 28t53 -14q23 -17 27.5 -46.5t-13.5 -52.5q-96 -125 -196 -144q-57 -11 -100 14t-92 79q-44 51 -61 48q-22 -4 -54 -32t-54 -57q-17 -24 -46.5 -28t-53.5 14 q-23 17 -27 46.5t13 53.5z" />
<glyph unicode="&#x2000;" horiz-adv-x="967" />
<glyph unicode="&#x2001;" horiz-adv-x="1935" />
<glyph unicode="&#x2002;" horiz-adv-x="967" />
<glyph unicode="&#x2003;" horiz-adv-x="1935" />
<glyph unicode="&#x2004;" horiz-adv-x="645" />
<glyph unicode="&#x2005;" horiz-adv-x="483" />
<glyph unicode="&#x2006;" horiz-adv-x="322" />
<glyph unicode="&#x2007;" horiz-adv-x="322" />
<glyph unicode="&#x2008;" horiz-adv-x="241" />
<glyph unicode="&#x2009;" horiz-adv-x="387" />
<glyph unicode="&#x200a;" horiz-adv-x="107" />
<glyph unicode="&#x2010;" horiz-adv-x="907" d="M126 429q0 31 22 53.5t54 22.5h463q32 0 54.5 -22.5t22.5 -53.5q0 -32 -22.5 -54.5t-54.5 -22.5h-463q-32 0 -54 22.5t-22 54.5z" />
<glyph unicode="&#x2011;" horiz-adv-x="907" d="M126 429q0 31 22 53.5t54 22.5h463q32 0 54.5 -22.5t22.5 -53.5q0 -32 -22.5 -54.5t-54.5 -22.5h-463q-32 0 -54 22.5t-22 54.5z" />
<glyph unicode="&#x2012;" horiz-adv-x="907" d="M126 429q0 31 22 53.5t54 22.5h463q32 0 54.5 -22.5t22.5 -53.5q0 -32 -22.5 -54.5t-54.5 -22.5h-463q-32 0 -54 22.5t-22 54.5z" />
<glyph unicode="&#x2013;" horiz-adv-x="1067" d="M126 429q0 31 22 53.5t54 22.5h623q32 0 54.5 -22.5t22.5 -53.5q0 -32 -22.5 -54.5t-54.5 -22.5h-623q-32 0 -54 22.5t-22 54.5z" />
<glyph unicode="&#x2014;" horiz-adv-x="1940" d="M126 429q0 31 22 53.5t54 22.5h1496q32 0 54 -22.5t22 -53.5q0 -32 -22 -54.5t-54 -22.5h-1496q-32 0 -54 22.5t-22 54.5z" />
<glyph unicode="&#x2018;" horiz-adv-x="479" d="M175 1119q-9 50 10.5 107t57 106t79.5 89t84 67q26 17 57.5 10.5t48.5 -32.5t10.5 -57.5t-32.5 -48.5q-73 -49 -122 -116t-43 -97q1 -11 39 -19q31 -7 48.5 -33.5t10.5 -57.5t-33.5 -48t-57.5 -10q-42 9 -73 26t-47.5 38.5t-24.5 39t-12 36.5z" />
<glyph unicode="&#x2019;" horiz-adv-x="528" d="M151 792q-18 26 -11.5 57.5t32.5 48.5q73 49 122 116t43 97q-1 11 -39 19q-31 7 -48.5 33.5t-10.5 57.5q6 31 33 48t58 10q42 -9 73 -26t47.5 -38.5t24.5 -39t12 -36.5q13 -66 -25.5 -142.5t-93 -132.5t-112.5 -94q-26 -17 -57 -10.5t-48 32.5z" />
<glyph unicode="&#x201a;" horiz-adv-x="494" d="M-24 -314q-17 26 -11 57t32 48q73 48 122 115.5t43 97.5q-2 12 -39 20q-31 7 -48 33t-11 57q7 31 33.5 48.5t57.5 10.5q42 -9 73 -26t47.5 -38.5t24.5 -39t12 -36.5q10 -50 -9.5 -107t-57.5 -106t-80 -88.5t-84 -67.5q-26 -17 -56.5 -11t-48.5 33z" />
<glyph unicode="&#x201c;" horiz-adv-x="930" d="M175 1118q-9 50 10.5 107t57 106t79.5 89t84 67q26 17 57.5 10.5t48.5 -32.5t10.5 -57.5t-32.5 -48.5q-73 -49 -122 -116t-43 -97q1 -11 39 -19q31 -7 48.5 -33.5t10.5 -57.5t-33.5 -48t-57.5 -10q-42 9 -73 26t-47.5 38.5t-24.5 39t-12 36.5zM629 1118q-12 66 26 142.5 t92.5 132.5t112.5 94q26 17 57 10.5t48 -32.5t11 -57t-33 -49q-73 -48 -121.5 -115t-42.5 -98q1 -11 39 -19q31 -7 48 -33.5t10 -57.5q-6 -31 -32.5 -48t-57.5 -10q-42 9 -73 26t-47.5 38.5t-24.5 39t-12 36.5z" />
<glyph unicode="&#x201d;" horiz-adv-x="980" d="M151 792q-18 26 -11.5 57.5t32.5 48.5q73 49 122 116t43 97q-1 11 -39 19q-31 7 -48.5 33.5t-10.5 57.5q6 31 33 48t58 10q42 -9 73 -26t47.5 -38.5t24.5 -39t12 -36.5q13 -66 -25.5 -142.5t-93 -132.5t-112.5 -94q-26 -17 -57 -10.5t-48 32.5zM604 792 q-17 26 -10.5 57.5t32.5 48.5q73 49 122 116t43 97q-3 11 -39 19q-31 7 -48.5 33.5t-10.5 57.5t33.5 48t57.5 10q78 -17 113.5 -57t43.5 -83q9 -50 -10.5 -107t-57 -106t-79.5 -89t-84 -67q-26 -17 -57.5 -10.5t-48.5 32.5z" />
<glyph unicode="&#x201e;" horiz-adv-x="950" d="M-22 -314q-18 26 -11.5 57.5t32.5 48.5q73 49 122 116t43 97q-1 11 -39 19q-31 7 -48.5 33.5t-10.5 57.5q6 31 33 48t58 10q42 -9 73 -26t47.5 -38.5t24.5 -39t12 -36.5q13 -66 -25.5 -142.5t-93 -132.5t-112.5 -94q-26 -17 -57 -10.5t-48 32.5zM431 -314 q-17 26 -10.5 57.5t32.5 48.5q73 49 122 116t43 97q-3 11 -39 19q-31 7 -48.5 33.5t-10.5 57.5t33.5 48t57.5 10q78 -17 113.5 -57t43.5 -83q9 -50 -10.5 -107t-57 -106t-79.5 -89t-84 -67q-26 -17 -57.5 -10.5t-48.5 32.5z" />
<glyph unicode="&#x2022;" horiz-adv-x="729" d="M120 414q0 97 71.5 167.5t168.5 70.5q88 0 148.5 -61t60.5 -148q0 -97 -71.5 -167.5t-168.5 -70.5q-88 0 -148.5 61t-60.5 148z" />
<glyph unicode="&#x2026;" horiz-adv-x="1265" d="M74 77l52 53q27 27 65 28t66 -26q28 -26 28.5 -64.5t-25.5 -66.5l-52 -54q-27 -28 -65.5 -28.5t-66.5 26.5t-28.5 65.5t26.5 66.5zM471 77l52 53q27 27 65 28t66 -26q28 -26 28.5 -64.5t-25.5 -66.5l-52 -54q-27 -28 -65.5 -28.5t-66.5 26.5t-28.5 65.5t26.5 66.5z M870 77l52 53q27 27 65 28t66 -26q28 -26 28.5 -64.5t-25.5 -66.5l-52 -54q-27 -28 -65.5 -28.5t-66.5 26.5t-28.5 65.5t26.5 66.5z" />
<glyph unicode="&#x202f;" horiz-adv-x="387" />
<glyph unicode="&#x2039;" horiz-adv-x="739" d="M104 374q-25 24 -22.5 59t28.5 55l406 320q26 19 56.5 15.5t50.5 -28.5t16.5 -56.5t-28.5 -50.5l-338 -266l265 -258q23 -22 23.5 -54t-21.5 -54q-22 -23 -53.5 -23t-54.5 22z" />
<glyph unicode="&#x203a;" horiz-adv-x="740" d="M77 62q-19 25 -15.5 56t28.5 51l338 266l-266 258q-22 22 -22.5 54t21.5 54q22 23 53.5 23t54.5 -22l328 -319q24 -24 22.5 -58.5t-28.5 -55.5l-407 -320q-25 -19 -56 -15.5t-51 28.5z" />
<glyph unicode="&#x205f;" horiz-adv-x="483" />
<glyph unicode="&#x20ac;" horiz-adv-x="1204" d="M83 303q1 28 21.5 47.5t49.5 18.5l637 -19q28 -1 47 -21.5t18 -48.5q-1 -29 -21 -48.5t-49 -18.5l-391 12l-20 -145q-6 -43 17.5 -76t63.5 -51t81 -27t78 -9q111 0 261 50q27 10 52.5 -3.5t35.5 -40.5q9 -26 -3.5 -51t-39.5 -35l-7 -3q-8 -2 -18.5 -5t-26 -7.5t-33 -9 t-38.5 -9t-43.5 -8.5t-45 -7t-47.5 -5t-47 -2q-68 0 -136.5 19.5t-127 56.5t-91 98t-22.5 136q12 89 18 138l-106 3q-29 1 -48.5 21.5t-18.5 49.5zM124 634q-1 28 18.5 48.5t48.5 21.5l125 4l19 166q33 293 385 293q32 0 69 -1.5t70.5 -4.5t66.5 -6t61 -6.5t48.5 -6 t34.5 -4.5l14 -2q28 -5 44.5 -27.5t12.5 -50.5q-5 -29 -27.5 -45t-50.5 -12l-22 3q-22 3 -58.5 7.5t-79 8.5t-92.5 7t-91 3q-69 0 -116 -11.5t-74 -35.5t-40 -53.5t-18 -72.5l-18 -146l372 10q29 1 49.5 -19t21.5 -48t-18.5 -48.5t-48.5 -21.5l-635 -16q-29 -1 -49.5 18 t-21.5 48z" />
<glyph unicode="&#x2122;" horiz-adv-x="1504" d="M158 874q0 22 15.5 38t37.5 16h377q22 0 37.5 -16t15.5 -38t-15.5 -38t-37.5 -16h-141l-45 -377q-3 -32 -32 -42.5t-54 6.5t-21 50l44 363h-128q-22 0 -37.5 16t-15.5 38zM704 466l129 424q5 17 19.5 27.5t31.5 10.5t31.5 -9.5t20.5 -25.5l103 -279l178 289 q13 21 37 24.5t43 -11t20 -38.5l26 -424q1 -20 -9 -34.5t-25.5 -18.5t-32 -2t-28.5 14.5t-13 32.5l-15 255l-148 -238q-17 -28 -50.5 -24t-44.5 33l-86 233l-83 -271q-6 -19 -21 -29t-31 -8t-30.5 9.5t-21 24t-0.5 35.5z" />
<glyph unicode="&#xe000;" horiz-adv-x="925" d="M0 0v925h925v-925h-925z" />
<glyph unicode="&#xfb01;" horiz-adv-x="1128" d="M81 715q0 29 20.5 49.5t49.5 20.5h113l26 220q38 321 469 321q86 0 206 -24q31 -7 48 -33t10 -57t-33.5 -48t-57.5 -11q-1 1 -26.5 6t-68.5 10t-77 5q-158 0 -232 -45.5t-86 -141.5l-25 -202h467q37 0 61 -24.5t20 -61.5l-85 -699q-4 -31 -29 -50.5t-56 -15.5 q-32 4 -51.5 29t-15.5 56l77 627h-405l-77 -645q-4 -31 -29 -51t-56 -16q-32 4 -51.5 29t-15.5 56l76 627h-96q-29 0 -49.5 20t-20.5 49z" />
<glyph unicode="&#xfb02;" horiz-adv-x="1177" d="M81 715q0 29 20.5 49.5t49.5 20.5h126l26 220q17 148 126.5 234.5t279.5 86.5q120 0 323 -22q31 -4 51 -28.5t16 -55.5l-150 -1220q-4 -32 -29 -51.5t-56 -15.5t-50.5 28.5t-15.5 56.5l140 1141q-190 15 -229 15q-30 0 -58 -3.5t-62.5 -15.5t-60.5 -31.5t-46.5 -54.5 t-26.5 -82l-25 -202h194q29 0 49 -20.5t20 -49.5t-20.5 -49t-48.5 -20h-210l-78 -645q-4 -31 -29 -51t-56 -16q-32 4 -51.5 29t-15.5 56l76 627h-109q-29 0 -49.5 20t-20.5 49z" />
</font>
</defs>
</svg>
