<?xml version="1.0" standalone="no"?>
<!DOCTYPE svg PUBLIC "-//W3C//DTD SVG 1.1//EN" "http://www.w3.org/Graphics/SVG/1.1/DTD/svg11.dtd" >
<svg xmlns="http://www.w3.org/2000/svg">
<metadata></metadata>
<defs>
<font id="corehumanistsanslightregular" horiz-adv-x="1199" >
<font-face units-per-em="2048" ascent="1235" descent="-813" />
<missing-glyph horiz-adv-x="480" />
<glyph unicode="&#xfb03;" horiz-adv-x="1638" d="M70 735q0 17 12.5 29t29.5 12h124v185q0 159 91.5 253t250.5 94q18 0 35.5 -1t31.5 -2t27.5 -3t23 -3.5t17 -3t11 -2.5t4.5 -1q17 -4 26.5 -16.5t8.5 -26.5t-7 -27t-20 -19.5t-31 -1.5q-53 13 -127 13q-119 0 -183 -67t-64 -186v-185h507v229q0 71 18.5 125.5t50 89.5 t78.5 57.5t99.5 31t116.5 8.5q19 0 40 -1.5t41 -4t40.5 -5.5t37.5 -6.5t32.5 -6.5t26 -5.5t17.5 -4.5l8 -2q28 -8 33.5 -34t-12 -45.5t-45.5 -11.5l-8 2q-7 2 -20 4.5t-29.5 6t-37 7.5t-41 6.5t-42.5 4.5t-41 2q-62 0 -106 -8t-83.5 -30.5t-59.5 -67t-20 -112.5v-229h493 q19 0 33 -14t14 -33v-730q0 -19 -14 -33t-33 -14t-33 14t-14 33v694h-446v-693q0 -20 -14 -33.5t-33 -13.5t-33 13.5t-14 33.5v693h-507l1 -694q0 -19 -14 -33t-34 -14t-33.5 14t-13.5 33v694h-125q-17 0 -29.5 12.5t-12.5 29.5z" />
<glyph unicode="&#xfb04;" horiz-adv-x="1691" d="M70 735q0 17 12.5 29t29.5 12h124v185q0 159 91.5 253t250.5 94q18 0 35.5 -1t31.5 -2t27.5 -3t23 -3.5t17 -3t11 -2.5t4.5 -1q17 -4 26.5 -16.5t8.5 -26.5t-7 -27t-20 -19.5t-31 -1.5q-53 13 -127 13q-119 0 -183 -67t-64 -186v-185h507v229q0 73 24.5 129t64 90 t95.5 55.5t113.5 29.5t123.5 8q109 0 220 -37q32 -25 32 -45v-1236q0 -19 -13.5 -33t-33.5 -14t-33.5 14t-13.5 33v1201q-95 23 -158 23q-51 0 -92 -4t-87 -17.5t-76.5 -36t-51 -63.5t-20.5 -97v-229h230q17 0 29 -12t12 -29t-12 -29.5t-29 -12.5h-230v-693q0 -20 -14 -33.5 t-33 -13.5t-33 13.5t-14 33.5v693h-507l1 -694q0 -19 -14 -33t-34 -14t-33.5 14t-13.5 33v694h-125q-17 0 -29.5 12.5t-12.5 29.5z" />
<glyph horiz-adv-x="2048" />
<glyph horiz-adv-x="2048" />
<glyph horiz-adv-x="682" />
<glyph unicode="&#x9;" horiz-adv-x="0" />
<glyph unicode="&#xa;" horiz-adv-x="7620" />
<glyph unicode="&#xd;" horiz-adv-x="9203" />
<glyph horiz-adv-x="1298" />
<glyph horiz-adv-x="0" />
<glyph horiz-adv-x="0" />
<glyph unicode=" "  horiz-adv-x="480" />
<glyph unicode="&#x09;" horiz-adv-x="480" />
<glyph unicode="&#xa0;" horiz-adv-x="480" />
<glyph unicode="!" horiz-adv-x="514" d="M188 42l41 48q18 21 45 23t47 -15q21 -18 23.5 -44.5t-15.5 -47.5l-41 -48q-18 -21 -44.5 -23t-47.5 15t-23.5 44t15.5 48zM212 490v765q0 19 14 33t33 14t33 -14t14 -33v-765q0 -20 -14 -33.5t-33 -13.5t-33 13.5t-14 33.5z" />
<glyph unicode="&#x22;" horiz-adv-x="824" d="M149 774l33 472q2 29 26.5 39t47 -3t20.5 -42l-33 -472q-1 -17 -11.5 -28.5t-25 -13.5t-28 1.5t-22 16t-7.5 30.5zM552 774l34 472q2 29 26.5 39t47 -3.5t20.5 -41.5l-34 -472q-2 -29 -26.5 -39.5t-47 3t-20.5 42.5z" />
<glyph unicode="#" horiz-adv-x="1244" d="M92 388q0 15 11 25.5t27 10.5h244l50 480h-236q-16 0 -27 11t-11 27t11 26.5t27 10.5h244l31 285q2 23 21.5 30.5t37 -3.5t15.5 -34l-28 -278h293l30 285q2 23 22 30.5t37.5 -3.5t15.5 -34l-29 -278h236q16 0 27 -10.5t11 -26.5t-11 -27t-27 -11h-243l-51 -480h236 q16 0 27 -10.5t11 -25.5q0 -16 -11 -27.5t-27 -11.5h-244l-30 -285q-2 -23 -21.5 -31t-37.5 3.5t-16 35.5l28 277h-293l-30 -285q-2 -23 -21.5 -30.5t-37.5 4t-16 34.5l29 277h-236q-16 0 -27 11.5t-11 27.5zM450 424h293l51 480h-293z" />
<glyph unicode="$" horiz-adv-x="918" d="M82 775q0 142 96 223t239 94v262q0 20 14 34t33 14t33 -14t14 -34v-261q162 -6 259 -39q28 -9 31.5 -35t-15 -44.5t-46.5 -9.5q-47 16 -127 25.5t-148 9.5q-53 0 -102 -12.5t-92 -37.5t-69 -70.5t-26 -104.5q0 -88 32 -127.5t111 -67.5l301 -108q50 -18 85 -39t64 -53 t43 -79.5t14 -111.5q0 -137 -89.5 -217t-225.5 -98v-262q0 -20 -13.5 -33.5t-33.5 -13.5t-33.5 13.5t-13.5 33.5v259q-142 3 -246 39q-27 9 -31.5 35t14.5 44.5t47 9.5q102 -35 242 -35q53 0 102 12.5t92 37.5t69 70.5t26 104.5q0 88 -32 127.5t-111 67.5l-302 107 q-67 24 -109 54.5t-69 88t-27 141.5z" />
<glyph unicode="%" horiz-adv-x="1661" d="M72 809q0 104 74 177.5t178 73.5t178 -73.5t74 -177.5t-74 -178t-178 -74t-178 74t-74 178zM167 809q0 -65 46 -111.5t111 -46.5t111.5 46.5t46.5 111.5t-46.5 111t-111.5 46t-111 -46t-46 -111zM376 -157l841 1368q14 24 41 21.5t39 -23.5t0 -48l-841 -1367 q-15 -25 -42 -22t-38.5 24t0.5 47zM1091 205q0 104 74 177.5t178 73.5t177.5 -73.5t73.5 -177.5t-73.5 -178t-177.5 -74t-178 74t-74 178zM1185 205q0 -65 46.5 -111.5t111.5 -46.5t111 46.5t46 111.5t-46 111t-111 46t-111.5 -46t-46.5 -111z" />
<glyph unicode="&#x26;" horiz-adv-x="1341" d="M151 312q0 70 27.5 135t81 120t130.5 97l33 18q-91 100 -123 166.5t-32 150.5q0 140 90 228.5t232 88.5q67 0 129 -20t105 -55q13 -11 16 -26.5t-3.5 -28t-17.5 -21.5t-26.5 -8.5t-28.5 11.5q-30 25 -77 39.5t-97 14.5q-68 0 -120 -27.5t-80 -78t-28 -117.5 q0 -37 6.5 -64.5t27.5 -64.5t58 -80.5t100 -108.5l373 -386q158 149 296 283q14 14 34 13.5t33 -14.5t12.5 -33.5t-14.5 -33.5q-62 -62 -295 -283l188 -194q12 -13 13 -28t-7 -26.5t-20 -19t-27 -6t-27 14.5l-189 195q-106 -100 -144 -129q-129 -96 -253 -96 q-161 0 -268.5 107t-107.5 267zM245 312q0 -121 80 -200.5t202 -79.5q49 0 102.5 22.5t94.5 53.5q24 18 135 122l-369 382l-54 -30q-36 -20 -67 -44t-60.5 -57.5t-46.5 -77t-17 -91.5z" />
<glyph unicode="'" horiz-adv-x="420" d="M149 774l33 472q2 29 26.5 39t47 -3t20.5 -42l-33 -472q-1 -17 -11.5 -28.5t-25 -13.5t-28 1.5t-22 16t-7.5 30.5z" />
<glyph unicode="(" horiz-adv-x="586" d="M123 429q0 194 74 375.5t217 336.5q13 14 33 15t34 -12q14 -14 15 -33.5t-12 -33.5q-267 -288 -267 -648q0 -355 262 -643q13 -14 12 -33.5t-15 -32.5q-15 -13 -34.5 -12t-32.5 15q-140 154 -213 334t-73 372z" />
<glyph unicode=")" horiz-adv-x="587" d="M103 -220q131 143 199 308t68 340t-67 338.5t-195 304.5q-13 14 -12 33.5t15 33.5q14 13 34 12t33 -16q93 -102 157 -216.5t96.5 -238t32.5 -251.5q0 -194 -74.5 -375.5t-217.5 -336.5q-12 -12 -27 -14t-27 5.5t-20.5 18.5t-7.5 26.5t13 27.5z" />
<glyph unicode="*" horiz-adv-x="1314" d="M106 824q-27 9 -31 35t14 44.5t46 9.5l473 -153v493q0 19 14 33t33 14t33 -14t14 -33v-495l475 154q28 9 46.5 -10t14.5 -45t-32 -35l-474 -154l292 -403q10 -15 9.5 -29.5t-10.5 -25t-22.5 -16.5t-27.5 -2t-25 18l-291 400l-291 -400q-10 -14 -24.5 -18t-27.5 2 t-23 16.5t-10.5 25t9.5 29.5l293 404z" />
<glyph unicode="+" horiz-adv-x="968" d="M74 430q0 19 13.5 32.5t33.5 13.5h316v383q0 19 13.5 33t33.5 14t33.5 -14t13.5 -33v-383h315q20 0 34 -13.5t14 -32.5q0 -20 -14 -34t-34 -14h-315v-382q0 -20 -13.5 -33.5t-33.5 -13.5t-33.5 13.5t-13.5 33.5v382h-316q-20 0 -33.5 14t-13.5 34z" />
<glyph unicode="," horiz-adv-x="482" d="M111 -254q62 44 105.5 108.5t43.5 110.5q0 30 -20.5 44.5t-56.5 22.5q-17 3 -26.5 15t-9 26t5.5 27.5t18.5 20.5t30.5 4q69 -14 110.5 -54.5t41.5 -105.5q0 -77 -59 -161.5t-130 -134.5q-23 -16 -46.5 -3t-26.5 37t19 43z" />
<glyph unicode="-" horiz-adv-x="856" d="M160 429q0 19 14 33t33 14h442q19 0 33 -14t14 -33t-14 -33t-33 -14h-442q-20 0 -33.5 13.5t-13.5 33.5z" />
<glyph unicode="." horiz-adv-x="448" d="M148 44l41 48q18 21 44.5 23.5t47.5 -15.5q21 -17 23.5 -44t-15.5 -48l-41 -48q-18 -21 -44.5 -23t-47.5 15t-23.5 44t15.5 48z" />
<glyph unicode="/" horiz-adv-x="928" d="M105 -164l630 1414q11 26 37.5 27t43.5 -19t5 -47l-630 -1413q-12 -26 -38.5 -27.5t-43 19t-4.5 46.5z" />
<glyph unicode="0" horiz-adv-x="1058" d="M134 348v248q0 169 116 289.5t280 120.5q163 0 279 -120t116 -290v-248q0 -170 -116 -290t-279 -120q-164 0 -280 120.5t-116 289.5zM228 348q0 -130 88.5 -223t213.5 -93q124 0 212.5 92.5t88.5 223.5v248q0 130 -88 222.5t-213 92.5t-213.5 -92.5t-88.5 -222.5v-248z " />
<glyph unicode="1" horiz-adv-x="852" d="M104 0q0 20 14 34t33 14h258v838l-247 -53q-28 -6 -44.5 14.5t-10 45.5t34.5 32l304 65q22 5 39.5 -9.5t17.5 -36.5v-896h264q19 0 33 -14t14 -34t-14 -33.5t-33 -13.5h-616q-19 0 -33 13.5t-14 33.5z" />
<glyph unicode="2" horiz-adv-x="961" d="M124 0q0 23 0.5 36.5t1.5 41.5t4.5 47.5t8.5 48t14.5 51t21.5 50t30 49.5t40 44.5t51.5 42t63.5 34.5q61 27 182 68q44 15 69 24t51.5 21.5t39 24.5t24 29t15 38t3.5 50q0 42 -13.5 76t-33.5 55.5t-48.5 38t-54 24.5t-54.5 13t-45 6t-30 1q-60 0 -150.5 -14t-135.5 -28 q-27 -9 -45.5 9.5t-14 44.5t31.5 35q49 16 146.5 31.5t167.5 15.5q170 0 272 -84t102 -224q0 -39 -8 -72t-19 -56t-34 -44.5t-40 -33.5t-51.5 -27t-53.5 -22t-61 -21q-110 -36 -174 -65q-52 -23 -88 -58t-54.5 -78.5t-26.5 -84t-10 -91.5h572q19 0 33 -13.5t14 -33.5 t-14 -33.5t-33 -13.5h-620q-19 0 -33 13.5t-14 33.5z" />
<glyph unicode="3" horiz-adv-x="946" d="M131 981q196 28 264 28q115 0 207.5 -37.5t151.5 -120.5t59 -199q0 -95 -45 -177.5t-132 -128.5q95 -47 143.5 -130.5t49.5 -180.5q0 -89 -39 -159.5t-105 -112t-144.5 -63t-163.5 -21.5q-79 0 -229 30q-17 4 -26.5 16t-9 26.5t6.5 27t20 19.5t31 3q0 -1 32 -7.5 t83.5 -13.5t91.5 -7q51 0 100.5 8.5t96.5 28.5t82.5 49.5t57 74.5t21.5 101q0 40 -10.5 76.5t-35 71t-61 60t-92 41t-124.5 15.5h-144q-19 0 -33 13.5t-14 33.5t14 33.5t33 13.5h161q77 0 134.5 22.5t90 60.5t48.5 82.5t16 93.5q0 68 -26 120t-72 82t-102.5 45t-122.5 15 q-18 0 -41 -1.5t-46 -3.5t-46.5 -5t-44 -6t-36 -5t-25 -3.5l-9.5 -1.5q-22 -3 -36 9t-17 29.5t6.5 34t30.5 20.5z" />
<glyph unicode="4" horiz-adv-x="1062" d="M48 66l492 901q8 15 22 21t27.5 2t24.5 -13.5t13.5 -24t-5.5 -30.5l-454 -832h544l-1 304q0 20 14 34t33.5 14t33.5 -14t14 -34v-304h170q20 0 33.5 -14t13.5 -33t-13.5 -33t-33.5 -14h-170v-270q0 -20 -13.5 -33.5t-33 -13.5t-33.5 13.5t-14 33.5v270h-623 q-24 0 -39 22.5t-2 47.5z" />
<glyph unicode="5" horiz-adv-x="892" d="M114 458l34 490q2 18 15.5 31t32.5 13h512q19 0 33 -14t14 -34t-13.5 -33.5t-33.5 -13.5h-469l-28 -405l182 -37q76 -15 126.5 -30t106.5 -44t89 -67.5t54.5 -100.5t21.5 -144q0 -178 -132.5 -284t-353.5 -106h-118q-19 0 -33 13.5t-14 33.5t14 33.5t33 13.5h118 q59 0 113.5 9.5t106 32t89 56t60.5 84.5t23 114q0 58 -12.5 100.5t-35 72.5t-64 52.5t-89.5 37t-122 30.5l-222 47q-18 4 -28.5 17.5t-9.5 31.5z" />
<glyph unicode="6" horiz-adv-x="1035" d="M124 432q0 285 139 497.5t400 325.5q26 11 46 -5.5t19 -43t-28 -38.5q-364 -158 -454 -515q148 62 295 62q176 0 293.5 -106t115.5 -280q-2 -176 -112 -283.5t-287 -107.5q-108 0 -191 39t-134 108t-76.5 156.5t-25.5 190.5zM218 435q0 -68 10.5 -125.5t35.5 -109 t63 -87.5t95 -58t130 -23q138 -2 220 79t84 219q1 68 -23 123.5t-67 92t-100.5 56t-124.5 19.5q-158 0 -316 -83q-7 -59 -7 -103z" />
<glyph unicode="7" horiz-adv-x="940" d="M32 944q0 19 14 33t33 14h728q23 0 38 -20.5t5 -44.5l-526 -1218q-11 -26 -37.5 -27.5t-43.5 19t-6 46.5l498 1151h-656q-19 0 -33 13.5t-14 33.5z" />
<glyph unicode="8" horiz-adv-x="1069" d="M141 287q0 62 22 113.5t64.5 91t87 67.5t105.5 57q-60 29 -104 58t-86.5 70.5t-65 96t-22.5 120.5q0 159 107.5 254t288.5 95t285.5 -94t104.5 -255q0 -66 -22.5 -120.5t-65 -96t-86.5 -70.5t-104 -58q61 -29 105.5 -57t86.5 -67.5t64 -91t22 -113.5q0 -159 -107.5 -254 t-287.5 -95q-181 0 -286.5 94t-105.5 255zM236 287q0 -65 23 -114t55 -75t76 -41.5t77 -19.5t66 -4q29 0 59 3.5t76.5 18.5t80.5 40.5t59.5 75t25.5 116.5q0 42 -17 78t-41 62t-67.5 53.5t-79.5 45t-94 43.5q-58 -25 -94.5 -43t-79.5 -45.5t-67.5 -53.5t-41 -62t-16.5 -78z M236 961q0 -54 20 -97t62.5 -78.5t91.5 -63t125 -60.5q76 33 124.5 60.5t91.5 63t63 78.5t20 97q0 65 -23 114.5t-55 75t-76 41.5t-76.5 20t-65.5 4q-29 0 -59.5 -3.5t-77 -18.5t-80.5 -40.5t-59.5 -75.5t-25.5 -117z" />
<glyph unicode="9" horiz-adv-x="1006" d="M74 618q2 176 112.5 283.5t287.5 107.5q86 0 157.5 -26t120.5 -71t83 -107.5t50 -135.5t16 -154q0 -284 -139.5 -497t-399.5 -326q-26 -11 -46.5 6t-19 43t27.5 38q365 158 455 516q-145 -63 -295 -63q-177 0 -294.5 106t-115.5 280zM168 618q-1 -90 41.5 -157.5 t114 -101t160.5 -33.5q156 0 316 83q6 51 6 103q0 48 -5.5 91t-17.5 83.5t-30 74t-45 62t-60.5 48.5t-78 31.5t-96.5 12.5q-138 2 -220.5 -78.5t-84.5 -218.5z" />
<glyph unicode=":" horiz-adv-x="490" d="M175 44l41 48q18 21 44.5 23.5t47.5 -15.5q21 -17 23.5 -44t-15.5 -48l-41 -48q-18 -21 -45 -23t-47 15q-21 17 -23.5 44t15.5 48zM175 854l41 49q17 21 44 23t48 -15q20 -17 22.5 -44t-14.5 -48l-41 -49q-17 -20 -44.5 -22.5t-47.5 14.5q-21 18 -23 45t15 47z" />
<glyph unicode=";" horiz-adv-x="568" d="M176 -254q61 44 105 108.5t44 110.5q0 51 -77 67q-21 5 -30 22t-5 34t18.5 29t35.5 8q69 -14 110.5 -54.5t41.5 -105.5q0 -77 -59 -161.5t-130 -134.5q-14 -9 -29 -8.5t-25.5 10.5t-16.5 22.5t-2 27.5t19 25zM186 854l41 49q17 21 44 23t48 -15q20 -17 22.5 -44 t-14.5 -48l-41 -49q-17 -20 -44 -22.5t-48 14.5q-21 18 -23 45t15 47z" />
<glyph unicode="&#x3c;" horiz-adv-x="984" d="M64 429q0 27 23 41l720 429q15 8 30 6.5t24.5 -12t14.5 -23.5t-0.5 -28t-20.5 -24l-652 -389l652 -389q19 -11 22.5 -30.5t-7 -33.5t-27 -21.5t-36.5 4.5l-720 429q-23 14 -23 41z" />
<glyph unicode="=" horiz-adv-x="1074" d="M159 222q0 20 13.5 33.5t33.5 13.5h662q20 0 33.5 -13.5t13.5 -33.5t-13.5 -33.5t-33.5 -13.5h-662q-20 0 -33.5 13.5t-13.5 33.5zM159 631q0 19 13.5 33t33.5 14h662q20 0 33.5 -14t13.5 -33t-13.5 -33t-33.5 -14h-662q-20 0 -33.5 14t-13.5 33z" />
<glyph unicode="&#x3e;" horiz-adv-x="983" d="M128 40l652 389l-652 389q-23 17 -22 41t23.5 39t46.5 1l721 -429q23 -15 23 -41t-23 -41l-721 -429q-24 -14 -46.5 1t-23.5 39t22 41z" />
<glyph unicode="?" horiz-adv-x="886" d="M94 1272q117 47 281 47q57 0 110.5 -11.5t105.5 -38t91 -66t62.5 -100.5t23.5 -136q0 -37 -6 -70.5t-15 -59.5t-26 -50.5t-32.5 -42t-40.5 -35.5t-44.5 -30t-51 -26t-52 -23t-55.5 -22v-119q0 -19 -14 -33t-33.5 -14t-33 14t-13.5 33v139q0 45 28 55l24 9q51 19 83.5 33 t66.5 32.5t53.5 37t36.5 44t24 57t7 71.5q0 55 -17.5 99.5t-46 73.5t-67.5 48.5t-81 28t-87 8.5q-25 0 -49 -1.5t-44 -3.5t-38.5 -5t-33 -6t-27 -6t-21.5 -6l-15 -5t-9.5 -3.5l-3.5 -1.5q-26 -12 -46.5 4.5t-20 43t26.5 37.5zM328 42l40 48q18 21 45 23t47 -15 q21 -18 23.5 -44.5t-15.5 -47.5l-40 -48q-18 -21 -45 -23t-47 15q-21 17 -23.5 44t15.5 48z" />
<glyph unicode="@" horiz-adv-x="1820" d="M105 439q0 121 32 235.5t89.5 210.5t139.5 176t179 136t212 87.5t235 32.5q159 1 298 -55t237.5 -154.5t155 -235.5t56.5 -292q0 -119 -32.5 -226t-85.5 -183q-106 -152 -258 -153q-121 0 -176 92q-125 -85 -253 -85q-80 0 -147.5 33.5t-111.5 89.5t-68.5 127.5 t-24.5 149.5q0 84 23 158.5t67 131.5t114 90.5t158 33.5q106 0 217 -63v15q0 12 6.5 23t17 17t23.5 6q5 -2 13 -6.5t21 -16.5t13 -24l-5 -552q-1 -56 26 -91t82 -35q108 0 186 114q46 64 73.5 157t27.5 196q0 137 -49 256.5t-135 205t-207.5 134t-261.5 47.5 q-161 -1 -307 -62t-252.5 -164.5t-169.5 -249t-63 -308.5q0 -121 30.5 -231t86 -199t134.5 -161t174 -120.5t205.5 -74.5t229.5 -26q182 0 346 83q15 7 30 4.5t23.5 -14t12.5 -25t-2 -27.5t-22 -22q-186 -93 -388 -93q-197 0 -372 66t-304 182.5t-204 287.5t-75 371z M676 425q-1 -58 16 -112.5t49 -98t82 -69.5t111 -26t119.5 25t104.5 62q-2 10 -2 30v2l4 428q-20 15 -45.5 29.5t-76 32t-94.5 17.5q-69 0 -121.5 -25.5t-83.5 -71t-46.5 -101.5t-16.5 -122z" />
<glyph unicode="A" d="M65 18l486 1254q12 30 44 30q14 0 26.5 -8.5t17.5 -21.5l504 -1254q11 -26 -6.5 -45.5t-44 -18t-37.5 28.5l-144 358h-620l-138 -357q-11 -27 -37.5 -29.5t-44 17t-6.5 46.5zM328 435h546l-278 691z" />
<glyph unicode="B" horiz-adv-x="1219" d="M208 1254q0 20 14 34t34 14h436q137 0 237.5 -100t100.5 -237q0 -90 -47 -173t-122 -134q99 -47 159 -136.5t60 -197.5q0 -156 -111.5 -263.5t-272.5 -107.5h-440q-20 0 -33.5 13.5t-13.5 33.5zM303 47h393q122 0 206 80t84 197q0 122 -91 199.5t-205 77.5h-387v-554z M303 696h387q93 0 169.5 83.5t76.5 185.5q0 97 -73 169.5t-171 72.5h-389v-511z" />
<glyph unicode="C" horiz-adv-x="1190" d="M131 627q0 208 79 364t224.5 240.5t339.5 84.5q145 0 292 -55q27 -10 30 -36t-16 -44t-46 -8q-135 49 -260 49q-254 0 -401.5 -160t-147.5 -435t147.5 -435t401.5 -160q129 0 260 49q27 10 46 -8t16 -44.5t-30 -36.5q-146 -54 -292 -54q-293 0 -468 187.5t-175 501.5z " />
<glyph unicode="D" horiz-adv-x="1365" d="M208 0l1 1254q0 20 14 34t33 14h281q105 0 202 -21.5t188.5 -71.5t158.5 -124.5t107.5 -189t40.5 -255.5q0 -200 -85.5 -356.5t-239 -243.5t-349.5 -87h-304q-20 0 -34 14t-14 33zM303 47h257q88 0 171 22t157.5 69t130 115.5t88.5 168t33 218.5q0 108 -26.5 196.5 t-67.5 146t-99 101t-112.5 66.5t-116 36.5t-102 17t-78.5 3.5h-235v-1160z" />
<glyph unicode="E" horiz-adv-x="1064" d="M209 0v1254q0 20 14 34t33 14h663q19 0 33 -14t14 -34t-14 -33.5t-33 -13.5h-615v-533h527q19 0 33 -14t14 -33t-14 -33t-33 -14h-527v-533h599q19 0 33 -13.5t14 -33.5t-14 -33.5t-33 -13.5h-647q-20 0 -33.5 13.5t-13.5 33.5z" />
<glyph unicode="F" horiz-adv-x="1006" d="M209 0v1254q0 20 13.5 33.5t33.5 13.5h635q19 0 33 -13.5t14 -33.5t-14 -33.5t-33 -13.5h-587v-559h494q20 0 33.5 -14t13.5 -33t-13.5 -33t-33.5 -14h-494v-554q0 -19 -14 -33t-34 -14t-33.5 13.5t-13.5 33.5z" />
<glyph unicode="G" horiz-adv-x="1329" d="M130 621q0 151 48.5 280.5t134.5 220.5t208.5 142t266.5 51q153 0 308 -33q17 -3 27 -15t9.5 -26t-6 -27t-19 -20t-30.5 -4q-145 31 -289 31q-249 0 -406.5 -167.5t-157.5 -432.5t148.5 -427t390.5 -162q168 0 332 30v403h-97q-20 0 -33.5 13.5t-13.5 33.5t14 34t33 14 h144q19 0 33 -14t14 -34v-490q0 -17 -11 -30t-28 -16q-225 -38 -387 -38q-284 0 -458.5 188t-174.5 495z" />
<glyph unicode="H" horiz-adv-x="1393" d="M209 0v1254q0 20 13.5 33.5t33.5 13.5t33.5 -13.5t13.5 -33.5v-556h787v556q0 20 14 33.5t33 13.5t33 -13.5t14 -33.5v-1254q0 -20 -14 -33.5t-33 -13.5t-33 13.5t-14 33.5v604h-787v-604q0 -20 -13.5 -33.5t-33.5 -13.5t-33.5 13.5t-13.5 33.5z" />
<glyph unicode="I" horiz-adv-x="512" d="M209 0v1254q0 20 14 34t33 14q20 0 34 -14t14 -34v-1254q0 -19 -14 -33t-34 -14t-33.5 13.5t-13.5 33.5z" />
<glyph unicode="J" horiz-adv-x="514" d="M-103 -434q-29 1 -39.5 25t3 47t41.5 22q61 -4 85 -4q91 0 157 54t66 155v1390q0 19 14 33t33 14t33 -14t14 -33v-1390q0 -134 -88.5 -218.5t-228.5 -84.5q-12 0 -34 1t-39 2z" />
<glyph unicode="K" horiz-adv-x="1144" d="M209 0v1254q0 19 14 33t33 14q13 0 24 -6.5t17.5 -17t6.5 -23.5v-727l683 759q12 13 27 15t27 -5.5t20.5 -19t8 -27t-12.5 -27.5l-522 -579l535 -612q13 -15 11.5 -34.5t-15.5 -32.5q-15 -13 -34.5 -11.5t-32.5 16.5l-528 604l-167 -187v-386q0 -19 -14 -33t-34 -14 t-33.5 13.5t-13.5 33.5z" />
<glyph unicode="L" horiz-adv-x="932" d="M209 0v1254q0 20 13.5 33.5t33.5 13.5t33.5 -13.5t13.5 -33.5v-1207h534q19 0 33 -13.5t14 -33.5t-14 -33.5t-33 -13.5h-581q-20 0 -33.5 13.5t-13.5 33.5z" />
<glyph unicode="M" horiz-adv-x="1528" d="M208 1254q0 22 16.5 36t37.5 11.5t33 -21.5l469 -723l468 723q13 19 34 21.5t37 -11.5t16 -36v-1254q0 -20 -13.5 -33.5t-33.5 -13.5t-33.5 13.5t-13.5 33.5v1095l-422 -650q-14 -22 -39 -22q-26 0 -40 22l-421 650v-1095q0 -20 -13.5 -33.5t-33.5 -13.5t-33.5 13.5 t-13.5 33.5z" />
<glyph unicode="N" horiz-adv-x="1404" d="M209 0v1254q0 21 15.5 34.5t36 12t33.5 -19.5l807 -1133v1106q0 20 13.5 33.5t33.5 13.5t33.5 -13.5t13.5 -33.5v-1254q0 -32 -33 -43.5t-53 16.5l-806 1133v-1106q0 -20 -13.5 -33.5t-33.5 -13.5t-33.5 13.5t-13.5 33.5z" />
<glyph unicode="O" horiz-adv-x="1524" d="M129 636q0 194 81.5 349.5t226.5 242.5t326 87t326 -87t226.5 -242.5t81.5 -349.5q0 -138 -45 -264.5t-125.5 -222.5t-201 -153.5t-262.5 -57.5q-178 0 -323.5 91t-228 251t-82.5 356zM223 636q0 -170 70.5 -308.5t194 -217t275.5 -78.5q122 0 225 50t171 133.5 t105.5 192.5t37.5 228q0 167 -69 301t-192.5 209t-277.5 75q-235 0 -387.5 -165.5t-152.5 -419.5z" />
<glyph unicode="P" horiz-adv-x="1113" d="M208 0v1254q0 20 14 33.5t34 13.5h381q49 0 101 -16t102 -50t90 -80.5t64 -112.5t24 -142q0 -171 -113 -291.5t-273 -120.5h-330v-488q0 -20 -13.5 -33.5t-32.5 -13.5q-20 0 -34 13.5t-14 33.5zM302 582h330q121 0 206.5 93t85.5 225q0 62 -20 115t-51.5 87.5t-70.5 59 t-76 35t-69 10.5h-335v-625z" />
<glyph unicode="Q" horiz-adv-x="1517" d="M129 632q0 195 81 351.5t225 244t325 87.5q180 0 324 -87.5t225 -244t81 -351.5q0 -200 -86 -361t-234 -249l321 -224q16 -11 19.5 -30.5t-7.5 -35.5t-30 -19.5t-35 7.5l-366 255q-102 -37 -212 -37q-177 0 -322 90.5t-227 249.5t-82 354zM223 632q0 -169 70 -306.5 t193 -215.5t274 -78q150 0 273 78t193 215.5t70 306.5q0 168 -69 303t-191.5 210.5t-275.5 75.5q-233 0 -385 -166.5t-152 -422.5z" />
<glyph unicode="R" horiz-adv-x="1178" d="M209 0v1254q0 20 14 33.5t33 13.5h382q41 0 84 -11.5t86 -34t81 -57t67.5 -77.5t46.5 -100.5t17 -120.5q0 -94 -38 -178t-104.5 -141.5t-149.5 -80.5l345 -472q10 -14 9.5 -28.5t-10.5 -25.5t-22.5 -17t-27.5 -2.5t-26 17.5l-375 516h-318v-488q0 -20 -13.5 -33.5 t-33.5 -13.5t-33.5 13.5t-13.5 33.5zM303 582h329q83 0 151.5 45.5t105 118t36.5 154.5q0 62 -20.5 115t-52 87.5t-70.5 59t-75.5 35t-68.5 10.5h-335v-625z" />
<glyph unicode="S" horiz-adv-x="1018" d="M132 959q0 165 104.5 260.5t285.5 95.5q184 0 318 -45q27 -9 30.5 -35t-15 -44.5t-46.5 -9.5q-120 40 -287 40q-33 0 -65.5 -4t-76.5 -20.5t-76 -43t-55 -77t-23 -117.5q0 -43 7.5 -75t18.5 -53t35.5 -40t46.5 -31t62 -30l267 -122q46 -21 75 -37t60.5 -42.5t49 -57 t29 -75.5t11.5 -103q0 -164 -104.5 -259.5t-284.5 -95.5q-189 0 -318 44q-28 9 -31.5 35t15 45t46.5 10q116 -40 288 -40q33 0 65.5 4t76 20t75.5 42.5t55 77t23 117.5q0 53 -9 88.5t-34 61.5t-50.5 41t-76.5 38l-267 122q-57 26 -92 48t-68.5 57.5t-49 87t-15.5 122.5z" />
<glyph unicode="T" horiz-adv-x="1080" d="M34 1254q0 20 14 33.5t33 13.5h919q20 0 34 -14t14 -33t-14 -33t-34 -14h-412v-1207q0 -19 -14 -33t-34 -14t-33.5 13.5t-13.5 33.5v1207h-412q-19 0 -33 13.5t-14 33.5z" />
<glyph unicode="U" horiz-adv-x="1456" d="M194 554v699q0 19 14 33t33 14t33 -14t14 -33v-699q0 -242 118 -382t322 -140q203 0 321.5 140.5t118.5 381.5v699q0 19 14 33t33 14t33 -14t14 -33v-699q0 -280 -145.5 -448t-388.5 -168q-244 0 -389 167.5t-145 448.5z" />
<glyph unicode="V" horiz-adv-x="1192" d="M67 1228q-10 27 8 46.5t44 17t36 -29.5l434 -1134l462 1144q11 27 37.5 29t43.5 -18.5t6 -46.5l-506 -1254q-14 -33 -45 -33q-33 0 -45 31z" />
<glyph unicode="W" horiz-adv-x="1840" d="M78 1241q-9 27 10 45t45 14t35 -32l341 -1115l363 1055q3 9 9.5 16.5t15.5 11.5t19 4q37 -12 44 -31l371 -1057l341 1116q9 28 35 32t45 -14t10 -45l-383 -1255q-10 -33 -45 -33q-15 0 -28 9t-17 22l-373 1065l-365 -1064q-12 -33 -45 -33q-15 0 -28 9t-17 22z" />
<glyph unicode="X" horiz-adv-x="1167" d="M90 1226q-11 16 -8 35t19 31q16 11 35.5 8.5t30.5 -18.5l417 -574l412 574q17 23 43.5 18.5t37 -27t-3.5 -47.5l-431 -599l436 -599q11 -16 8 -35t-19 -31q-16 -11 -35 -8t-30 19l-418 574l-412 -574q-11 -16 -30 -19t-36 8q-16 11 -18.5 30.5t8.5 35.5l430 599z" />
<glyph unicode="Y" horiz-adv-x="1110" d="M58 1228q-10 17 -6.5 35.5t19.5 29.5q17 10 35.5 6.5t29.5 -19.5l418 -635l427 635q7 10 17 15.5t20 5t19.5 -4t17 -11t11.5 -16.5t2.5 -20.5t-8.5 -21.5l-460 -681v-546q0 -20 -14 -33.5t-33 -13.5t-33 13.5t-14 33.5v546z" />
<glyph unicode="Z" horiz-adv-x="1104" d="M94 1254q0 19 14 33t33 14h815q26 0 40.5 -23t-0.5 -50l-774 -1182h754q20 0 33.5 -14t13.5 -33t-13.5 -33t-33.5 -14h-841q-25 0 -39.5 23.5t0.5 49.5l773 1181h-728q-19 0 -33 14t-14 34z" />
<glyph unicode="[" horiz-adv-x="560" d="M182 -364v1731q0 18 12.5 32t30.5 15l209 21q17 2 30 -6.5t17 -22t3 -27.5t-12 -25t-28 -13l-167 -17v-1646l167 -16q28 -2 37.5 -27t-4.5 -47.5t-43 -19.5l-209 21q-18 1 -30.5 15t-12.5 32z" />
<glyph unicode="\" horiz-adv-x="928" d="M106 1211q-6 16 -3 30.5t15.5 23t26 11.5t27 -3.5t20.5 -22.5l630 -1414q12 -27 -4.5 -47t-43 -18.5t-38.5 27.5z" />
<glyph unicode="]" horiz-adv-x="559" d="M115 -338l167 16v1646l-166 17q-17 2 -28 13t-12.5 25t2.5 27.5t17 22t30 6.5l209 -21q18 -1 30 -15t12 -32v-1731q0 -18 -12 -32t-30 -15l-209 -21q-29 -3 -43 19.5t-4.5 47.5t37.5 27z" />
<glyph unicode="^" horiz-adv-x="1020" d="M172 1134l296 451q15 21 39 21q31 -7 39 -20l302 -451q10 -15 9 -30t-11.5 -25.5t-23.5 -15.5t-27.5 -0.5t-24.5 18.5l-262 392l-257 -391q-7 -10 -17 -15.5t-19.5 -5.5t-19.5 3.5t-17 11t-11 16.5t-3 20t8 21z" />
<glyph unicode="_" horiz-adv-x="1939" d="M140 -328q0 19 14 33t34 14h1570q20 0 33.5 -13.5t13.5 -33.5t-13.5 -33.5t-33.5 -13.5h-1570q-20 0 -34 14t-14 33z" />
<glyph unicode="`" horiz-adv-x="649" d="M-11 1408q14 14 33.5 14t33.5 -13l209 -202q14 -13 14.5 -33t-13.5 -34t-33.5 -14t-33.5 13l-209 202q-14 14 -14 33.5t13 33.5z" />
<glyph unicode="a" horiz-adv-x="979" d="M121 220q0 40 11 74t26.5 57t42 42t47 30t53 21t48.5 13.5t43 8.5l320 60v141q0 44 -33 81t-82 57.5t-100 20.5q-46 0 -141 -17.5t-158 -33.5q-17 -4 -30.5 2.5t-19.5 19.5t-6.5 27t8.5 26t26 16q12 4 65.5 16t133 25.5t122.5 13.5q118 0 213.5 -72.5t95.5 -181.5v-667 q0 -20 -14 -33.5t-33 -13.5t-33 13.5t-14 33.5v24q-190 -86 -303 -86q-125 0 -206.5 79.5t-81.5 202.5zM215 220q0 -83 54 -135.5t140 -52.5q41 0 104 18t111 38t88 40v302l-302 -57q-108 -20 -151.5 -54.5t-43.5 -98.5z" />
<glyph unicode="b" horiz-adv-x="1114" d="M180 -1v1263q0 19 14 32.5t34 13.5t33.5 -13.5t13.5 -32.5v-402q165 63 257 63q215 0 336.5 -137.5t121.5 -355.5q0 -219 -121.5 -356t-336.5 -137q-92 0 -257 63v-1q0 -19 -13.5 -33t-33.5 -14t-34 14t-14 33zM275 96q50 -21 130.5 -43t126.5 -22q176 0 270 109.5 t94 289.5q0 179 -94 288.5t-270 109.5q-46 0 -125 -21t-132 -42v-669z" />
<glyph unicode="c" horiz-adv-x="931" d="M123 432q0 146 58.5 258t165.5 173.5t246 61.5q53 0 105.5 -9.5t77 -17.5t28.5 -10q27 -10 29.5 -36.5t-17 -44t-46.5 -6.5l-5 1q-5 2 -13.5 4.5t-20.5 6t-27.5 6.5t-32.5 5.5t-37.5 4t-40.5 1.5q-171 0 -273.5 -108.5t-102.5 -289.5t102.5 -290t273.5 -109q23 0 45 1.5 t39 4t31.5 6t24.5 6.5t17.5 5.5t11.5 3.5l3 2q16 7 30.5 4.5t24 -14t13 -24.5t-2.5 -27.5t-21 -22.5q-78 -39 -216 -39q-211 0 -340.5 136t-129.5 357z" />
<glyph unicode="d" horiz-adv-x="1114" d="M124 429q0 218 121.5 355.5t336.5 137.5q85 0 258 -62v401q0 19 14 33t33 14t33 -14t14 -33v-1263q0 -20 -14 -33.5t-33 -13.5t-33 13.5t-14 33.5v1q-175 -63 -258 -63q-215 0 -336.5 137.5t-121.5 355.5zM218 429q0 -180 94 -289.5t270 -109.5q47 0 126.5 22t131.5 43 v669q-54 21 -132.5 42.5t-125.5 21.5q-176 0 -270 -109.5t-94 -289.5z" />
<glyph unicode="e" horiz-adv-x="1060" d="M128 396v80q0 84 27.5 162.5t79 142t133.5 101.5t183 38q194 0 301 -121.5t107 -341.5q0 -19 -12.5 -32.5t-31.5 -14.5l-692 -40q8 -155 101.5 -246.5t248.5 -92.5q19 0 38 1.5t36 3.5t33 5.5t29 7t25 7t20.5 7t15 6t10.5 3.5l3 2q15 7 30 4.5t23.5 -14.5t12.5 -25.5 t-2.5 -27.5t-22.5 -21q-14 -7 -36.5 -16t-87 -23.5t-127.5 -13.5q-205 2 -325 127.5t-120 331.5zM222 464l642 38q-3 51 -13.5 94.5t-33 87t-56.5 74t-87.5 49.5t-122.5 19q-81 0 -146 -30.5t-104 -81.5t-59 -112t-20 -126v-12z" />
<glyph unicode="f" horiz-adv-x="713" d="M80 734q0 20 14 34t33 14h140l-1 178q-1 158 91.5 253t250.5 95q18 0 35.5 -1t31.5 -2t27.5 -3t23 -3.5t17 -3t11 -2.5t4.5 -1q17 -4 26.5 -16.5t8.5 -26.5t-7 -27t-20 -19.5t-30 -1.5l-4 1q-3 0 -9 1.5t-14.5 3t-19.5 2.5t-23.5 2.5t-27.5 2t-30 0.5q-119 0 -183 -67 t-64 -187v-178h229q20 0 34 -14t14 -34q0 -19 -14 -33t-34 -14h-229l1 -688q0 -19 -14 -33t-33 -14t-33 14t-14 33l-1 688h-140q-19 0 -33 13.5t-14 33.5z" />
<glyph unicode="g" horiz-adv-x="1015" d="M103 -183q0 72 91 217q-69 64 -69 188q0 85 130 185q-66 89 -66 196q-1 133 93.5 225t228.5 92q89 0 168 -48l256 54q25 5 40 -13t8.5 -41t-31.5 -29l-193 -41q75 -95 75 -208q0 -133 -94 -224t-228 -91q-107 0 -196 67q-51 -37 -78.5 -71t-27.5 -53q0 -85 31.5 -116 t83.5 -35l438 -32q49 -4 82 -23.5t48 -53.5t20.5 -66.5t5.5 -75.5q0 -123 -107 -193t-299 -70q-185 0 -297.5 72t-112.5 188zM188 -183q0 -44 28 -79t75.5 -55t104 -30.5t117.5 -10.5q20 0 41 1t54 5t62 11t60 21t53 32t36.5 46t14.5 62q0 72 -15 101t-62 33l-439 32 q-23 2 -48 8q-82 -129 -82 -177zM274 603q0 -99 70 -169t168 -70q48 0 91.5 17.5t75.5 48t51 73.5t19 91q0 65 -32 120.5t-87 88t-119 32.5q-99 0 -168 -67t-69 -165z" />
<glyph unicode="h" horiz-adv-x="1135" d="M180 -3v1265q0 19 14 33t34 14t33.5 -13.5t13.5 -33.5v-477q153 136 327 136q171 0 267 -100t96 -278v-543q0 -20 -13.5 -33.5t-33.5 -13.5t-33.5 13.5t-13.5 33.5v543q0 139 -68.5 211.5t-200.5 72.5q-59 0 -116.5 -19.5t-99.5 -50t-68 -53.5t-43 -44v-663 q0 -19 -13.5 -33t-33.5 -14t-34 14t-14 33z" />
<glyph unicode="i" horiz-adv-x="453" d="M160 1370l34 40q17 21 44 23.5t48 -14.5q20 -17 22.5 -44.5t-14.5 -47.5l-34 -41q-17 -21 -44.5 -23t-47.5 15q-21 18 -23 44.5t15 47.5zM180 0v858q0 20 13.5 34t32.5 14q20 0 34 -14t14 -34v-858q0 -19 -14 -33t-34 -14q-19 0 -32.5 13.5t-13.5 33.5z" />
<glyph unicode="j" horiz-adv-x="454" d="M-133 -443q-29 1 -39.5 25t2.5 47t42 22l6 -1h17.5t21.5 -0.5t22.5 -1t18.5 -0.5q91 0 156.5 53.5t65.5 154.5v1003q0 19 14 33t33 14t33 -14t14 -33v-1003q0 -133 -88 -217.5t-228 -84.5q-12 0 -34 1t-39 1.5t-18 0.5zM153 1372l34 40q17 20 44 22.5t48 -14.5 q20 -17 22.5 -44t-14.5 -48l-34 -40q-17 -21 -44.5 -23t-47.5 15q-21 18 -23 44.5t15 47.5z" />
<glyph unicode="k" horiz-adv-x="972" d="M180 0v1262q0 19 14 33t33.5 14t33.5 -13.5t14 -33.5v-866l518 498q14 14 34 13.5t33 -14.5t12.5 -33.5t-14.5 -33.5l-356 -342l376 -454q15 -19 10.5 -36t-17 -29.5t-32 -12.5t-33.5 17l-372 449l-158 -150v-1l-1 -1v-266q0 -20 -14 -34t-33 -14q-20 0 -34 14t-14 34z " />
<glyph unicode="l" horiz-adv-x="474" d="M190 0v1262q0 20 14 33.5t33 13.5t33 -13.5t14 -33.5v-1262q0 -20 -14 -33.5t-33 -13.5t-33 13.5t-14 33.5z" />
<glyph unicode="m" horiz-adv-x="1652" d="M180 0v858q0 20 14 33.5t33 13.5t33 -13.5t14 -33.5v-63q136 126 278 126q202 0 280 -142q160 142 322 142q326 0 326 -348v-573q0 -19 -14 -33t-34 -14t-33.5 13.5t-13.5 33.5v573q0 133 -54.5 193t-176.5 60q-87 0 -165 -44.5t-123 -89.5q10 -46 10 -119v-573 q0 -20 -14 -33.5t-33 -13.5t-33 13.5t-14 33.5v573q0 131 -55.5 192t-174.5 61q-48 0 -96 -19t-85 -48t-59.5 -51t-37.5 -41v-667q0 -20 -14 -33.5t-33 -13.5t-33 13.5t-14 33.5z" />
<glyph unicode="n" horiz-adv-x="1128" d="M180 0v858q0 20 14 34t33 14t33 -14t14 -34v-74q158 136 332 136q170 0 261 -96.5t91 -277.5v-546q0 -19 -14 -33t-34 -14t-33.5 13.5t-13.5 33.5v546q0 142 -63.5 211t-193.5 69q-61 0 -119.5 -20t-102 -51t-68.5 -53.5t-42 -41.5v-660q0 -20 -14 -33.5t-33 -13.5 t-33 13.5t-14 33.5z" />
<glyph unicode="o" horiz-adv-x="1171" d="M122 426q0 134 57 246.5t164 180t243 67.5q201 0 332.5 -138t131.5 -350q0 -211 -133 -352.5t-331 -141.5q-202 0 -333 138t-131 350zM216 426q0 -171 104.5 -282.5t265.5 -111.5t265 113t104 287q0 171 -104.5 282.5t-264.5 111.5q-165 0 -267.5 -116.5t-102.5 -283.5z " />
<glyph unicode="p" horiz-adv-x="1113" d="M180 -404v1263q0 19 14 33t33 14t33 -14t14 -33v-1q165 63 257 63q216 0 337.5 -137t121.5 -356q0 -218 -121.5 -355t-337.5 -137q-94 0 -257 62v-402q0 -19 -13.5 -32.5t-33.5 -13.5t-33.5 13.5t-13.5 32.5zM274 93q53 -21 132 -42t125 -21q176 0 270 109.5t94 288.5 q0 180 -94 289.5t-270 109.5q-46 0 -125.5 -22t-131.5 -43v-669z" />
<glyph unicode="q" horiz-adv-x="1114" d="M124 428q0 219 121.5 356t336.5 137q90 0 258 -63v1q0 19 14 33t33 14t33 -14t14 -33v-1263q0 -19 -13.5 -32.5t-33.5 -13.5t-33.5 13.5t-13.5 32.5v402q-163 -62 -258 -62q-215 0 -336.5 137t-121.5 355zM218 428q0 -179 94 -288.5t270 -109.5q47 0 126 21t132 42v669 q-52 21 -131.5 43t-126.5 22q-176 0 -270 -109.5t-94 -289.5z" />
<glyph unicode="r" horiz-adv-x="756" d="M180 0v858q0 20 14 34t33 14t33 -14t14 -34v-1q173 65 261 65q78 0 146 -39q23 -17 22.5 -41t-23.5 -39t-48 -1q-43 25 -97 25q-46 0 -125.5 -22t-135.5 -44v-761q0 -20 -14 -33.5t-33 -13.5t-33 13.5t-14 33.5z" />
<glyph unicode="s" horiz-adv-x="872" d="M117 665q0 63 28.5 113.5t76 80.5t104.5 46t118 16q51 0 129 -9.5t127 -21.5q28 -8 33.5 -34t-12 -45.5t-45.5 -11.5q-42 11 -114 19t-118 8q-36 0 -73.5 -8t-75 -24.5t-61 -50t-23.5 -78.5q0 -66 23 -94.5t82 -49.5l270 -95q84 -30 126 -81t42 -152q0 -63 -28.5 -113.5 t-76.5 -81t-105 -46t-118 -15.5q-52 0 -128.5 9t-127.5 22q-27 8 -32.5 33.5t11.5 45.5t45 12q46 -12 116 -20t116 -8q37 0 74 8t75 25t61.5 50.5t23.5 78.5q0 66 -23.5 94.5t-82.5 49.5l-269 95q-84 30 -126 81t-42 152z" />
<glyph unicode="t" horiz-adv-x="779" d="M58 859q0 19 14 33t33 14h163v284q0 20 14 34t34 14t33.5 -14t13.5 -34v-284h257q20 0 34 -14t14 -33t-14 -33t-34 -14h-257v-519q0 -79 14 -131.5t43.5 -80t65 -38t88.5 -10.5q15 0 31.5 2.5t30 6t25 7.5t17.5 7l7 2q26 11 46.5 -6t19 -43.5t-28.5 -37.5 q-96 -32 -148 -32q-79 0 -137 23t-89.5 57t-50.5 84.5t-24 93.5t-5 96v519h-163q-19 0 -33 14t-14 33z" />
<glyph unicode="u" horiz-adv-x="1129" d="M171 312v546q0 20 13.5 33.5t33.5 13.5t34 -14t14 -33v-546q0 -142 63.5 -211t192.5 -69q61 0 120 20t102.5 51t68.5 53.5t42 41.5v660q0 20 13.5 33.5t33.5 13.5t33.5 -13.5t13.5 -33.5v-858q0 -20 -14 -34t-33 -14t-33 14t-14 34v74q-158 -136 -333 -136 q-170 0 -260.5 96.5t-90.5 277.5z" />
<glyph unicode="v" horiz-adv-x="975" d="M66 840q-11 27 5.5 47t42.5 18.5t38 -27.5l336 -761l334 761q12 26 38 27.5t43 -19t6 -46.5l-378 -858q-13 -29 -43 -29q-31 0 -44 29z" />
<glyph unicode="w" horiz-adv-x="1515" d="M81 843q-10 27 8.5 46t44.5 15.5t36 -30.5l257 -739l287 717q5 14 17 22t26 8q32 0 44 -30l287 -717l257 739q10 27 36 30.5t44.5 -15.5t8.5 -46l-298 -858q-12 -32 -44 -32t-44 30l-291 725l-290 -725q-12 -30 -44.5 -29t-43.5 31z" />
<glyph unicode="x" horiz-adv-x="968" d="M98 29l327 408l-303 392q-17 23 -5 47.5t35.5 28t43.5 -17.5l290 -374l300 375q12 15 31.5 17t34.5 -10q15 -13 17 -32t-10 -34l-314 -393l315 -407q12 -16 9.5 -35.5t-17.5 -31.5q-16 -12 -35.5 -9.5t-31.5 18.5l-301 390l-313 -391q-12 -15 -31.5 -17t-34.5 10 q-16 12 -17.5 31.5t10.5 34.5z" />
<glyph unicode="y" horiz-adv-x="959" d="M34 -378q0 20 13.5 33.5t32.5 14.5q123 4 196 53.5t118 158.5l37 90l-358 867q-11 27 6 47t43.5 18t37.5 -29l322 -779l319 781q7 16 20.5 23.5t27 5t26 -10.5t16 -22t-2.5 -31l-407 -995q-55 -136 -152.5 -203.5t-245.5 -67.5q-20 0 -34 13t-15 33z" />
<glyph unicode="z" horiz-adv-x="920" d="M99 864q0 17 12.5 29.5t30.5 12.5h628q23 0 37 -22t-1 -46l-581 -799h560q18 0 30.5 -13t12.5 -31q0 -17 -12.5 -29.5t-30.5 -12.5h-643q-26 0 -38 23.5t3 44.5l580 800h-545q-18 0 -30.5 12.5t-12.5 30.5z" />
<glyph unicode="{" horiz-adv-x="642" d="M77 509q0 24 20 39l255 177l-119 357q-25 77 10 157t107.5 130.5t150.5 50.5q19 0 33 -14t14 -33t-14 -33t-33 -14q-46 0 -94.5 -32.5t-74.5 -83.5t-10 -98l130 -390q12 -34 -17 -54l-228 -159l228 -159q28 -20 18 -53l-131 -416q-21 -66 46 -140.5t136 -74.5 q20 0 33.5 -14t13.5 -33t-13.5 -33t-33.5 -14q-75 0 -147.5 51.5t-110 132t-14.5 153.5l120 383l-255 178q-20 15 -20 39z" />
<glyph unicode="|" horiz-adv-x="462" d="M184 -392v1654q0 20 14 33.5t33 13.5t33 -13.5t14 -33.5v-1654q0 -19 -13.5 -32.5t-33.5 -13.5t-33.5 13.5t-13.5 32.5z" />
<glyph unicode="}" horiz-adv-x="642" d="M91 -381q0 19 13.5 33t33.5 14q69 0 136 74.5t46 140.5l-131 416q-10 33 18 53l228 159l-228 159q-29 20 -17 54l130 390q16 47 -10 98t-74.5 83.5t-94.5 32.5q-19 0 -33 14t-14 33t14 33t33 14q78 0 150.5 -50.5t107.5 -130.5t10 -157l-119 -357l254 -177q21 -15 21 -39 t-21 -39l-254 -178l119 -383q17 -55 -1 -116.5t-59 -109.5t-98 -79.5t-113 -31.5q-20 0 -33.5 14t-13.5 33z" />
<glyph unicode="~" horiz-adv-x="1168" d="M142 398q12 16 27 34t49 53.5t76 63.5t81 39q23 6 46 6t41.5 -4t38.5 -16t33.5 -21.5t32 -27.5t28 -28.5t26.5 -30.5q51 -59 82 -81t68 -12q46 12 98.5 62.5t82.5 92.5q13 17 32.5 18.5t33 -9.5t19 -28t-8.5 -37q-8 -12 -26 -33t-50 -55t-74.5 -62.5t-81.5 -39.5 q-23 -6 -45 -6.5t-40.5 4t-37.5 14.5t-33.5 20.5t-32 27.5t-29 29.5t-28.5 32.5q-50 59 -81.5 81.5t-68.5 12.5q-46 -13 -97.5 -62t-84.5 -93q-11 -16 -30.5 -19t-35.5 8q-16 12 -18.5 31t8.5 35z" />
<glyph unicode="&#xa1;" horiz-adv-x="472" d="M167 850l41 49q17 20 44 22.5t48 -14.5t23 -44.5t-15 -47.5l-41 -49q-17 -21 -44 -23t-48 15q-20 17 -22.5 44t14.5 48zM190 367q0 19 14 33t34 14t33.5 -14t13.5 -33v-766q0 -19 -13.5 -33t-33.5 -14t-34 14t-14 33v766z" />
<glyph unicode="&#xa2;" horiz-adv-x="887" d="M104 438q0 161 92.5 276t242.5 147v292q0 19 13.5 33t33 14t33.5 -14t14 -33v-282q84 2 204 -19q17 -3 27 -14.5t10 -25.5t-5 -27t-18.5 -21t-30.5 -5q-1 1 -28.5 5t-72 8.5t-78.5 4.5q-100 0 -178 -43t-121.5 -120t-43.5 -176q0 -81 22.5 -147t64.5 -111.5t102.5 -70 t134.5 -24.5q42 0 91 8.5t76.5 16.5t28.5 9q27 9 46 -10t15.5 -45t-31.5 -35q-1 0 -8 -2t-18.5 -5.5t-26.5 -7t-34 -7.5t-39 -7.5t-43.5 -5.5t-45.5 -3v-239q0 -20 -14 -34t-33 -14t-33 14t-14 34v246q-153 26 -244 144.5t-91 295.5z" />
<glyph unicode="&#xa3;" horiz-adv-x="1036" d="M80 499q0 19 14 33t34 14h181v345q0 42 12.5 83t35 76t54.5 65.5t69.5 51.5t81 33t88.5 12q24 0 48 -1.5t41.5 -4t31 -5t21.5 -4l8 -1.5q17 -4 26 -16t8.5 -26.5t-7 -27t-20 -19.5t-30.5 -3q0 1 -15.5 4t-47 6.5t-64.5 3.5q-97 0 -172 -69t-75 -158v-345h297 q20 0 33.5 -14t13.5 -33t-13.5 -33t-33.5 -14h-297l1 -404h516q20 0 34 -14t14 -34q0 -19 -14 -33t-34 -14h-743q-19 0 -33 13.5t-14 33.5t14 34t33 14h132v404h-181q-20 0 -34 14t-14 33z" />
<glyph unicode="&#xa4;" horiz-adv-x="1174" d="M114 311q1 20 15 33t34 12l641 -22q29 -1 40 -25t-1.5 -47t-41.5 -22l-413 14v-190q0 -54 29.5 -90.5t77 -52.5t86 -21.5t77.5 -5.5q59 0 132.5 14t116 27t44.5 15q27 9 46 -9.5t15.5 -44.5t-30.5 -36l-8 -2q-8 -3 -19 -6.5t-27 -8t-35 -9.5t-40.5 -10t-45.5 -9 t-48.5 -7.5t-50.5 -5.5t-50 -2q-169 0 -266.5 71t-97.5 193v194l-134 4q-19 1 -32.5 15t-13.5 34zM114 630q0 13 6 24t16.5 18t23.5 7l134 4v185q0 43 8.5 80t33 76t63 66t104.5 44.5t152 17.5q44 0 96 -3.5t93.5 -8t79 -9.5t57.5 -8.5t24 -4.5q17 -3 27 -14.5t10 -25.5 t-5 -27t-18 -20.5t-30 -4.5l-11 2t-30 4.5t-44 6t-55.5 7t-62 6t-66 4.5t-65.5 2q-57 0 -101.5 -7.5t-73 -22.5t-47.5 -32t-28.5 -40t-13 -43t-3.5 -45v-181l402 13q29 1 41.5 -22t2 -47t-39.5 -25l-631 -22q-20 -1 -34 12.5t-15 33.5z" />
<glyph unicode="&#xa5;" horiz-adv-x="1100" d="M107 1010q-16 21 -5.5 42.5t32 25t40.5 -14.5l364 -458l407 459q17 19 40.5 13t30.5 -26.5t-8 -42.5l-429 -484v-101h289q18 0 30.5 -12.5t12.5 -29.5q0 -18 -12.5 -30.5t-30.5 -12.5h-671q-17 0 -29.5 12.5t-12.5 30.5q0 17 12.5 29.5t29.5 12.5h297v101zM155 85 q0 17 12.5 29.5t29.5 12.5h671q12 0 22 -5.5t15.5 -15.5t5.5 -21q0 -18 -12.5 -30.5t-30.5 -12.5h-289v-173q0 -17 -12.5 -29.5t-29.5 -12.5q-18 0 -30.5 12.5t-12.5 29.5v173h-297q-11 0 -21 5.5t-15.5 15.5t-5.5 22z" />
<glyph unicode="&#xa6;" horiz-adv-x="477" d="M191 212q0 20 13.5 33.5t33.5 13.5t34 -14t14 -33v-495q0 -19 -14 -33t-34 -14t-33.5 14t-13.5 33v495zM191 655v495q0 19 13.5 32.5t33.5 13.5t34 -13.5t14 -32.5v-495q0 -19 -14 -33t-34 -14t-33.5 14t-13.5 33z" />
<glyph unicode="&#xa7;" horiz-adv-x="1034" d="M92 813q3 225 137 355t353 128q102 0 242 -32q17 -4 26.5 -16t9 -26.5t-6.5 -27.5t-19.5 -19.5t-30.5 -2.5q-135 30 -221 30q-159 2 -258 -76l440 -562q72 -92 124.5 -212.5t51.5 -221.5q-1 -147 -63 -257.5t-172 -169t-253 -57.5q-102 1 -240 31q-17 3 -27 15t-9.5 26 t6 27t19 20t30.5 4q134 -28 219 -28q161 -2 258 76l-439 562q-71 90 -124.5 213t-52.5 221zM186 812q-1 -56 24 -129t60 -135.5t73 -110.5l430 -550q73 102 73 243q1 84 -47 191t-109 185l-431 550q-71 -101 -73 -244z" />
<glyph unicode="&#xa8;" horiz-adv-x="842" d="M157 1277l34 40q17 21 44 23t48 -15q20 -17 22.5 -44t-14.5 -48l-34 -40q-17 -21 -44.5 -23t-47.5 15q-21 17 -23 44t15 48zM562 1277l34 40q17 21 44 23t48 -15q20 -17 22.5 -44t-14.5 -48l-34 -40q-18 -21 -45 -23t-47 15q-21 17 -23.5 44t15.5 48z" />
<glyph unicode="&#xa9;" horiz-adv-x="1572" d="M120 477q0 181 89.5 334.5t242.5 243t334 89.5t334.5 -89.5t243 -243t89.5 -334.5t-89.5 -334.5t-243 -243t-334.5 -89.5q-180 0 -333.5 89.5t-243 243t-89.5 334.5zM214 477q0 -116 45.5 -222t122 -182.5t182.5 -122t222 -45.5q155 0 287 76.5t209 208.5t77 287t-77 287 t-209 209t-287 77t-287 -77t-208.5 -209t-76.5 -287zM479 471q0 147 88 237.5t231 90.5q56 0 140 -33q20 -8 27 -26t1 -34.5t-22 -26t-36 -2.5q-7 2 -21.5 8t-22 8.5t-19.5 5.5t-23 4.5t-24 1.5q-102 0 -163.5 -64t-61.5 -170t61.5 -169.5t163.5 -63.5q13 0 24 1t23 4.5 t19.5 6t22 7.5t21.5 8q27 9 45.5 -9t15 -43.5t-30.5 -36.5q-84 -33 -140 -33q-143 0 -231 90.5t-88 237.5z" />
<glyph unicode="&#xaa;" horiz-adv-x="800" d="M146 585q0 26 7.5 47.5t18 36.5t28.5 28t33 20.5t38 15t36 10.5t34 7l182 37v84q0 38 -47 66.5t-100 28.5q-54 0 -168 -33q-22 -7 -36 8.5t-10.5 36.5t25.5 28l15 4q14 4 34.5 9t44.5 10t50 8.5t45 3.5q86 0 154.5 -48.5t68.5 -121.5v-427q0 -15 -11 -26.5t-27 -11.5 t-27 11.5t-11 26.5q-92 -47 -169 -47q-90 0 -149 53t-59 135zM222 585q0 -33 16.5 -59t46.5 -40t69 -14q69 0 169 57v181l-167 -34q-74 -15 -104 -33.5t-30 -57.5z" />
<glyph unicode="&#xab;" horiz-adv-x="1268" d="M115 430q0 21 16 35l379 327q22 18 46.5 7.5t29.5 -34t-15 -44.5l-337 -291l337 -292q22 -19 15 -45t-30 -34t-46 8l-379 327q-16 14 -16 36zM661 430q0 21 16 35l379 327q15 13 34 11t32 -16q13 -15 11.5 -34t-15.5 -32l-338 -291l338 -292q14 -13 15.5 -32t-11.5 -34 q-13 -14 -32 -16t-34 11l-379 327q-16 14 -16 36z" />
<glyph unicode="&#xac;" horiz-adv-x="1056" d="M158 429q0 20 14 33.5t34 13.5h644q20 0 34 -13.5t14 -33.5v-351q0 -19 -14 -32.5t-34 -13.5t-33.5 13.5t-13.5 32.5v304h-597q-20 0 -34 14t-14 33z" />
<glyph unicode="&#xad;" horiz-adv-x="856" d="M160 429q0 19 14 33t33 14h442q19 0 33 -14t14 -33t-14 -33t-33 -14h-442q-20 0 -33.5 13.5t-13.5 33.5z" />
<glyph unicode="&#xae;" horiz-adv-x="1335" d="M134 665q0 145 71.5 267.5t194.5 194t268 71.5t267.5 -71.5t194 -194t71.5 -267.5t-71.5 -267.5t-194 -194t-267.5 -71.5t-268 71.5t-194.5 194t-71.5 267.5zM210 665q0 -189 134.5 -323.5t323.5 -134.5t323.5 134.5t134.5 323.5q0 124 -61.5 229.5t-167 167t-229.5 61.5 t-229.5 -61.5t-167 -167t-61.5 -229.5zM491 437v459q0 16 12 27.5t28 11.5h158q38 0 77.5 -18t69.5 -59.5t30 -97.5q0 -55 -30.5 -99.5t-79.5 -65.5l96 -136q13 -19 2.5 -38t-29.5 -21t-35 15l-116 166h-108v-144q0 -16 -11 -26.5t-27 -10.5q-15 0 -26 10.5t-11 26.5z M566 656h121q43 0 73 30.5t30 73.5q0 49 -34 74t-67 25h-123v-203z" />
<glyph unicode="&#xaf;" horiz-adv-x="767" d="M160 1193q0 18 12 30t29 12h383q17 0 29 -12t12 -30q0 -17 -12 -29.5t-29 -12.5h-383q-17 0 -29 12.5t-12 29.5z" />
<glyph unicode="&#xb0;" horiz-adv-x="886" d="M117 1135q0 135 96 231t231 96t230.5 -96t95.5 -231t-95.5 -231t-230.5 -96t-231 96t-96 231zM211 1135q0 -96 68 -164.5t165 -68.5q96 0 164 68.5t68 164.5t-68 164.5t-164 68.5q-97 0 -165 -68.5t-68 -164.5z" />
<glyph unicode="&#xb1;" horiz-adv-x="1029" d="M108 592q0 20 14 33.5t33 13.5h313v339q0 20 14 34t33 14t33 -14t14 -34v-339h313q19 0 33 -13.5t14 -33.5t-14 -33.5t-33 -13.5h-313v-331q0 -20 -13.5 -34t-33.5 -14t-33.5 14t-13.5 34v331h-313q-19 0 -33 13.5t-14 33.5zM149 -90q0 20 13.5 33.5t33.5 13.5h638 q20 0 33.5 -13.5t13.5 -33.5t-14 -34t-33 -14h-638q-19 0 -33 14t-14 34z" />
<glyph unicode="&#xb3;" horiz-adv-x="1664" />
<glyph unicode="&#xb4;" horiz-adv-x="641" d="M423 1140q-14 13 -13.5 33t14.5 33l205 203q13 14 33 13.5t34 -14.5q14 -13 13.5 -33t-14.5 -33l-205 -203q-14 -14 -33.5 -13.5t-33.5 14.5z" />
<glyph unicode="&#xb5;" horiz-adv-x="1086" d="M169 859q0 23 13 35t35 12q19 0 33 -14t14 -33v-626q0 -104 78.5 -152t238.5 -48q86 0 154 35t136 101v690q0 19 13.5 33t33.5 14t33.5 -14t13.5 -33v-858q0 -19 -13.5 -33t-33.5 -14t-33.5 14t-13.5 33v40q-134 -103 -290 -103q-212 0 -317 88v-429q0 -19 -14 -33 t-33 -14t-33 14t-14 33z" />
<glyph unicode="&#xb6;" horiz-adv-x="1069" d="M74 628q0 192 124 301t319 109h317q19 0 33.5 -14t14.5 -33v-1131q0 -117 -95 -205.5t-221 -88.5q-75 0 -180 42q-26 11 -29 37.5t16.5 44t46.5 6.5q88 -35 146 -35q87 0 154 60.5t67 138.5v370l-286 -22q-115 -9 -214.5 49t-156 157.5t-56.5 213.5z" />
<glyph unicode="&#xb7;" horiz-adv-x="490" d="M175 447l41 48q18 21 44.5 23.5t47.5 -15.5q21 -17 23.5 -44t-15.5 -48l-41 -48q-18 -21 -44.5 -23t-47.5 15t-23.5 44t15.5 48z" />
<glyph unicode="&#xb8;" horiz-adv-x="554" d="M188 -391q0 19 14 33t33 14q105 0 134 55q21 40 3.5 106t-68.5 141q-11 16 -7.5 35t19.5 30q17 11 36 7.5t30 -20.5q68 -99 86 -188.5t-16 -154.5q-55 -105 -217 -105q-19 0 -33 14t-14 33z" />
<glyph unicode="&#xba;" horiz-adv-x="946" d="M169 716q0 139 87 232t217 93q133 0 219 -90.5t86 -229.5t-87 -231.5t-218 -92.5q-132 0 -218 90t-86 229zM244 716q0 -106 64.5 -175t164.5 -69t164.5 70.5t64.5 178.5q0 107 -64.5 176t-164.5 69t-164.5 -70.5t-64.5 -179.5z" />
<glyph unicode="&#xbb;" horiz-adv-x="1267" d="M149 138l337 292l-337 291q-13 11 -16 26t4 27.5t18 21t26.5 8t28.5 -11.5l379 -327q16 -14 16 -35q0 -22 -16 -36l-379 -327q-21 -19 -46 -8t-30 34.5t15 44.5zM695 138l337 292l-337 291q-13 11 -16 26t4.5 27.5t18.5 21t26 8t28 -11.5l379 -327q17 -14 17 -35 q0 -22 -17 -36l-379 -327q-13 -11 -28 -11.5t-26 8t-18.5 20.5t-4.5 27.5t16 26.5z" />
<glyph unicode="&#xbf;" horiz-adv-x="911" d="M156 -111q0 37 6 70.5t15 59.5t26 50.5t32.5 42t41 35.5t44.5 30t50.5 26.5t52.5 23t56 22.5v119q0 19 13.5 32.5t33.5 13.5t33.5 -13.5t13.5 -32.5v-140q0 -42 -29 -54l-23 -10q-5 -2 -15 -7q-64 -27 -92.5 -41t-68 -39t-55.5 -48t-28.5 -58.5t-12.5 -81.5 q0 -55 17.5 -99.5t46.5 -73.5t68 -48t81 -27.5t87 -8.5q68 0 128 9t86 19l26 9q26 12 47 -4.5t20 -42.5t-27 -38q-10 -5 -34.5 -13.5t-95.5 -21t-150 -12.5q-72 0 -139 19.5t-125.5 59t-94 110t-35.5 163.5zM456 850l41 48q18 21 45 23t47 -15q21 -18 23.5 -44.5 t-15.5 -47.5l-41 -48q-18 -21 -44.5 -23t-47.5 15t-23.5 44t15.5 48z" />
<glyph unicode="&#xc0;" d="M65 18l486 1254q12 30 44 30q14 0 26.5 -8.5t17.5 -21.5l504 -1254q11 -26 -6.5 -45.5t-44 -18t-37.5 28.5l-144 358h-620l-138 -357q-11 -27 -37.5 -29.5t-44 17t-6.5 46.5zM328 435h546l-278 691zM412 1793q14 14 33.5 14t33.5 -13l209 -202q14 -13 14.5 -33t-13.5 -34 t-33.5 -14t-33.5 13l-209 202q-14 14 -14 33.5t13 33.5z" />
<glyph unicode="&#xc1;" d="M65 18l486 1254q12 30 44 30q14 0 26.5 -8.5t17.5 -21.5l504 -1254q11 -26 -6.5 -45.5t-44 -18t-37.5 28.5l-144 358h-620l-138 -357q-11 -27 -37.5 -29.5t-44 17t-6.5 46.5zM328 435h546l-278 691zM507 1525q-14 13 -13.5 33t14.5 33l205 203q13 14 33 13.5t34 -14.5 q14 -13 13.5 -33t-14.5 -33l-205 -203q-14 -14 -33.5 -13.5t-33.5 14.5z" />
<glyph unicode="&#xc2;" d="M65 18l486 1254q12 30 44 30q14 0 26.5 -8.5t17.5 -21.5l504 -1254q11 -26 -6.5 -45.5t-44 -18t-37.5 28.5l-144 358h-620l-138 -357q-11 -27 -37.5 -29.5t-44 17t-6.5 46.5zM328 435h546l-278 691zM361 1599l205 203q14 14 33 14t33 -14l209 -202q14 -14 14 -33.5 t-13 -33.5q-14 -14 -33.5 -14t-33.5 13l-176 170l-172 -170q-13 -12 -28 -13t-27 6.5t-19.5 19.5t-6 27t14.5 27z" />
<glyph unicode="&#xc3;" d="M65 18l486 1254q12 30 44 30q14 0 26.5 -8.5t17.5 -21.5l504 -1254q11 -26 -6.5 -45.5t-44 -18t-37.5 28.5l-144 358h-620l-138 -357q-11 -27 -37.5 -29.5t-44 17t-6.5 46.5zM312 1618q5 7 12.5 16.5t25.5 28.5t36 35t42.5 31.5t47.5 21.5q18 5 35 4.5t30.5 -3.5 t28.5 -11t25 -15t23 -20t19.5 -20.5t18.5 -20.5q31 -37 48.5 -49.5t35.5 -8.5q26 7 58 37t55 61q11 16 30.5 18.5t34.5 -8.5q16 -11 19 -30.5t-8 -35.5l-4.5 -5.5t-8.5 -10.5t-11.5 -13.5t-14 -15.5t-16.5 -16.5t-19 -17.5t-20.5 -16.5t-22.5 -15.5t-23 -12.5t-24 -8.5 q-17 -5 -33 -5t-29.5 2.5t-27 9.5t-24.5 14.5t-23.5 19t-21.5 21.5t-21 24q-32 37 -49 49.5t-35 7.5q-17 -5 -40 -23t-41.5 -37t-31.5 -37q-10 -14 -24.5 -17.5t-27.5 2t-23 16t-10.5 25t9.5 29.5zM328 435h546l-278 691z" />
<glyph unicode="&#xc4;" d="M65 18l486 1254q12 30 44 30q14 0 26.5 -8.5t17.5 -21.5l504 -1254q11 -26 -6.5 -45.5t-44 -18t-37.5 28.5l-144 358h-620l-138 -357q-11 -27 -37.5 -29.5t-44 17t-6.5 46.5zM328 435h546l-278 691zM332 1662l34 40q17 21 44 23t48 -15q20 -17 22.5 -44t-14.5 -48 l-34 -40q-17 -21 -44.5 -23t-47.5 15q-21 17 -23 44t15 48zM737 1662l34 40q17 21 44 23t48 -15q20 -17 22.5 -44t-14.5 -48l-34 -40q-18 -21 -45 -23t-47 15q-21 17 -23.5 44t15.5 48z" />
<glyph unicode="&#xc5;" d="M65 18l486 1254q12 30 44 30q14 0 26.5 -8.5t17.5 -21.5l504 -1254q11 -26 -6.5 -45.5t-44 -18t-37.5 28.5l-144 358h-620l-138 -357q-11 -27 -37.5 -29.5t-44 17t-6.5 46.5zM328 435h546l-278 691zM407 1694q0 80 57 137t137 57t137 -57t57 -137t-57 -137t-137 -57 t-137 57t-57 137zM483 1694q0 -49 34.5 -83.5t83.5 -34.5q48 0 82.5 34.5t34.5 83.5q0 48 -34.5 82.5t-82.5 34.5q-49 0 -83.5 -34.5t-34.5 -82.5z" />
<glyph unicode="&#xc6;" horiz-adv-x="1730" d="M41 22l636 1254q13 26 42 26h867q10 0 18.5 -4t15 -10.5t10 -15t3.5 -18.5q0 -20 -13.5 -33.5t-33.5 -13.5h-616v-536h528q20 0 33.5 -14t13.5 -33q0 -13 -6.5 -24t-17 -17.5t-23.5 -6.5h-528v-529h600q20 0 33.5 -14t13.5 -33.5t-13.5 -33t-33.5 -13.5h-647 q-19 0 -33 13.5t-14 33.5v382h-547l-204 -403q-8 -15 -22 -21t-27.5 -2.5t-25 12.5t-14 23.5t4.5 30.5zM377 476h499v731h-128z" />
<glyph unicode="&#xc7;" horiz-adv-x="1190" d="M131 627q0 208 79 364t224.5 240.5t339.5 84.5q145 0 292 -55q27 -10 30 -36t-16 -44t-46 -8q-135 49 -260 49q-254 0 -401.5 -160t-147.5 -435t147.5 -435t401.5 -160q129 0 260 49q27 10 46 -8t16 -44.5t-30 -36.5q-146 -54 -292 -54h-5q84 -163 27 -271 q-55 -105 -217 -105q-19 0 -33 14t-14 33t14 33t33 14q105 0 134 55q20 38 4.5 101t-62.5 135q-242 37 -383 218.5t-141 461.5z" />
<glyph unicode="&#xc8;" horiz-adv-x="1064" d="M209 0v1254q0 20 14 34t33 14h663q19 0 33 -14t14 -34t-14 -33.5t-33 -13.5h-615v-533h527q19 0 33 -14t14 -33t-14 -33t-33 -14h-527v-533h599q19 0 33 -13.5t14 -33.5t-14 -33.5t-33 -13.5h-647q-20 0 -33.5 13.5t-13.5 33.5zM371 1793q14 14 33.5 14t33.5 -13 l209 -202q14 -13 14.5 -33t-13.5 -34t-33.5 -14t-33.5 13l-209 202q-14 14 -14 33.5t13 33.5z" />
<glyph unicode="&#xc9;" horiz-adv-x="1064" d="M209 0v1254q0 20 14 34t33 14h663q19 0 33 -14t14 -34t-14 -33.5t-33 -13.5h-615v-533h527q19 0 33 -14t14 -33t-14 -33t-33 -14h-527v-533h599q19 0 33 -13.5t14 -33.5t-14 -33.5t-33 -13.5h-647q-20 0 -33.5 13.5t-13.5 33.5zM547 1525q-14 13 -13.5 33t14.5 33 l205 203q13 14 33 13.5t34 -14.5q14 -13 13.5 -33t-14.5 -33l-205 -203q-14 -14 -33.5 -13.5t-33.5 14.5z" />
<glyph unicode="&#xca;" horiz-adv-x="1064" d="M209 0v1254q0 20 14 34t33 14h663q19 0 33 -14t14 -34t-14 -33.5t-33 -13.5h-615v-533h527q19 0 33 -14t14 -33t-14 -33t-33 -14h-527v-533h599q19 0 33 -13.5t14 -33.5t-14 -33.5t-33 -13.5h-647q-20 0 -33.5 13.5t-13.5 33.5zM346 1599l205 203q13 14 32.5 14t33.5 -14 l209 -202q14 -14 14 -33.5t-13 -33.5q-14 -14 -33.5 -14t-33.5 13l-176 170l-172 -170q-21 -20 -46.5 -10.5t-32 32.5t12.5 45z" />
<glyph unicode="&#xcb;" horiz-adv-x="1064" d="M209 0v1254q0 20 14 34t33 14h663q19 0 33 -14t14 -34t-14 -33.5t-33 -13.5h-615v-533h527q19 0 33 -14t14 -33t-14 -33t-33 -14h-527v-533h599q19 0 33 -13.5t14 -33.5t-14 -33.5t-33 -13.5h-647q-20 0 -33.5 13.5t-13.5 33.5zM338 1662l34 40q17 21 44 23t48 -15 q20 -17 22.5 -44t-14.5 -48l-34 -40q-17 -21 -44.5 -23t-47.5 15q-21 17 -23 44t15 48zM743 1662l34 40q17 21 44 23t48 -15q20 -17 22.5 -44t-14.5 -48l-34 -40q-18 -21 -45 -23t-47 15q-21 17 -23.5 44t15.5 48z" />
<glyph unicode="&#xcc;" horiz-adv-x="512" d="M69 1793q14 14 33.5 14t33.5 -13l209 -202q14 -13 14.5 -33t-13.5 -34t-33.5 -14t-33.5 13l-209 202q-14 14 -14 33.5t13 33.5zM209 0v1254q0 20 14 34t33 14q20 0 34 -14t14 -34v-1254q0 -19 -14 -33t-34 -14t-33.5 13.5t-13.5 33.5z" />
<glyph unicode="&#xcd;" horiz-adv-x="512" d="M183 1525q-14 13 -13.5 33t14.5 33l205 203q13 14 33 13.5t34 -14.5q14 -13 13.5 -33t-14.5 -33l-205 -203q-14 -14 -33.5 -13.5t-33.5 14.5zM209 0v1254q0 20 14 34t33 14q20 0 34 -14t14 -34v-1254q0 -19 -14 -33t-34 -14t-33.5 13.5t-13.5 33.5z" />
<glyph unicode="&#xce;" horiz-adv-x="512" d="M19 1599l205 203q14 14 33 14t33 -14l209 -202q14 -14 14 -33.5t-13 -33.5q-14 -14 -33.5 -14t-33.5 13l-176 170l-172 -170q-21 -20 -46.5 -10.5t-32 32.5t12.5 45zM209 0v1254q0 20 14 34t33 14q20 0 34 -14t14 -34v-1254q0 -19 -14 -33t-34 -14t-33.5 13.5t-13.5 33.5 z" />
<glyph unicode="&#xcf;" horiz-adv-x="512" d="M-11 1662l34 40q17 21 44 23t48 -15q20 -17 22.5 -44t-14.5 -48l-34 -40q-17 -21 -44.5 -23t-47.5 15q-21 17 -23 44t15 48zM209 0v1254q0 20 14 34t33 14q20 0 34 -14t14 -34v-1254q0 -19 -14 -33t-34 -14t-33.5 13.5t-13.5 33.5zM394 1662l34 40q17 21 44 23t48 -15 q20 -17 22.5 -44t-14.5 -48l-34 -40q-18 -21 -45 -23t-47 15q-21 17 -23.5 44t15.5 48z" />
<glyph unicode="&#xd0;" horiz-adv-x="1380" d="M57 632q0 20 13.5 33.5t33.5 13.5h120v575q0 20 14 34t33 14h281q105 0 202 -21.5t188.5 -71.5t158.5 -124.5t107.5 -189t40.5 -255.5q0 -200 -85 -356.5t-239 -243.5t-350 -87h-304q-19 0 -33 13.5t-14 33.5v585h-120q-20 0 -33.5 13.5t-13.5 33.5zM318 47h257 q88 0 171 22t157.5 69t130 115.5t88.5 168t33 218.5q0 108 -26.5 196.5t-67.5 146t-99 101t-112.5 66.5t-116 36.5t-102 17t-78.5 3.5h-235v-528h244q20 0 34 -14t14 -33t-14 -33t-34 -14h-244v-538z" />
<glyph unicode="&#xd1;" horiz-adv-x="1404" d="M209 0v1254q0 21 15.5 34.5t36 12t33.5 -19.5l807 -1133v1106q0 20 13.5 33.5t33.5 13.5t33.5 -13.5t13.5 -33.5v-1254q0 -32 -33 -43.5t-53 16.5l-806 1133v-1106q0 -20 -13.5 -33.5t-33.5 -13.5t-33.5 13.5t-13.5 33.5zM447 1618q7 10 18.5 23.5t35 38t53 44t57.5 27.5 q18 5 35 4.5t30.5 -3.5t28.5 -11t25 -15t23 -20t19.5 -20.5t18.5 -20.5q31 -37 48.5 -49.5t35.5 -8.5q18 5 41 23t40.5 37t31.5 38q11 16 30.5 18.5t34.5 -8.5q16 -11 19 -30.5t-8 -35.5l-4.5 -5.5t-8.5 -10.5t-11.5 -13.5t-14 -15.5t-16.5 -16.5t-19 -17.5t-20.5 -16.5 t-22.5 -15.5t-23 -12.5t-24 -8.5q-17 -5 -33 -5t-29.5 2.5t-27 9.5t-24.5 14.5t-23.5 19t-21.5 21.5t-21 24q-32 37 -49 49.5t-35 7.5q-17 -5 -40 -23t-41.5 -37t-31.5 -37q-10 -14 -24.5 -18t-27.5 2t-23 16.5t-10.5 25t9.5 29.5z" />
<glyph unicode="&#xd2;" horiz-adv-x="1524" d="M129 636q0 194 81.5 349.5t226.5 242.5t326 87t326 -87t226.5 -242.5t81.5 -349.5q0 -138 -45 -264.5t-125.5 -222.5t-201 -153.5t-262.5 -57.5q-178 0 -323.5 91t-228 251t-82.5 356zM223 636q0 -170 70.5 -308.5t194 -217t275.5 -78.5q122 0 225 50t171 133.5 t105.5 192.5t37.5 228q0 167 -69 301t-192.5 209t-277.5 75q-235 0 -387.5 -165.5t-152.5 -419.5zM554 1793q14 14 33.5 14t33.5 -13l209 -202q14 -13 14.5 -33t-13.5 -34t-33.5 -14t-33.5 13l-209 202q-14 14 -14 33.5t13 33.5z" />
<glyph unicode="&#xd3;" horiz-adv-x="1524" d="M129 636q0 194 81.5 349.5t226.5 242.5t326 87t326 -87t226.5 -242.5t81.5 -349.5q0 -138 -45 -264.5t-125.5 -222.5t-201 -153.5t-262.5 -57.5q-178 0 -323.5 91t-228 251t-82.5 356zM223 636q0 -170 70.5 -308.5t194 -217t275.5 -78.5q122 0 225 50t171 133.5 t105.5 192.5t37.5 228q0 167 -69 301t-192.5 209t-277.5 75q-235 0 -387.5 -165.5t-152.5 -419.5zM693 1525q-14 13 -13.5 33t14.5 33l205 203q13 14 33 13.5t34 -14.5q14 -13 13.5 -33t-14.5 -33l-205 -203q-14 -14 -33.5 -13.5t-33.5 14.5z" />
<glyph unicode="&#xd4;" horiz-adv-x="1524" d="M129 636q0 194 81.5 349.5t226.5 242.5t326 87t326 -87t226.5 -242.5t81.5 -349.5q0 -138 -45 -264.5t-125.5 -222.5t-201 -153.5t-262.5 -57.5q-178 0 -323.5 91t-228 251t-82.5 356zM223 636q0 -170 70.5 -308.5t194 -217t275.5 -78.5q122 0 225 50t171 133.5 t105.5 192.5t37.5 228q0 167 -69 301t-192.5 209t-277.5 75q-235 0 -387.5 -165.5t-152.5 -419.5zM519 1599l205 203q14 14 33 14t33 -14l209 -202q14 -14 14 -33.5t-13 -33.5q-14 -14 -33.5 -14t-33.5 13l-176 170l-172 -170q-21 -20 -46.5 -10.5t-32 32.5t12.5 45z" />
<glyph unicode="&#xd5;" horiz-adv-x="1524" d="M129 636q0 194 81.5 349.5t226.5 242.5t326 87t326 -87t226.5 -242.5t81.5 -349.5q0 -138 -45 -264.5t-125.5 -222.5t-201 -153.5t-262.5 -57.5q-178 0 -323.5 91t-228 251t-82.5 356zM223 636q0 -170 70.5 -308.5t194 -217t275.5 -78.5q122 0 225 50t171 133.5 t105.5 192.5t37.5 228q0 167 -69 301t-192.5 209t-277.5 75q-235 0 -387.5 -165.5t-152.5 -419.5zM480 1618q7 10 18.5 23.5t35 38t53 44t57.5 27.5q18 5 35 4.5t30.5 -3.5t28.5 -11t25 -15t23 -20t19.5 -20.5t18.5 -20.5q31 -37 48.5 -49.5t35.5 -8.5q26 7 58 37t55 61 q11 16 30.5 18.5t34.5 -8.5q16 -11 19 -30.5t-8 -35.5q-92 -112 -164 -132q-54 -15 -94.5 9t-85.5 77q-32 37 -49 49.5t-35 7.5q-25 -7 -58 -37t-55 -60q-10 -14 -24.5 -18t-27.5 2t-23 16.5t-10.5 25t9.5 29.5z" />
<glyph unicode="&#xd6;" horiz-adv-x="1524" d="M129 636q0 194 81.5 349.5t226.5 242.5t326 87t326 -87t226.5 -242.5t81.5 -349.5q0 -138 -45 -264.5t-125.5 -222.5t-201 -153.5t-262.5 -57.5q-178 0 -323.5 91t-228 251t-82.5 356zM223 636q0 -170 70.5 -308.5t194 -217t275.5 -78.5q122 0 225 50t171 133.5 t105.5 192.5t37.5 228q0 167 -69 301t-192.5 209t-277.5 75q-235 0 -387.5 -165.5t-152.5 -419.5zM509 1662l34 40q17 21 44 23t48 -15q20 -17 22.5 -44t-14.5 -48l-34 -40q-17 -21 -44.5 -23t-47.5 15q-21 17 -23 44t15 48zM914 1662l34 40q17 21 44 23t48 -15 q20 -17 22.5 -44t-14.5 -48l-34 -40q-18 -21 -45 -23t-47 15q-21 17 -23.5 44t15.5 48z" />
<glyph unicode="&#xd7;" horiz-adv-x="955" d="M152 144l262 285l-262 285q-26 28 -3 58q20 27 50 20q13 -3 23 -14l255 -279l256 279q11 13 26.5 15t27.5 -5t20 -18.5t7.5 -27t-12.5 -28.5l-261 -285l261 -285q12 -13 13 -28t-7.5 -26.5t-20.5 -18.5t-27.5 -5t-26.5 15l-256 279l-255 -279q-15 -16 -34.5 -15.5 t-31.5 13t-16 30t12 35.5z" />
<glyph unicode="&#xd8;" horiz-adv-x="1525" d="M129 638q0 194 81.5 349.5t226.5 242.5t326 87q224 0 390 -133l112 138q12 15 31.5 16.5t34.5 -10.5t17 -31.5t-10 -34.5l-116 -142q175 -193 175 -482q0 -197 -82.5 -357t-228 -251t-323.5 -91q-219 0 -386 137l-115 -141q-12 -15 -31.5 -17t-34.5 10t-17 31.5t10 34.5 l119 148q-85 94 -132 222t-47 274zM224 638q0 -170 70.5 -308.5t194 -217.5t274.5 -79q152 0 275.5 79t194 217.5t70.5 308.5q0 167 -69.5 300.5t-193 208.5t-277.5 75t-277.5 -75t-192.5 -208.5t-69 -300.5z" />
<glyph unicode="&#xd9;" horiz-adv-x="1456" d="M194 554v699q0 19 14 33t33 14t33 -14t14 -33v-699q0 -242 118 -382t322 -140q203 0 321.5 140.5t118.5 381.5v699q0 19 14 33t33 14t33 -14t14 -33v-699q0 -280 -145.5 -448t-388.5 -168q-244 0 -389 167.5t-145 448.5zM521 1793q14 14 33.5 14t33.5 -13l209 -202 q14 -13 14.5 -33t-13.5 -34t-33.5 -14t-33.5 13l-209 202q-14 14 -14 33.5t13 33.5z" />
<glyph unicode="&#xda;" horiz-adv-x="1456" d="M194 554v699q0 19 14 33t33 14t33 -14t14 -33v-699q0 -242 118 -382t322 -140q203 0 321.5 140.5t118.5 381.5v699q0 19 14 33t33 14t33 -14t14 -33v-699q0 -280 -145.5 -448t-388.5 -168q-244 0 -389 167.5t-145 448.5zM661 1525q-14 13 -13.5 33t14.5 33l205 203 q13 14 33 13.5t34 -14.5q14 -13 13.5 -33t-14.5 -33l-205 -203q-14 -14 -33.5 -13.5t-33.5 14.5z" />
<glyph unicode="&#xdb;" horiz-adv-x="1456" d="M194 554v699q0 19 14 33t33 14t33 -14t14 -33v-699q0 -242 118 -382t322 -140q203 0 321.5 140.5t118.5 381.5v699q0 19 14 33t33 14t33 -14t14 -33v-699q0 -280 -145.5 -448t-388.5 -168q-244 0 -389 167.5t-145 448.5zM485 1599l205 203q14 14 33 14t33 -14l209 -202 q14 -14 14 -33.5t-13 -33.5q-14 -14 -33.5 -14t-33.5 13l-176 170l-172 -170q-21 -20 -46.5 -10.5t-32 32.5t12.5 45z" />
<glyph unicode="&#xdc;" horiz-adv-x="1456" d="M194 554v699q0 19 14 33t33 14t33 -14t14 -33v-699q0 -242 118 -382t322 -140q203 0 321.5 140.5t118.5 381.5v699q0 19 14 33t33 14t33 -14t14 -33v-699q0 -280 -145.5 -448t-388.5 -168q-244 0 -389 167.5t-145 448.5zM455 1662l34 40q17 21 44 23t48 -15 q20 -17 22.5 -44t-14.5 -48l-34 -40q-17 -21 -44.5 -23t-47.5 15q-21 17 -23 44t15 48zM860 1662l34 40q17 21 44 23t48 -15q20 -17 22.5 -44t-14.5 -48l-34 -40q-18 -21 -45 -23t-47 15q-21 17 -23.5 44t15.5 48z" />
<glyph unicode="&#xdd;" horiz-adv-x="1110" d="M58 1228q-10 17 -6.5 35.5t19.5 29.5q17 10 35.5 6.5t29.5 -19.5l418 -635l427 635q7 10 17 15.5t20 5t19.5 -4t17 -11t11.5 -16.5t2.5 -20.5t-8.5 -21.5l-460 -681v-546q0 -20 -14 -33.5t-33 -13.5t-33 13.5t-14 33.5v546zM546 1539q-14 13 -13.5 33t14.5 33l205 203 q13 14 33 13.5t34 -14.5q14 -13 13.5 -33t-14.5 -33l-205 -203q-14 -14 -33.5 -13.5t-33.5 14.5z" />
<glyph unicode="&#xde;" horiz-adv-x="1147" d="M209 1v1254q0 19 13.5 33t33.5 14t34 -14t14 -33v-225h357q62 0 128.5 -24.5t127 -70t99 -123t38.5 -171.5q0 -164 -117 -281t-282 -117h-351v-242q0 -19 -14 -33t-34 -14t-33.5 14t-13.5 33zM304 338h351q126 0 215.5 89t89.5 214q0 63 -22 115t-56 84.5t-75.5 55 t-78 31.5t-67.5 9h-357v-598z" />
<glyph unicode="&#xdf;" horiz-adv-x="1192" d="M180 -274v1097q0 92 23.5 176.5t68.5 155t121.5 112.5t173.5 42q98 0 186 -47.5t146.5 -143t58.5 -218.5q0 -19 -14 -33t-34 -14q-29 0 -57 -3t-66 -13.5t-66 -29t-48 -52.5t-20 -80q0 -38 9 -66.5t23 -47t42 -35t52.5 -26t68.5 -23.5q39 -13 58.5 -20.5t55.5 -24 t55.5 -35t41 -46t31.5 -65t10 -84.5q0 -83 -45.5 -144.5t-113.5 -90.5t-147 -29q-16 0 -33 1.5t-31.5 3.5t-29 5t-26.5 6.5t-22.5 6.5t-19 6t-14 5.5t-9.5 3.5l-4 2q-26 12 -27 38t19.5 42.5t46.5 5.5l4 -2q5 -2 12.5 -4.5t17.5 -6t23.5 -7t28 -6t31.5 -4.5t33 -2 q85 0 148.5 44.5t63.5 125.5q0 44 -11 73t-39 50t-56 33t-81 29q-33 11 -51.5 17t-50 20t-50 27.5t-42 36t-36 48t-21.5 61.5t-9 78q0 126 86.5 192.5t215.5 77.5q-15 125 -101 197t-193 72q-54 0 -103.5 -21.5t-93 -65t-69.5 -122t-26 -182.5v-1097q0 -20 -13.5 -33.5 t-33.5 -13.5t-34 14t-14 33z" />
<glyph unicode="&#xe0;" horiz-adv-x="979" d="M121 220q0 40 11 74t26.5 57t42 42t47 30t53 21t48.5 13.5t43 8.5l320 60v141q0 44 -33 81t-82 57.5t-100 20.5q-46 0 -141 -17.5t-158 -33.5q-17 -4 -30.5 2.5t-19.5 19.5t-6.5 27t8.5 26t26 16q12 4 65.5 16t133 25.5t122.5 13.5q118 0 213.5 -72.5t95.5 -181.5v-667 q0 -20 -14 -33.5t-33 -13.5t-33 13.5t-14 33.5v24q-190 -86 -303 -86q-125 0 -206.5 79.5t-81.5 202.5zM215 220q0 -83 54 -135.5t140 -52.5q41 0 104 18t111 38t88 40v302l-302 -57q-108 -20 -151.5 -54.5t-43.5 -98.5zM288 1408q14 14 33.5 14t33.5 -13l209 -202 q14 -13 14.5 -33t-13.5 -34t-33.5 -14t-33.5 13l-209 202q-14 14 -14 33.5t13 33.5z" />
<glyph unicode="&#xe1;" horiz-adv-x="979" d="M121 220q0 40 11 74t26.5 57t42 42t47 30t53 21t48.5 13.5t43 8.5l320 60v141q0 44 -33 81t-82 57.5t-100 20.5q-46 0 -141 -17.5t-158 -33.5q-17 -4 -30.5 2.5t-19.5 19.5t-6.5 27t8.5 26t26 16q12 4 65.5 16t133 25.5t122.5 13.5q118 0 213.5 -72.5t95.5 -181.5v-667 q0 -20 -14 -33.5t-33 -13.5t-33 13.5t-14 33.5v24q-190 -86 -303 -86q-125 0 -206.5 79.5t-81.5 202.5zM215 220q0 -83 54 -135.5t140 -52.5q41 0 104 18t111 38t88 40v302l-302 -57q-108 -20 -151.5 -54.5t-43.5 -98.5zM426 1140q-14 13 -13.5 33t14.5 33l205 203 q13 14 33 13.5t34 -14.5q14 -13 13.5 -33t-14.5 -33l-205 -203q-14 -14 -33.5 -13.5t-33.5 14.5z" />
<glyph unicode="&#xe2;" horiz-adv-x="979" d="M121 220q0 40 11 74t26.5 57t42 42t47 30t53 21t48.5 13.5t43 8.5l320 60v141q0 44 -33 81t-82 57.5t-100 20.5q-46 0 -141 -17.5t-158 -33.5q-17 -4 -30.5 2.5t-19.5 19.5t-6.5 27t8.5 26t26 16q12 4 65.5 16t133 25.5t122.5 13.5q118 0 213.5 -72.5t95.5 -181.5v-667 q0 -20 -14 -33.5t-33 -13.5t-33 13.5t-14 33.5v24q-190 -86 -303 -86q-125 0 -206.5 79.5t-81.5 202.5zM215 220q0 -83 54 -135.5t140 -52.5q41 0 104 18t111 38t88 40v302l-302 -57q-108 -20 -151.5 -54.5t-43.5 -98.5zM247 1214l205 203q14 14 33 14t33 -14l209 -202 q14 -14 14 -33.5t-13 -33.5q-14 -14 -33.5 -14t-33.5 13l-176 170l-172 -170q-13 -12 -28 -13t-27 6.5t-19.5 19.5t-6 27t14.5 27z" />
<glyph unicode="&#xe3;" horiz-adv-x="979" d="M121 220q0 40 11 74t26.5 57t42 42t47 30t53 21t48.5 13.5t43 8.5l320 60v141q0 44 -33 81t-82 57.5t-100 20.5q-46 0 -141 -17.5t-158 -33.5q-17 -4 -30.5 2.5t-19.5 19.5t-6.5 27t8.5 26t26 16q12 4 65.5 16t133 25.5t122.5 13.5q118 0 213.5 -72.5t95.5 -181.5v-667 q0 -20 -14 -33.5t-33 -13.5t-33 13.5t-14 33.5v24q-190 -86 -303 -86q-125 0 -206.5 79.5t-81.5 202.5zM178 1233q5 7 12.5 16.5t25.5 28.5t36 35t42.5 31.5t47.5 21.5q14 4 27.5 4.5t25 -0.5t23.5 -6t21 -9.5t19.5 -12.5t17.5 -14t17 -16t15 -16t14 -16q21 -25 34 -37.5 t25.5 -18t24.5 -2.5q18 5 41 23t40.5 37t31.5 38q11 16 30.5 18.5t34.5 -8.5q16 -11 19 -30.5t-8 -35.5l-4.5 -5.5t-8.5 -10.5t-11.5 -13.5t-14 -15.5t-16.5 -16.5t-19 -17.5t-20.5 -16.5t-22.5 -15.5t-23 -12.5t-24 -8.5q-15 -4 -29 -5t-26.5 1.5t-24 6.5t-22.5 11 t-20.5 14t-20.5 17.5t-19 19.5t-18 21q-32 37 -49 49.5t-35 7.5q-25 -7 -58 -37t-55 -60q-10 -14 -24.5 -17.5t-27.5 2t-23 16t-10.5 25t9.5 29.5zM215 220q0 -83 54 -135.5t140 -52.5q41 0 104 18t111 38t88 40v302l-302 -57q-108 -20 -151.5 -54.5t-43.5 -98.5z" />
<glyph unicode="&#xe4;" horiz-adv-x="979" d="M121 220q0 40 11 74t26.5 57t42 42t47 30t53 21t48.5 13.5t43 8.5l320 60v141q0 44 -33 81t-82 57.5t-100 20.5q-46 0 -141 -17.5t-158 -33.5q-17 -4 -30.5 2.5t-19.5 19.5t-6.5 27t8.5 26t26 16q12 4 65.5 16t133 25.5t122.5 13.5q118 0 213.5 -72.5t95.5 -181.5v-667 q0 -20 -14 -33.5t-33 -13.5t-33 13.5t-14 33.5v24q-190 -86 -303 -86q-125 0 -206.5 79.5t-81.5 202.5zM215 220q0 -83 54 -135.5t140 -52.5q41 0 104 18t111 38t88 40v302l-302 -57q-108 -20 -151.5 -54.5t-43.5 -98.5zM217 1277l34 40q17 21 44 23t48 -15q20 -17 22.5 -44 t-14.5 -48l-34 -40q-17 -21 -44.5 -23t-47.5 15q-21 17 -23 44t15 48zM622 1277l34 40q17 21 44 23t48 -15q20 -17 22.5 -44t-14.5 -48l-34 -40q-18 -21 -45 -23t-47 15q-21 17 -23.5 44t15.5 48z" />
<glyph unicode="&#xe5;" horiz-adv-x="979" d="M121 220q0 40 11 74t26.5 57t42 42t47 30t53 21t48.5 13.5t43 8.5l320 60v141q0 44 -33 81t-82 57.5t-100 20.5q-46 0 -141 -17.5t-158 -33.5q-17 -4 -30.5 2.5t-19.5 19.5t-6.5 27t8.5 26t26 16q12 4 65.5 16t133 25.5t122.5 13.5q118 0 213.5 -72.5t95.5 -181.5v-667 q0 -20 -14 -33.5t-33 -13.5t-33 13.5t-14 33.5v24q-190 -86 -303 -86q-125 0 -206.5 79.5t-81.5 202.5zM215 220q0 -83 54 -135.5t140 -52.5q41 0 104 18t111 38t88 40v302l-302 -57q-108 -20 -151.5 -54.5t-43.5 -98.5zM293 1309q0 80 57 137t137 57t137 -57t57 -137 t-57 -137t-137 -57t-137 57t-57 137zM369 1309q0 -49 34.5 -83.5t83.5 -34.5q48 0 82.5 34.5t34.5 83.5q0 48 -34.5 82.5t-82.5 34.5q-49 0 -83.5 -34.5t-34.5 -82.5z" />
<glyph unicode="&#xe6;" horiz-adv-x="1644" d="M123 218q0 40 11 73.5t26.5 56.5t41.5 42t47 30t52.5 21t48 13.5t43.5 8.5l325 61v144q0 68 -68.5 115t-149.5 47t-300 -52q-26 -7 -42.5 13t-11 44.5t32.5 29.5q9 3 64 15.5t134.5 26t122.5 13.5q95 0 179 -49t116 -131q121 180 345 180q194 0 300.5 -121.5 t106.5 -343.5q0 -18 -12.5 -31t-29.5 -14l-697 -41q8 -159 102.5 -251.5t250.5 -93.5q124 0 213 44q25 11 44.5 -4t19.5 -40t-25 -37q-113 -55 -251 -53q-216 3 -338 144l-54 -27q-230 -114 -361 -114q-124 0 -205 79.5t-81 201.5zM212 218q0 -85 55 -138t142 -53 q105 0 321 104l43 21q-55 107 -55 241v40l-308 -58q-109 -20 -153.5 -55.5t-44.5 -101.5zM807 459l649 38q-4 67 -20.5 121.5t-50.5 104.5t-96.5 78.5t-148.5 28.5q-82 0 -148 -31t-105 -82.5t-59.5 -113.5t-20.5 -129v-15z" />
<glyph unicode="&#xe7;" horiz-adv-x="932" d="M123 432q0 146 58.5 258t165.5 173.5t246 61.5q53 0 105.5 -9.5t77 -17t28.5 -10.5q27 -10 29.5 -36.5t-17 -44t-46.5 -6.5l-5 1.5t-13.5 4t-20.5 6t-27.5 6.5t-32.5 5.5t-37.5 4t-40.5 1.5q-171 0 -273.5 -108.5t-102.5 -289.5t102.5 -290t273.5 -109q23 0 45 1.5t39 4 t31.5 6t24.5 6.5t17.5 5.5t11.5 3.5l3 2q16 7 30.5 4.5t24 -14t13 -24.5t-2.5 -27.5t-21 -22.5q-76 -38 -212 -39q84 -163 27 -272q-55 -105 -217 -105q-19 0 -33 14t-14 33t14 33t33 14q105 0 134 55q20 39 4 102.5t-64 136.5q-165 35 -261.5 164t-96.5 318z" />
<glyph unicode="&#xe8;" horiz-adv-x="1060" d="M128 396v80q0 84 27.5 162.5t79 142t133.5 101.5t183 38q194 0 301 -121.5t107 -341.5q0 -19 -12.5 -32.5t-31.5 -14.5l-692 -40q8 -155 101.5 -246.5t248.5 -92.5q19 0 38 1.5t36 3.5t33 5.5t29 7t25 7t20.5 7t15 6t10.5 3.5l3 2q15 7 30 4.5t23.5 -14.5t12.5 -25.5 t-2.5 -27.5t-22.5 -21q-14 -7 -36.5 -16t-87 -23.5t-127.5 -13.5q-205 2 -325 127.5t-120 331.5zM222 464l642 38q-3 51 -13.5 94.5t-33 87t-56.5 74t-87.5 49.5t-122.5 19q-81 0 -146 -30.5t-104 -81.5t-59 -112t-20 -126v-12zM347 1408q14 14 33.5 14t33.5 -13l209 -202 q14 -13 14.5 -33t-13.5 -34t-33.5 -14t-33.5 13l-209 202q-14 14 -14 33.5t13 33.5z" />
<glyph unicode="&#xe9;" horiz-adv-x="1060" d="M128 396v80q0 84 27.5 162.5t79 142t133.5 101.5t183 38q194 0 301 -121.5t107 -341.5q0 -19 -12.5 -32.5t-31.5 -14.5l-692 -40q8 -155 101.5 -246.5t248.5 -92.5q19 0 38 1.5t36 3.5t33 5.5t29 7t25 7t20.5 7t15 6t10.5 3.5l3 2q15 7 30 4.5t23.5 -14.5t12.5 -25.5 t-2.5 -27.5t-22.5 -21q-14 -7 -36.5 -16t-87 -23.5t-127.5 -13.5q-205 2 -325 127.5t-120 331.5zM222 464l642 38q-3 51 -13.5 94.5t-33 87t-56.5 74t-87.5 49.5t-122.5 19q-81 0 -146 -30.5t-104 -81.5t-59 -112t-20 -126v-12zM499 1140q-14 13 -13.5 33t14.5 33l205 203 q13 14 33 13.5t34 -14.5q14 -13 13.5 -33t-14.5 -33l-205 -203q-14 -14 -33.5 -13.5t-33.5 14.5z" />
<glyph unicode="&#xea;" horiz-adv-x="1060" d="M128 396v80q0 84 27.5 162.5t79 142t133.5 101.5t183 38q194 0 301 -121.5t107 -341.5q0 -19 -12.5 -32.5t-31.5 -14.5l-692 -40q8 -155 101.5 -246.5t248.5 -92.5q19 0 38 1.5t36 3.5t33 5.5t29 7t25 7t20.5 7t15 6t10.5 3.5l3 2q15 7 30 4.5t23.5 -14.5t12.5 -25.5 t-2.5 -27.5t-22.5 -21q-14 -7 -36.5 -16t-87 -23.5t-127.5 -13.5q-205 2 -325 127.5t-120 331.5zM222 464l642 38q-3 51 -13.5 94.5t-33 87t-56.5 74t-87.5 49.5t-122.5 19q-81 0 -146 -30.5t-104 -81.5t-59 -112t-20 -126v-12zM302 1214l205 203q13 13 32.5 13t33.5 -13 l209 -202q14 -14 14 -33.5t-13 -33.5q-14 -14 -33.5 -14t-33.5 13l-176 170l-172 -170q-21 -20 -46.5 -10.5t-32 32.5t12.5 45z" />
<glyph unicode="&#xeb;" horiz-adv-x="1060" d="M128 396v80q0 84 27.5 162.5t79 142t133.5 101.5t183 38q194 0 301 -121.5t107 -341.5q0 -19 -12.5 -32.5t-31.5 -14.5l-692 -40q8 -155 101.5 -246.5t248.5 -92.5q19 0 38 1.5t36 3.5t33 5.5t29 7t25 7t20.5 7t15 6t10.5 3.5l3 2q15 7 30 4.5t23.5 -14.5t12.5 -25.5 t-2.5 -27.5t-22.5 -21q-14 -7 -36.5 -16t-87 -23.5t-127.5 -13.5q-205 2 -325 127.5t-120 331.5zM222 464l642 38q-3 51 -13.5 94.5t-33 87t-56.5 74t-87.5 49.5t-122.5 19q-81 0 -146 -30.5t-104 -81.5t-59 -112t-20 -126v-12zM297 1277l34 40q17 21 44 23t48 -15 q20 -17 22.5 -44t-14.5 -48l-34 -40q-17 -21 -44.5 -23t-47.5 15q-21 17 -23 44t15 48zM702 1277l34 40q17 21 44 23t48 -15q20 -17 22.5 -44t-14.5 -48l-34 -40q-18 -21 -45 -23t-47 15q-21 17 -23.5 44t15.5 48z" />
<glyph unicode="&#xec;" horiz-adv-x="452" d="M20 1408q14 14 33.5 14t33.5 -13l209 -202q14 -13 14.5 -33t-13.5 -34t-33.5 -14t-33.5 13l-209 202q-14 14 -14 33.5t13 33.5zM180 0v858q0 20 13.5 34t32.5 14q20 0 34 -14t14 -34v-858q0 -19 -14 -33t-34 -14q-19 0 -32.5 13.5t-13.5 33.5z" />
<glyph unicode="&#xed;" horiz-adv-x="453" d="M146 1140q-14 13 -13.5 33t14.5 33l205 203q13 14 33 13.5t34 -14.5q14 -13 13.5 -33t-14.5 -33l-205 -203q-14 -14 -33.5 -13.5t-33.5 14.5zM180 0v858q0 20 13.5 34t32.5 14q20 0 34 -14t14 -34v-858q0 -19 -14 -33t-34 -14q-19 0 -32.5 13.5t-13.5 33.5z" />
<glyph unicode="&#xee;" horiz-adv-x="452" d="M-14 1214l205 203q13 13 32.5 13t33.5 -13l209 -202q14 -14 14 -33.5t-13 -33.5q-14 -14 -33.5 -14t-33.5 13l-176 170l-172 -170q-21 -20 -46.5 -10.5t-32 32.5t12.5 45zM180 0v858q0 20 13.5 34t32.5 14q20 0 34 -14t14 -34v-858q0 -19 -14 -33t-34 -14 q-19 0 -32.5 13.5t-13.5 33.5z" />
<glyph unicode="&#xef;" horiz-adv-x="453" d="M-43 1277l34 40q17 21 44 23t48 -15q20 -17 22.5 -44t-14.5 -48l-34 -40q-17 -21 -44.5 -23t-47.5 15q-21 17 -23 44t15 48zM180 0v858q0 20 13.5 34t32.5 14q20 0 34 -14t14 -34v-858q0 -19 -14 -33t-34 -14q-19 0 -32.5 13.5t-13.5 33.5zM362 1277l34 40q17 21 44 23 t48 -15q20 -17 22.5 -44t-14.5 -48l-34 -40q-18 -21 -45 -23t-47 15q-21 17 -23.5 44t15.5 48z" />
<glyph unicode="&#xf0;" horiz-adv-x="1028" d="M111 358q-1 86 33 159.5t91.5 124t134.5 79t161 28.5q82 0 186 -45q-57 138 -157 317l-213 -73q-27 -9 -46 9t-15 44t31 36l194 67q-47 79 -85 132q-11 16 -7.5 35t19.5 30q17 11 36 8t30 -19l5 -7.5t14 -21.5t20.5 -31.5t27 -43t31.5 -51.5l227 78q27 9 46 -9t15 -44 t-31 -36l-209 -72q256 -458 256 -712q0 -178 -112 -290t-288 -112q-173 0 -283.5 122.5t-111.5 297.5zM205 358q1 -89 36.5 -162.5t105 -118.5t159.5 -45q137 0 221 85t84 223q0 94 -44 231q-4 4 -35.5 22.5t-91.5 40t-109 21.5q-88 0 -162 -35.5t-119 -104.5t-45 -157z" />
<glyph unicode="&#xf1;" horiz-adv-x="1128" d="M180 0v858q0 20 14 34t33 14t33 -14t14 -34v-74q158 136 332 136q170 0 261 -96.5t91 -277.5v-546q0 -19 -14 -33t-34 -14t-33.5 13.5t-13.5 33.5v546q0 142 -63.5 211t-193.5 69q-61 0 -119.5 -20t-102 -51t-68.5 -53.5t-42 -41.5v-660q0 -20 -14 -33.5t-33 -13.5 t-33 13.5t-14 33.5zM287 1233q7 10 18.5 23.5t35 38t53 44t57.5 27.5q18 5 35 4.5t30.5 -3.5t28.5 -11t25 -15t23 -20t19.5 -20.5t18.5 -20.5q31 -37 48.5 -49.5t35.5 -8.5q26 7 58 37t55 61q11 16 30.5 18.5t34.5 -8.5q16 -11 19 -30.5t-8 -35.5q-92 -112 -164 -132 q-54 -15 -94.5 9t-85.5 77q-32 37 -49 49.5t-35 7.5q-25 -7 -58 -37t-55 -60q-10 -14 -24.5 -18t-27.5 2t-23 16.5t-10.5 25t9.5 29.5z" />
<glyph unicode="&#xf2;" horiz-adv-x="1171" d="M122 426q0 134 57 246.5t164 180t243 67.5q201 0 332.5 -138t131.5 -350q0 -211 -133 -352.5t-331 -141.5q-202 0 -333 138t-131 350zM216 426q0 -171 104.5 -282.5t265.5 -111.5t265 113t104 287q0 171 -104.5 282.5t-264.5 111.5q-165 0 -267.5 -116.5t-102.5 -283.5z M377 1408q14 14 33.5 14t33.5 -13l209 -202q14 -13 14.5 -33t-13.5 -34t-33.5 -14t-33.5 13l-209 202q-14 14 -14 33.5t13 33.5z" />
<glyph unicode="&#xf3;" horiz-adv-x="1171" d="M122 426q0 134 57 246.5t164 180t243 67.5q201 0 332.5 -138t131.5 -350q0 -211 -133 -352.5t-331 -141.5q-202 0 -333 138t-131 350zM216 426q0 -171 104.5 -282.5t265.5 -111.5t265 113t104 287q0 171 -104.5 282.5t-264.5 111.5q-165 0 -267.5 -116.5t-102.5 -283.5z M507 1140q-14 13 -13.5 33t14.5 33l205 203q13 14 33 13.5t34 -14.5q14 -13 13.5 -33t-14.5 -33l-205 -203q-14 -14 -33.5 -13.5t-33.5 14.5z" />
<glyph unicode="&#xf4;" horiz-adv-x="1171" d="M122 426q0 134 57 246.5t164 180t243 67.5q201 0 332.5 -138t131.5 -350q0 -211 -133 -352.5t-331 -141.5q-202 0 -333 138t-131 350zM216 426q0 -171 104.5 -282.5t265.5 -111.5t265 113t104 287q0 171 -104.5 282.5t-264.5 111.5q-165 0 -267.5 -116.5t-102.5 -283.5z M338 1214l205 203q13 13 32.5 13t33.5 -13l209 -202q14 -14 14 -33.5t-13 -33.5q-14 -14 -33.5 -14t-33.5 13l-176 170l-172 -170q-21 -20 -46.5 -10.5t-32 32.5t12.5 45z" />
<glyph unicode="&#xf5;" horiz-adv-x="1171" d="M122 426q0 134 57 246.5t164 180t243 67.5q201 0 332.5 -138t131.5 -350q0 -211 -133 -352.5t-331 -141.5q-202 0 -333 138t-131 350zM216 426q0 -171 104.5 -282.5t265.5 -111.5t265 113t104 287q0 171 -104.5 282.5t-264.5 111.5q-165 0 -267.5 -116.5t-102.5 -283.5z M315 1233q7 10 18.5 23.5t35 38t53 44t57.5 27.5q18 5 35 4.5t30.5 -3.5t28.5 -11t25 -15t23 -20t19.5 -20.5t18.5 -20.5q31 -37 48.5 -49.5t35.5 -8.5q26 7 58 37t55 61q11 16 30.5 18.5t34.5 -8.5q16 -11 19 -30.5t-8 -35.5q-92 -112 -164 -132q-54 -15 -94.5 9t-85.5 77 q-32 37 -49 49.5t-35 7.5q-25 -7 -58 -37t-55 -60q-10 -14 -24.5 -18t-27.5 2t-23 16.5t-10.5 25t9.5 29.5z" />
<glyph unicode="&#xf6;" horiz-adv-x="1171" d="M122 426q0 134 57 246.5t164 180t243 67.5q201 0 332.5 -138t131.5 -350q0 -211 -133 -352.5t-331 -141.5q-202 0 -333 138t-131 350zM216 426q0 -171 104.5 -282.5t265.5 -111.5t265 113t104 287q0 171 -104.5 282.5t-264.5 111.5q-165 0 -267.5 -116.5t-102.5 -283.5z M338 1277l34 40q17 21 44 23t48 -15q20 -17 22.5 -44t-14.5 -48l-34 -40q-17 -21 -44.5 -23t-47.5 15q-21 17 -23 44t15 48zM743 1277l34 40q17 21 44 23t48 -15q20 -17 22.5 -44t-14.5 -48l-34 -40q-18 -21 -45 -23t-47 15q-21 17 -23.5 44t15.5 48z" />
<glyph unicode="&#xf7;" horiz-adv-x="1277" d="M158 429q0 19 14 33t33 14h867q20 0 33.5 -14t13.5 -33t-13.5 -33t-33.5 -14h-867q-19 0 -33 14t-14 33zM566 59l41 48q18 21 45 23t47 -15q20 -18 22 -44.5t-15 -47.5l-41 -49q-18 -21 -45 -22.5t-47 15.5q-21 17 -23 44t16 48zM571 836l41 48q18 21 45 23t47 -15 q21 -18 23 -45t-15 -47l-42 -49q-17 -20 -44 -22.5t-48 15.5q-20 17 -22.5 44t15.5 48z" />
<glyph unicode="&#xf8;" horiz-adv-x="1171" d="M122 426q0 211 133 353t331 142q153 0 270 -84l99 122q12 15 31.5 17t34.5 -10t17 -31.5t-10 -34.5l-102 -126q124 -137 124 -341q0 -212 -133 -353.5t-331 -141.5q-153 0 -270 84l-98 -122q-12 -15 -31.5 -17t-34.5 10q-16 13 -18 32t10 34l102 125q-124 137 -124 342z M217 426q0 -171 104.5 -282.5t264.5 -111.5q161 0 265.5 113t104.5 288q0 171 -104.5 282t-265.5 111t-265 -113t-104 -287z" />
<glyph unicode="&#xf9;" horiz-adv-x="1129" d="M171 312v546q0 20 13.5 33.5t33.5 13.5t34 -14t14 -33v-546q0 -142 63.5 -211t192.5 -69q61 0 120 20t102.5 51t68.5 53.5t42 41.5v660q0 20 13.5 33.5t33.5 13.5t33.5 -13.5t13.5 -33.5v-858q0 -20 -14 -34t-33 -14t-33 14t-14 34v74q-158 -136 -333 -136 q-170 0 -260.5 96.5t-90.5 277.5zM346 1408q14 14 33.5 14t33.5 -13l209 -202q14 -13 14.5 -33t-13.5 -34t-33.5 -14t-33.5 13l-209 202q-14 14 -14 33.5t13 33.5z" />
<glyph unicode="&#xfa;" horiz-adv-x="1129" d="M171 312v546q0 20 13.5 33.5t33.5 13.5t34 -14t14 -33v-546q0 -142 63.5 -211t192.5 -69q61 0 120 20t102.5 51t68.5 53.5t42 41.5v660q0 20 13.5 33.5t33.5 13.5t33.5 -13.5t13.5 -33.5v-858q0 -20 -14 -34t-33 -14t-33 14t-14 34v74q-158 -136 -333 -136 q-170 0 -260.5 96.5t-90.5 277.5zM535 1140q-14 13 -13.5 33t14.5 33l205 203q13 14 33 13.5t34 -14.5q14 -13 13.5 -33t-14.5 -33l-205 -203q-14 -14 -33.5 -13.5t-33.5 14.5z" />
<glyph unicode="&#xfb;" horiz-adv-x="1129" d="M171 312v546q0 20 13.5 33.5t33.5 13.5t34 -14t14 -33v-546q0 -142 63.5 -211t192.5 -69q61 0 120 20t102.5 51t68.5 53.5t42 41.5v660q0 20 13.5 33.5t33.5 13.5t33.5 -13.5t13.5 -33.5v-858q0 -20 -14 -34t-33 -14t-33 14t-14 34v74q-158 -136 -333 -136 q-170 0 -260.5 96.5t-90.5 277.5zM324 1214l205 203q13 13 32.5 13t33.5 -13l209 -202q14 -14 14 -33.5t-13 -33.5q-14 -14 -33.5 -14t-33.5 13l-176 170l-172 -170q-21 -20 -46.5 -10.5t-32 32.5t12.5 45z" />
<glyph unicode="&#xfc;" horiz-adv-x="1129" d="M171 312v546q0 20 13.5 33.5t33.5 13.5t34 -14t14 -33v-546q0 -142 63.5 -211t192.5 -69q61 0 120 20t102.5 51t68.5 53.5t42 41.5v660q0 20 13.5 33.5t33.5 13.5t33.5 -13.5t13.5 -33.5v-858q0 -20 -14 -34t-33 -14t-33 14t-14 34v74q-158 -136 -333 -136 q-170 0 -260.5 96.5t-90.5 277.5zM295 1277l34 40q17 21 44 23t48 -15q20 -17 22.5 -44t-14.5 -48l-34 -40q-17 -21 -44.5 -23t-47.5 15q-21 17 -23 44t15 48zM700 1277l34 40q17 21 44 23t48 -15q20 -17 22.5 -44t-14.5 -48l-34 -40q-18 -21 -45 -23t-47 15 q-21 17 -23.5 44t15.5 48z" />
<glyph unicode="&#xfd;" horiz-adv-x="959" d="M34 -378q0 20 13.5 33.5t32.5 14.5q123 4 196 53.5t118 158.5l37 90l-358 867q-11 27 6 47t43.5 18t37.5 -29l322 -779l319 781q7 16 20.5 23.5t27 5t26 -10.5t16 -22t-2.5 -31l-407 -995q-55 -136 -152.5 -203.5t-245.5 -67.5q-20 0 -34 13t-15 33zM469 1140 q-14 13 -13.5 33t14.5 33l205 203q13 14 33 13.5t34 -14.5q14 -13 13.5 -33t-14.5 -33l-205 -203q-14 -14 -33.5 -13.5t-33.5 14.5z" />
<glyph unicode="&#xfe;" horiz-adv-x="1114" d="M181 -403v1666q0 19 13.5 33t33.5 14t33.5 -14t13.5 -33v-404q173 63 257 63q216 0 337.5 -137.5t121.5 -355.5t-121.5 -355.5t-337.5 -137.5q-87 0 -257 62v-401q0 -19 -13.5 -33t-33.5 -14t-33.5 14t-13.5 33zM275 99q177 -69 257 -69q176 0 270 109.5t94 289.5 t-94 289.5t-270 109.5q-85 0 -257 -70v-659z" />
<glyph unicode="&#xff;" horiz-adv-x="959" d="M34 -378q0 20 13.5 33.5t32.5 14.5q123 4 196 53.5t118 158.5l37 90l-358 867q-11 27 6 47t43.5 18t37.5 -29l322 -779l319 781q7 16 20.5 23.5t27 5t26 -10.5t16 -22t-2.5 -31l-407 -995q-55 -136 -152.5 -203.5t-245.5 -67.5q-20 0 -34 13t-15 33zM211 1277l34 40 q17 21 44 23t48 -15q20 -17 22.5 -44t-14.5 -48l-34 -40q-17 -21 -44.5 -23t-47.5 15q-21 17 -23 44t15 48zM616 1277l34 40q17 21 44 23t48 -15q20 -17 22.5 -44t-14.5 -48l-34 -40q-18 -21 -45 -23t-47 15q-21 17 -23.5 44t15.5 48z" />
<glyph unicode="&#x152;" horiz-adv-x="1956" d="M129 637q0 146 47.5 272t131 215.5t201.5 140.5t254 51q189 0 338 -95v33q0 20 14 34t33 14h663q19 0 33 -14t14 -34t-14 -33.5t-33 -13.5h-616v-537h528q20 0 33.5 -13.5t13.5 -32.5q0 -20 -14 -34t-33 -14h-528v-529h600q19 0 33 -13.5t14 -33.5t-14 -33.5t-33 -13.5 h-647q-20 0 -33.5 13.5t-13.5 33.5v40q-151 -101 -338 -101q-178 0 -323.5 91t-228 251t-82.5 356zM223 637q0 -170 70.5 -308.5t194 -217t275.5 -78.5q196 0 338 125v948q-142 116 -338 116q-235 0 -387.5 -165.5t-152.5 -419.5z" />
<glyph unicode="&#x153;" horiz-adv-x="1888" d="M120 427q0 139 60.5 252.5t166.5 178t237 64.5q136 0 243.5 -66.5t165.5 -181.5q49 112 147 181t237 69q194 0 300.5 -122t106.5 -343q0 -19 -12.5 -32.5t-31.5 -14.5l-692 -41q8 -155 101.5 -246t248.5 -92q53 0 105.5 11t77.5 20.5t27 11.5q26 12 47 -4.5t20.5 -42.5 t-26.5 -38q-13 -7 -36 -16t-87.5 -23t-127.5 -13q-146 1 -251.5 68t-154.5 185q-59 -117 -166.5 -185t-241.5 -68q-202 0 -333 138t-131 350zM214 427q0 -171 104.5 -282.5t265.5 -111.5q160 0 264.5 113.5t104.5 287.5q0 171 -104.5 282.5t-264.5 111.5 q-161 0 -265.5 -113.5t-104.5 -287.5zM1047 465l642 38q-3 51 -13.5 95t-33 88t-56.5 75t-87.5 50t-121.5 19q-82 0 -147 -31t-104 -82t-59 -112t-20 -127v-13z" />
<glyph unicode="&#x178;" horiz-adv-x="1110" d="M58 1228q-10 17 -6.5 35.5t19.5 29.5q17 10 35.5 6.5t29.5 -19.5l418 -635l427 635q7 10 17 15.5t20 5t19.5 -4t17 -11t11.5 -16.5t2.5 -20.5t-8.5 -21.5l-460 -681v-546q0 -20 -14 -33.5t-33 -13.5t-33 13.5t-14 33.5v546zM288 1662l34 40q17 21 44 23t48 -15 q20 -17 22.5 -44t-14.5 -48l-34 -40q-17 -21 -44.5 -23t-47.5 15q-21 17 -23 44t15 48zM693 1662l34 40q17 21 44 23t48 -15q20 -17 22.5 -44t-14.5 -48l-34 -40q-18 -21 -45 -23t-47 15q-21 17 -23.5 44t15.5 48z" />
<glyph unicode="&#x2c6;" horiz-adv-x="937" d="M224 1214l205 203q13 13 32.5 13t33.5 -13l209 -202q14 -14 14 -33.5t-13 -33.5q-14 -14 -33.5 -14t-33.5 13l-176 170l-172 -170q-21 -20 -46.5 -10.5t-32 32.5t12.5 45z" />
<glyph unicode="&#x2dc;" horiz-adv-x="904" d="M186 1233q7 10 18.5 23.5t35 38t53 44t57.5 27.5q18 5 35 4.5t30.5 -3.5t28.5 -11t25 -15t23 -20t19.5 -20.5t18.5 -20.5q31 -37 48.5 -49.5t35.5 -8.5q26 7 58 37t55 61q11 16 30.5 18.5t34.5 -8.5q16 -11 19 -30.5t-8 -35.5q-92 -112 -164 -132q-54 -15 -94.5 9 t-85.5 77q-32 37 -49 49.5t-35 7.5q-25 -7 -58 -37t-55 -60q-10 -14 -24.5 -18t-27.5 2t-23 16.5t-10.5 25t9.5 29.5z" />
<glyph unicode="&#x2000;" horiz-adv-x="944" />
<glyph unicode="&#x2001;" horiz-adv-x="1888" />
<glyph unicode="&#x2002;" horiz-adv-x="944" />
<glyph unicode="&#x2003;" horiz-adv-x="1888" />
<glyph unicode="&#x2004;" horiz-adv-x="629" />
<glyph unicode="&#x2005;" horiz-adv-x="472" />
<glyph unicode="&#x2006;" horiz-adv-x="314" />
<glyph unicode="&#x2007;" horiz-adv-x="314" />
<glyph unicode="&#x2008;" horiz-adv-x="236" />
<glyph unicode="&#x2009;" horiz-adv-x="377" />
<glyph unicode="&#x200a;" horiz-adv-x="104" />
<glyph unicode="&#x2010;" horiz-adv-x="856" d="M160 429q0 19 14 33t33 14h442q19 0 33 -14t14 -33t-14 -33t-33 -14h-442q-20 0 -33.5 13.5t-13.5 33.5z" />
<glyph unicode="&#x2011;" horiz-adv-x="856" d="M160 429q0 19 14 33t33 14h442q19 0 33 -14t14 -33t-14 -33t-33 -14h-442q-20 0 -33.5 13.5t-13.5 33.5z" />
<glyph unicode="&#x2012;" horiz-adv-x="856" d="M160 429q0 19 14 33t33 14h442q19 0 33 -14t14 -33t-14 -33t-33 -14h-442q-20 0 -33.5 13.5t-13.5 33.5z" />
<glyph unicode="&#x2013;" horiz-adv-x="1050" d="M159 430q0 19 13.5 32.5t33.5 13.5h638q20 0 33.5 -13.5t13.5 -32.5q0 -20 -13.5 -34t-33.5 -14h-638q-20 0 -33.5 14t-13.5 34z" />
<glyph unicode="&#x2014;" horiz-adv-x="1977" d="M174 430q0 19 13.5 32.5t33.5 13.5h1531q20 0 34 -13.5t14 -32.5q0 -20 -14 -34t-34 -14h-1531q-20 0 -33.5 14t-13.5 34z" />
<glyph unicode="&#x2018;" horiz-adv-x="462" d="M126 1082q-17 82 44 177.5t142 152.5q16 11 35.5 8t30.5 -19t7.5 -35.5t-19.5 -30.5q-67 -47 -112 -118t-36 -115q8 -40 76 -53q28 -6 34.5 -31.5t-9.5 -46t-45 -15.5q-126 26 -148 126z" />
<glyph unicode="&#x2019;" horiz-adv-x="508" d="M138 765q-12 17 -8.5 36t19.5 30q67 47 112 118.5t35 114.5q-8 40 -75 53q-17 3 -26.5 15t-9 26t5.5 27.5t18.5 20.5t30.5 4q127 -26 149 -126q17 -82 -44 -177.5t-142 -152.5q-16 -11 -35.5 -8t-29.5 19z" />
<glyph unicode="&#x201a;" horiz-adv-x="482" d="M111 -254q62 44 105.5 108.5t43.5 110.5q0 30 -20.5 44.5t-56.5 22.5q-17 3 -26.5 15t-9 26t5.5 27.5t18.5 20.5t30.5 4q69 -14 110.5 -54.5t41.5 -105.5q0 -77 -59 -161.5t-130 -134.5q-23 -16 -46.5 -3t-26.5 37t19 43z" />
<glyph unicode="&#x201c;" horiz-adv-x="894" d="M126 1082q-17 82 44 177.5t142 152.5q16 11 35.5 8t30.5 -19t7.5 -35.5t-19.5 -30.5q-67 -47 -112 -118t-36 -115q8 -40 76 -53q28 -6 34.5 -31.5t-9.5 -46t-45 -15.5q-126 26 -148 126zM559 1082q-17 82 44 177.5t142 152.5q23 17 46.5 3.5t26 -37.5t-18.5 -43 q-67 -47 -112 -118t-36 -115q8 -40 75 -53q28 -5 35 -31t-9 -47t-44 -15q-127 26 -149 126z" />
<glyph unicode="&#x201d;" horiz-adv-x="940" d="M138 765q-12 17 -8.5 36t19.5 30q67 47 112 118.5t35 114.5q-8 40 -75 53q-17 3 -26.5 15t-9 26t5.5 27.5t18.5 20.5t30.5 4q127 -26 149 -126q17 -82 -44 -177.5t-142 -152.5q-16 -11 -35.5 -8t-29.5 19zM582 831q67 47 112 118.5t35 114.5q-8 40 -75 53q-17 3 -26.5 15 t-9.5 26.5t5.5 27.5t19 20t30.5 4q129 -27 149 -126q17 -82 -44 -177.5t-142 -152.5q-24 -17 -48 -3.5t-26 37.5t20 43z" />
<glyph unicode="&#x201e;" horiz-adv-x="916" d="M100 -320q-12 17 -8.5 36t19.5 30q67 48 112 119t35 115q-8 38 -75 52q-17 3 -26.5 15t-9 26t5.5 27.5t18.5 20.5t30.5 4q127 -26 149 -126q17 -82 -44 -177.5t-142 -152.5q-16 -11 -35.5 -8t-29.5 19zM544 -254q67 48 112 119t35 115q-1 5 -2 8t-6 10t-12 12.5 t-21.5 11.5t-33.5 10q-17 3 -26.5 15t-9 26t6 27.5t18.5 20.5t30 4q129 -27 149 -126q17 -82 -44 -177.5t-142 -152.5q-24 -17 -48 -3.5t-26 37.5t20 43z" />
<glyph unicode="&#x2022;" horiz-adv-x="688" d="M142 429q0 84 59 143t143 59t143 -59t59 -143q0 -83 -59 -142.5t-143 -59.5q-83 0 -142.5 59.5t-59.5 142.5z" />
<glyph unicode="&#x2026;" horiz-adv-x="1402" d="M148 44l41 48q18 21 44.5 23.5t47.5 -15.5q21 -17 23.5 -44t-15.5 -48l-41 -48q-18 -21 -44.5 -23t-47.5 15t-23.5 44t15.5 48zM625 44l41 48q18 21 44.5 23.5t47.5 -15.5q21 -17 23.5 -44t-15.5 -48l-41 -48q-18 -21 -45 -23t-47 15q-21 17 -23.5 44t15.5 48zM1102 44 l40 48q18 21 45 23t47 -15q21 -18 23.5 -44.5t-15.5 -47.5l-40 -48q-18 -21 -45 -23t-47 15q-21 17 -23.5 44t15.5 48z" />
<glyph unicode="&#x202f;" horiz-adv-x="377" />
<glyph unicode="&#x2039;" horiz-adv-x="720" d="M115 430q0 21 16 35l379 327q22 18 46.5 7.5t29.5 -34t-15 -44.5l-337 -291l337 -292q22 -19 15 -45t-30 -34t-46 8l-379 327q-16 14 -16 36z" />
<glyph unicode="&#x203a;" horiz-adv-x="720" d="M149 138l337 292l-337 291q-13 11 -16 26t4 27.5t18 21t26.5 8t28.5 -11.5l379 -327q16 -14 16 -35q0 -22 -16 -36l-379 -327q-21 -19 -46 -8t-30 34.5t15 44.5z" />
<glyph unicode="&#x205f;" horiz-adv-x="472" />
<glyph unicode="&#x20ac;" horiz-adv-x="1174" d="M114 311q1 20 15 33t34 12l641 -22q29 -1 40 -25t-1.5 -47t-41.5 -22l-413 14v-190q0 -54 29.5 -90.5t77 -52.5t86 -21.5t77.5 -5.5q59 0 132.5 14t116 27t44.5 15q27 9 46 -9.5t15.5 -44.5t-30.5 -36l-8 -2q-8 -3 -19 -6.5t-27 -8t-35 -9.5t-40.5 -10t-45.5 -9 t-48.5 -7.5t-50.5 -5.5t-50 -2q-169 0 -266.5 71t-97.5 193v194l-134 4q-19 1 -32.5 15t-13.5 34zM114 630q0 13 6 24t16.5 18t23.5 7l134 4v185q0 43 8.5 80t33 76t63 66t104.5 44.5t152 17.5q44 0 96 -3.5t93.5 -8t79 -9.5t57.5 -8.5t24 -4.5q17 -3 27 -14.5t10 -25.5 t-5 -27t-18 -20.5t-30 -4.5l-11 2t-30 4.5t-44 6t-55.5 7t-62 6t-66 4.5t-65.5 2q-57 0 -101.5 -7.5t-73 -22.5t-47.5 -32t-28.5 -40t-13 -43t-3.5 -45v-181l402 13q29 1 41.5 -22t2 -47t-39.5 -25l-631 -22q-20 -1 -34 12.5t-15 33.5z" />
<glyph unicode="&#x2122;" horiz-adv-x="1413" d="M102 871q0 16 11 26.5t27 10.5h363q16 0 26.5 -10.5t10.5 -26.5t-10.5 -27t-26.5 -11h-144v-381q0 -15 -11 -26t-27 -11t-26.5 11t-10.5 26v381h-144q-16 0 -27 11t-11 27zM679 459l71 418q5 25 32 30t39 -19l151 -309l152 309q12 24 39.5 19.5t32.5 -30.5l70 -418 q3 -14 -3 -24.5t-17 -14.5t-22.5 -3.5t-20.5 8.5t-11 21l-51 304l-135 -273q-10 -21 -34 -21t-34 21l-133 273l-52 -304q-3 -22 -23.5 -28t-37.5 6.5t-13 34.5z" />
<glyph unicode="&#xe000;" horiz-adv-x="905" d="M0 0v905h905v-905h-905z" />
<glyph unicode="&#xfb01;" horiz-adv-x="1002" d="M70 735q0 17 12.5 29t29.5 12h135v185q0 159 91.5 253t249.5 94q38 0 90.5 -3.5t85 -7t37.5 -4.5q17 -2 27.5 -13t12 -25t-3 -27.5t-17.5 -21.5t-30 -6l-8 1q-7 1 -19 2t-28 2.5t-35 3t-38 2.5t-38.5 2t-35.5 1q-119 0 -183 -67t-64 -186v-185h451q20 0 33.5 -14 t13.5 -33v-730q0 -19 -13.5 -33t-33.5 -14t-33.5 14t-13.5 33l-1 694h-402v-694q0 -19 -14 -33t-33 -14t-33 14t-14 33l-1 694h-135q-17 0 -29.5 12.5t-12.5 29.5z" />
<glyph unicode="&#xfb02;" horiz-adv-x="1101" d="M70 735q0 17 12.5 29t29.5 12h135v229q0 73 24.5 129t64 90t96 55.5t114 29.5t123.5 8q46 0 100.5 -9t81.5 -16.5t37 -11.5h1q32 -12 32 -45v-1236q0 -19 -13.5 -33t-33.5 -14t-33.5 14t-13.5 33v1201q-95 23 -158 23q-51 0 -92.5 -4t-87.5 -17.5t-77 -36t-51 -63.5 t-20 -97l1 -229h229q17 0 29.5 -12t12.5 -29t-12.5 -29.5t-29.5 -12.5h-229v-693q0 -20 -14 -33.5t-33 -13.5t-33 13.5t-14 33.5l-1 693h-135q-17 0 -29.5 12.5t-12.5 29.5z" />
</font>
</defs>
</svg>
